<?xml version="1.0" encoding="UTF-8"?> <svg xmlns="http://www.w3.org/2000/svg" width="18" height="16" viewBox="0 0 18 16" fill="none"><path d="M13.8215 9.28541H13.1786C13.0847 9.28541 13.0076 9.31549 12.9477 9.37593C12.8872 9.43602 12.8571 9.51303 12.8571 9.60683V12.8211C12.8571 13.2631 12.6999 13.6413 12.3852 13.9561C12.0705 14.2708 11.6921 14.428 11.2501 14.428H2.8928C2.45084 14.428 2.07246 14.2708 1.75769 13.9561C1.44299 13.6414 1.28565 13.2631 1.28565 12.8211V4.46394C1.28565 4.02199 1.44295 3.64375 1.75769 3.32901C2.07246 3.01424 2.45084 2.85694 2.8928 2.85694H9.96416C10.0581 2.85694 10.1351 2.82672 10.1953 2.76652C10.2555 2.70626 10.2856 2.62931 10.2856 2.53548V1.89253C10.2856 1.79888 10.2555 1.7218 10.1953 1.66164C10.1351 1.60137 10.0581 1.57129 9.96416 1.57129H2.8928C2.096 1.57129 1.4146 1.85422 0.848659 2.42005C0.282933 2.98585 0 3.66725 0 4.46405V12.8212C0 13.618 0.282933 14.2995 0.848694 14.8651C1.41463 15.431 2.09603 15.7141 2.89284 15.7141H11.2501C12.0468 15.7141 12.7283 15.431 13.2942 14.8651C13.8601 14.2995 14.143 13.618 14.143 12.8212V9.60708C14.143 9.51318 14.1129 9.43613 14.0524 9.37593C13.9922 9.31549 13.9151 9.28541 13.8215 9.28541Z" fill="#ffffff"></path><path d="M17.8084 0.476471C17.6812 0.349218 17.5303 0.285645 17.3564 0.285645H12.2136C12.0395 0.285645 11.8887 0.349218 11.7616 0.476471C11.6343 0.603654 11.5706 0.754338 11.5706 0.928453C11.5706 1.10257 11.6343 1.25329 11.7616 1.38054L13.5294 3.14836L6.98036 9.6975C6.91331 9.76445 6.87988 9.8415 6.87988 9.9284C6.87988 10.0156 6.91341 10.0926 6.98036 10.1596L8.12546 11.3045C8.19241 11.3715 8.26946 11.4049 8.3565 11.4049C8.44354 11.4049 8.52062 11.3715 8.58754 11.3045L15.1366 4.7555L16.9045 6.52332C17.0316 6.65057 17.1824 6.71422 17.3565 6.71422C17.5306 6.71422 17.6813 6.65057 17.8086 6.52332C17.9358 6.3961 17.9994 6.24546 17.9994 6.07134V0.928453C17.9994 0.754232 17.9356 0.603654 17.8084 0.476471Z" fill="#ffffff"></path></svg> 