<?xml version="1.0" encoding="UTF-8"?> <svg xmlns="http://www.w3.org/2000/svg" width="145" height="136" viewBox="0 0 145 136" fill="none"><path fill-rule="evenodd" clip-rule="evenodd" d="M80.7517 124.681C69.3756 126.261 59.9226 117.248 49.2091 113.13C37.2065 108.517 19.1924 110.992 14.2786 99.1338C9.22685 86.9428 23.8428 75.5583 28.5242 63.2124C31.8282 54.4991 32.7673 45.4575 37.6446 37.5121C43.7553 27.5575 48.547 13.4235 60.1219 11.7381C71.7596 10.0435 78.4106 25.4578 89.2497 29.998C101.063 34.9463 116.874 29.8166 125.607 39.1678C134.667 48.8692 136.687 64.3684 133.337 77.2086C130.13 89.5023 117.902 96.3732 108.458 104.899C99.8258 112.692 92.2789 123.079 80.7517 124.681Z" fill="#F5F6F8"></path><path fill-rule="evenodd" clip-rule="evenodd" d="M80.7517 124.681C69.3756 126.261 59.9226 117.248 49.2091 113.13C37.2065 108.517 19.1924 110.992 14.2786 99.1338C9.22685 86.9428 23.8428 75.5583 28.5242 63.2124C31.8282 54.4991 32.7673 45.4575 37.6446 37.5121C43.7553 27.5575 48.547 13.4235 60.1219 11.7381C71.7596 10.0435 78.4106 25.4578 89.2497 29.998C101.063 34.9463 116.874 29.8166 125.607 39.1678C134.667 48.8692 136.687 64.3684 133.337 77.2086C130.13 89.5023 117.902 96.3732 108.458 104.899C99.8258 112.692 92.2789 123.079 80.7517 124.681Z" fill="url(#paint0_linear)"></path><g clip-path="url(#clip0)"><path d="M88.5469 85.3828C87.8998 85.3828 87.375 85.9075 87.375 86.5547L87.375 94.6406C87.375 97.8715 84.7465 100.5 81.5156 100.5L68.8631 100.5C68.2161 100.5 67.6917 101.024 67.6913 101.671L67.6896 104.001L64.8926 101.204C64.7115 100.788 64.2972 100.5 63.8179 100.5L56.2031 100.5C52.9723 100.5 50.3438 97.8715 50.3438 94.6406L50.3438 76.5937C50.3438 73.3629 52.9723 70.7344 56.2031 70.7344L68.0391 70.7344C68.6862 70.7344 69.2109 70.2097 69.2109 69.5625C69.2109 68.9153 68.6862 68.3906 68.0391 68.3906L56.2031 68.3906C51.6799 68.3906 48 72.0705 48 76.5938L48 94.6406C48 99.1638 51.6799 102.844 56.2031 102.844L63.2177 102.844L68.0307 107.657C68.2549 107.881 68.5546 108 68.8596 108C69.0104 108 69.1627 107.971 69.3074 107.911C69.7453 107.73 70.0309 107.303 70.0313 106.829L70.0341 102.844L81.5156 102.844C86.0388 102.844 89.7188 99.1638 89.7188 94.6406L89.7188 86.5547C89.7188 85.9075 89.194 85.3828 88.5469 85.3828Z" fill="#47A348"></path><path d="M90.9674 48L88.0015 48C78.6096 48 70.9688 55.6409 70.9688 65.0327C70.9688 74.4246 78.6096 82.0654 88.0014 82.0654L90.9673 82.0654C92.4332 82.0654 93.8841 81.8791 95.2903 81.5112L99.6716 85.89C99.8958 86.1139 100.195 86.233 100.5 86.233C100.651 86.233 100.804 86.2038 100.949 86.1437C101.386 85.9623 101.672 85.535 101.672 85.0611L101.672 78.2811C103.527 76.7789 105.068 74.8813 106.149 72.7614C107.377 70.3536 108 67.7534 108 65.0327C108 55.6409 100.359 48 90.9674 48ZM99.7949 76.7736C99.5011 76.995 99.3281 77.3416 99.3281 77.7097L99.3281 82.2332L96.4604 79.367C96.2373 79.1441 95.938 79.024 95.6319 79.024C95.5171 79.024 95.4011 79.041 95.2879 79.0758C93.893 79.5045 92.4394 79.7217 90.9674 79.7217L88.0015 79.7217C79.9018 79.7217 73.3125 73.1323 73.3125 65.0327C73.3125 56.9332 79.902 50.3437 88.0015 50.3437L90.9674 50.3437C99.0669 50.3437 105.656 56.9332 105.656 65.0327C105.656 69.6887 103.52 73.9682 99.7949 76.7736Z" fill="#47A348"></path><path d="M94.7622 60.8228C94.5931 58.3695 92.6155 56.3918 90.162 56.2227C88.7713 56.1272 87.444 56.5963 86.4281 57.5447C85.4261 58.48 84.8516 59.8021 84.8516 61.1722C84.8516 61.8194 85.3763 62.344 86.0234 62.344C86.6705 62.344 87.1953 61.8194 87.1953 61.1722C87.1953 60.4387 87.4909 59.7589 88.0273 59.2581C88.5634 58.7579 89.2639 58.5102 90.001 58.5611C91.2934 58.6502 92.335 59.6918 92.4241 60.9841C92.5141 62.2892 91.6578 63.4425 90.3882 63.7266C89.3595 63.9568 88.6412 64.8507 88.6412 65.9003L88.6412 68.7157C88.6412 69.363 89.1659 69.8876 89.813 69.8876C90.4603 69.8876 90.9849 69.363 90.9848 68.7157L90.9848 65.994C93.3461 65.4235 94.9304 63.2628 94.7622 60.8228Z" fill="#47A348"></path><path d="M90.641 72.5227C90.4231 72.3047 90.1207 72.1793 89.8125 72.1793C89.5043 72.1793 89.202 72.3047 88.984 72.5227C88.766 72.7406 88.6406 73.043 88.6406 73.3512C88.6406 73.6606 88.7661 73.9629 88.984 74.1809C89.202 74.3989 89.5043 74.5231 89.8125 74.5231C90.1207 74.5231 90.4231 74.3989 90.641 74.1809C90.859 73.9617 90.9844 73.6606 90.9844 73.3512C90.9844 73.043 90.8589 72.7406 90.641 72.5227Z" fill="#47A348"></path><path d="M80.2266 84.3281L55.5 84.3281C54.8529 84.3281 54.3281 84.8528 54.3281 85.5C54.3281 86.1472 54.8529 86.6719 55.5 86.6719L80.2266 86.6719C80.8738 86.6719 81.3984 86.1472 81.3984 85.5C81.3984 84.8528 80.8737 84.3281 80.2266 84.3281Z" fill="#47A348"></path><path d="M81.055 91.234C80.8371 91.016 80.5348 90.8906 80.2266 90.8906C79.9184 90.8906 79.616 91.016 79.398 91.234C79.18 91.452 79.0547 91.7543 79.0547 92.0625C79.0547 92.3707 79.1801 92.673 79.398 92.891C79.616 93.109 79.9184 93.2344 80.2266 93.2344C80.5348 93.2344 80.8371 93.109 81.055 92.891C81.273 92.673 81.3984 92.3719 81.3984 92.0625C81.3984 91.7543 81.2729 91.452 81.055 91.234Z" fill="#47A348"></path><path d="M75.6172 90.8906L55.5 90.8906C54.8529 90.8906 54.3281 91.4153 54.3281 92.0625C54.3281 92.7097 54.8529 93.2344 55.5 93.2344L75.6172 93.2344C76.2645 93.2344 76.7891 92.7097 76.7891 92.0625C76.7891 91.4153 76.2643 90.8906 75.6172 90.8906Z" fill="#47A348"></path><path d="M72.6094 77.7656L55.5 77.7656C54.8529 77.7656 54.3281 78.2903 54.3281 78.9375C54.3281 79.5847 54.8529 80.1094 55.5 80.1094L72.6094 80.1094C73.2566 80.1094 73.7813 79.5847 73.7813 78.9375C73.7813 78.2903 73.2565 77.7656 72.6094 77.7656Z" fill="#47A348"></path></g><defs><linearGradient id="paint0_linear" x1="72.2881" y1="128.242" x2="113.788" y2="35.2417" gradientUnits="userSpaceOnUse"><stop stop-color="white"></stop><stop offset="1" stop-color="white" stop-opacity="0"></stop></linearGradient><clipPath id="clip0"><rect x="48" y="48" width="60" height="60" fill="white"></rect></clipPath></defs></svg> 