<?xml version="1.0" encoding="UTF-8"?> <svg xmlns="http://www.w3.org/2000/svg" width="145" height="136" viewBox="0 0 145 136" fill="none"><path fill-rule="evenodd" clip-rule="evenodd" d="M81.3845 124.681C70.0085 126.261 60.5554 117.248 49.8419 113.13C37.8393 108.517 19.8253 110.992 14.9114 99.1338C9.85966 86.9428 24.4756 75.5583 29.157 63.2124C32.461 54.4991 33.4001 45.4575 38.2774 37.5121C44.3881 27.5575 49.1798 13.4235 60.7547 11.7381C72.3924 10.0435 79.0435 25.4578 89.8825 29.998C101.696 34.9463 117.507 29.8166 126.24 39.1678C135.299 48.8692 137.32 64.3684 133.97 77.2086C130.763 89.5023 118.535 96.3732 109.091 104.899C100.459 112.692 92.9117 123.079 81.3845 124.681Z" fill="#F5F6F8"></path><path fill-rule="evenodd" clip-rule="evenodd" d="M81.3845 124.681C70.0085 126.261 60.5554 117.248 49.8419 113.13C37.8393 108.517 19.8253 110.992 14.9114 99.1338C9.85966 86.9428 24.4756 75.5583 29.157 63.2124C32.461 54.4991 33.4001 45.4575 38.2774 37.5121C44.3881 27.5575 49.1798 13.4235 60.7547 11.7381C72.3924 10.0435 79.0435 25.4578 89.8825 29.998C101.696 34.9463 117.507 29.8166 126.24 39.1678C135.299 48.8692 137.32 64.3684 133.97 77.2086C130.763 89.5023 118.535 96.3732 109.091 104.899C100.459 112.692 92.9117 123.079 81.3845 124.681Z" fill="url(#paint0_linear)"></path><g clip-path="url(#clip0)"><path d="M96.7647 57.2363C92.7827 57.2363 89.5425 60.4292 89.5425 64.3553C89.5425 68.2815 92.7829 71.4743 96.7647 71.4743C100.748 71.4743 103.987 68.2815 103.987 64.3553C103.987 60.4292 100.746 57.2363 96.7647 57.2363ZM96.7647 69.1014C94.1093 69.1014 91.9498 66.9728 91.9498 64.3553C91.9498 61.7379 94.1093 59.6093 96.7647 59.6093C99.4201 59.6093 101.579 61.7379 101.579 64.3553C101.579 66.9728 99.4201 69.1014 96.7647 69.1014Z" fill="#47A348"></path><path d="M48.6162 107.07C44.6343 107.07 41.394 110.263 41.394 114.189C41.394 118.115 44.6344 121.308 48.6162 121.308C52.5993 121.308 55.8384 118.115 55.8384 114.189C55.8384 110.263 52.598 107.07 48.6162 107.07ZM48.6162 118.935C45.9608 118.935 43.8014 116.806 43.8014 114.189C43.8014 111.571 45.9608 109.443 48.6162 109.443C51.2716 109.443 53.4311 111.571 53.4311 114.189C53.4311 116.806 51.2716 118.935 48.6162 118.935Z" fill="#47A348"></path><path d="M85.6281 56.0332C72.6787 51.1638 57.5072 54.219 47.8775 63.6375C47.4057 64.0991 47.4032 64.8514 47.8715 65.3152C48.1075 65.5489 48.4168 65.6664 48.7261 65.6664C49.0318 65.6664 49.3388 65.5514 49.5735 65.3224C58.5436 56.5469 72.6883 53.7077 84.7699 58.2508C85.3921 58.4858 86.0867 58.1772 86.3239 57.5649C86.5611 56.9527 86.2492 56.2669 85.6281 56.0332Z" fill="#47A348"></path><path d="M45.7516 67.756C45.2123 67.3727 44.4599 67.4914 44.0713 68.0242C40.3529 73.1012 37.9841 79.1144 37.2209 85.4137C37.1427 86.0639 37.6132 86.6547 38.2742 86.7319C38.3223 86.7379 38.3705 86.7402 38.4186 86.7402C39.0205 86.7402 39.5392 86.2976 39.6102 85.6949C40.3252 79.7956 42.5425 74.1645 46.0224 69.4125C46.4124 68.8807 46.2907 68.1391 45.7516 67.756Z" fill="#47A348"></path><path d="M43.0542 105.002C41.3462 101.762 40.2158 98.2716 39.6947 94.6302C39.6007 93.9812 38.9917 93.5256 38.3345 93.6206C37.6761 93.7119 37.2176 94.3122 37.3102 94.9612C37.8699 98.8707 39.0832 102.617 40.9178 106.095C41.1321 106.502 41.5522 106.735 41.9867 106.735C42.1744 106.735 42.3634 106.692 42.5416 106.602C43.1312 106.3 43.3612 105.583 43.0542 105.002Z" fill="#47A348"></path><path d="M62.8211 120.984C59.6541 120.062 56.6749 118.687 53.9654 116.895C53.4118 116.529 52.6655 116.673 52.2946 117.219C51.924 117.762 52.0719 118.499 52.6233 118.865C55.5363 120.79 58.7369 122.269 62.1386 123.26C62.2529 123.293 62.3673 123.308 62.4805 123.308C62.9992 123.308 63.4796 122.975 63.6349 122.458C63.8226 121.83 63.4591 121.169 62.8211 120.984Z" fill="#47A348"></path><path d="M86.7707 120.534C86.5215 119.926 85.8198 119.635 85.2034 119.879C80.7822 121.644 75.9169 122.488 71.1332 122.319C70.4724 122.278 69.9115 122.806 69.8874 123.461C69.8645 124.118 70.3834 124.666 71.0479 124.689C71.4752 124.705 71.9037 124.713 72.3322 124.713C77.0338 124.713 81.7692 123.81 86.1062 122.079C86.7226 121.833 87.0198 121.142 86.7707 120.534Z" fill="#47A348"></path><path d="M103.329 105.505C102.756 105.174 102.019 105.359 101.681 105.925C99.2051 110.063 95.7636 113.692 91.7277 116.418C91.18 116.789 91.0403 117.529 91.4159 118.069C91.6495 118.404 92.0263 118.585 92.4102 118.585C92.6449 118.585 92.882 118.517 93.0878 118.376C97.4116 115.454 101.1 111.564 103.754 107.129C104.092 106.566 103.902 105.837 103.329 105.505Z" fill="#47A348"></path><path d="M108.531 84.8773C108.45 84.2271 107.851 83.7501 107.19 83.8438C106.529 83.9221 106.059 84.5141 106.14 85.1644C106.695 89.6529 106.28 94.3195 104.936 98.6573C104.743 99.2839 105.101 99.947 105.737 100.138C105.854 100.174 105.971 100.19 106.088 100.19C106.603 100.19 107.08 99.8605 107.24 99.3504C108.681 94.6968 109.127 89.6921 108.531 84.8773Z" fill="#47A348"></path><path d="M106.689 77.2504C105.494 73.9709 103.816 70.8836 101.701 68.0763C101.305 67.5496 100.552 67.4404 100.017 67.8307C99.4828 68.221 99.3721 68.9639 99.7681 69.4894C101.742 72.1103 103.309 74.9911 104.424 78.0525C104.6 78.5365 105.063 78.838 105.557 78.838C105.692 78.838 105.829 78.8154 105.964 78.768C106.589 78.5472 106.914 77.8674 106.689 77.2504Z" fill="#47A348"></path><path d="M88.8932 69.7077C88.3731 69.2984 87.616 69.3803 87.2008 69.8904C86.7855 70.4017 86.8686 71.1481 87.3874 71.5586C96.3188 78.6172 98.4338 91.8455 92.2009 101.671C91.8483 102.227 92.0191 102.958 92.5837 103.306C92.7823 103.428 93.0026 103.486 93.2205 103.486C93.6212 103.486 94.0137 103.289 94.2424 102.93C101.112 92.1007 98.7623 77.5067 88.8932 69.7077Z" fill="#47A348"></path><path d="M89.0155 107.263C88.6014 106.753 87.8443 106.666 87.3244 107.077C84.7532 109.099 81.6176 110.556 78.2544 111.289C77.6056 111.43 77.1963 112.064 77.3396 112.703C77.4637 113.257 77.9608 113.633 78.5133 113.633C78.5988 113.633 78.6867 113.624 78.7733 113.605C82.4928 112.795 85.969 111.179 88.8254 108.93C89.3454 108.523 89.4297 107.776 89.0155 107.263Z" fill="#47A348"></path><path d="M51.7138 95.9367C50.7592 92.8292 50.4667 89.4891 50.8664 86.2762C50.9471 85.6248 50.4776 85.0327 49.8179 84.9543C49.1547 84.857 48.5564 85.3364 48.4758 85.9866C48.0352 89.526 48.3578 93.2042 49.4087 96.6249C49.5663 97.1375 50.0443 97.4673 50.5607 97.4673C50.6763 97.4673 50.7943 97.4507 50.911 97.4163C51.5465 97.2264 51.9065 96.5643 51.7138 95.9367Z" fill="#47A348"></path><path d="M61.8717 68.3504C61.5262 67.7904 60.7859 67.6135 60.2178 67.953C56.159 70.3865 52.9222 73.8749 50.8579 78.0454C50.5666 78.634 50.8146 79.3446 51.4115 79.6317C51.5812 79.7147 51.7618 79.7527 51.9387 79.7527C52.3841 79.7527 52.8125 79.5083 53.0208 79.0858C54.883 75.3258 57.8043 72.1769 61.4684 69.9806C62.0366 69.6402 62.2172 68.9104 61.8717 68.3504Z" fill="#47A348"></path><path d="M91.372 88.0856H55.2609C54.5964 88.0856 54.0571 88.6159 54.0571 89.2721C54.0571 89.9283 54.5964 90.4587 55.2609 90.4587H91.372C92.0365 90.4587 92.5758 89.9283 92.5758 89.2721C92.5758 88.6159 92.0365 88.0856 91.372 88.0856Z" fill="#47A348"></path><path d="M86.9352 75.8492C83.2977 72.2624 78.4612 70.2881 73.3165 70.2881C68.1717 70.2881 63.3354 72.2636 59.6977 75.8492C56.0602 79.4336 54.0571 84.2021 54.0571 89.2721C54.0571 94.3421 56.06 99.1106 59.6977 102.695C63.3352 106.282 68.1717 108.256 73.3165 108.256C78.461 108.256 83.2975 106.282 86.9352 102.695C90.5727 99.1106 92.5758 94.3421 92.5758 89.2721C92.5758 84.2021 90.5729 79.4336 86.9352 75.8492ZM85.2332 101.017C82.0495 104.156 77.8184 105.883 73.3166 105.883C68.8148 105.883 64.5826 104.156 61.4 101.017C58.2174 97.8803 56.4648 93.7085 56.4648 89.2721C56.4648 84.8358 58.2174 80.6652 61.4 77.5269C64.5837 74.3886 68.8148 72.661 73.3166 72.661C77.8184 72.661 82.0506 74.3897 85.2332 77.5269C88.4158 80.664 90.1684 84.8358 90.1684 89.2721C90.1683 93.7085 88.4158 97.879 85.2332 101.017Z" fill="#47A348"></path><path d="M88.1092 100.627C88.0044 100.245 87.7132 99.9387 87.3328 99.813C84.8255 98.9777 79.6724 97.5764 73.3169 97.5764C66.9614 97.5764 61.8082 98.9777 59.301 99.813C58.9207 99.9399 58.6294 100.246 58.5247 100.627C58.4199 101.009 58.5151 101.418 58.7786 101.716C59.0724 102.05 59.3757 102.377 59.6983 102.695C63.3358 106.282 68.1723 108.256 73.3171 108.256C78.4617 108.256 83.2981 106.282 86.9358 102.695C87.2571 102.378 87.5606 102.05 87.8555 101.716C88.1187 101.418 88.2139 101.009 88.1092 100.627ZM73.318 105.882C69.0533 105.882 65.0318 104.332 61.9141 101.503C64.5659 100.769 68.5887 99.9494 73.318 99.9494C78.0474 99.9494 82.0689 100.769 84.722 101.503C81.6043 104.331 77.5828 105.882 73.318 105.882Z" fill="#47A348"></path><path d="M87.855 76.8269C87.5613 76.4935 87.2579 76.166 86.9353 75.848C83.2978 72.2612 78.4613 70.2869 73.3166 70.2869C68.1719 70.2869 63.3355 72.2624 59.6978 75.848C59.3765 76.1647 59.0731 76.4934 58.7782 76.8269C58.5145 77.1246 58.4194 77.5341 58.5242 77.9161C58.629 78.2981 58.9202 78.6043 59.3006 78.7301C61.8079 79.5654 66.9609 80.9666 73.3165 80.9666C79.672 80.9666 84.8263 79.5654 87.3323 78.7301C87.7127 78.6031 88.0039 78.297 88.1087 77.9161C88.2138 77.534 88.1186 77.1246 87.855 76.8269ZM73.3179 78.5935C68.5885 78.5935 64.567 77.7736 61.9139 77.0403C65.0316 74.2105 69.0532 72.6609 73.3179 72.6609C77.5826 72.6609 81.6041 74.2105 84.7218 77.0403C82.0688 77.7749 78.0472 78.5935 73.3179 78.5935Z" fill="#47A348"></path><path d="M77.766 73.5603C76.4082 72.222 75.2346 71.2704 73.9587 70.4766C73.5867 70.2452 73.1173 70.2309 72.7346 70.4409C72.3505 70.6498 72.1123 71.0485 72.1123 71.4803V107.07C72.1123 107.502 72.3507 107.9 72.7346 108.109C72.9163 108.208 73.1161 108.256 73.3159 108.256C73.5398 108.256 73.7625 108.194 73.9587 108.073C75.2238 107.286 76.3974 106.334 77.766 104.984C82.0969 100.716 84.4815 95.1346 84.4815 89.272C84.4813 83.4095 82.0969 77.8305 77.766 73.5603ZM76.0627 103.306C75.5186 103.842 75.0107 104.307 74.5195 104.719V73.8261C75.013 74.2378 75.521 74.7017 76.0638 75.238C79.9397 79.0598 82.074 84.0431 82.074 89.272C82.074 94.501 79.9386 99.4843 76.0627 103.306Z" fill="#47A348"></path><path d="M73.8983 70.441C73.5142 70.2321 73.0448 70.2464 72.6741 70.4766C71.3983 71.2703 70.2246 72.2219 68.8669 73.5604C64.5359 77.8294 62.1514 83.4095 62.1514 89.2721C62.1514 95.1347 64.5359 100.715 68.8669 104.984C70.2246 106.322 71.3983 107.274 72.6741 108.068C72.8703 108.189 73.0931 108.25 73.3169 108.25C73.5168 108.25 73.7177 108.202 73.8983 108.103C74.2823 107.894 74.5205 107.496 74.5205 107.064V71.4804C74.5205 71.0485 74.2822 70.6499 73.8983 70.441ZM72.1132 104.716C71.6197 104.305 71.1129 103.84 70.57 103.305C66.6941 99.4832 64.5598 94.4999 64.5598 89.271C64.5598 84.0422 66.694 79.0587 70.57 75.2371C71.1117 74.702 71.6196 74.2381 72.1132 73.8264V104.716Z" fill="#47A348"></path></g><defs><linearGradient id="paint0_linear" x1="72.9209" y1="128.242" x2="114.421" y2="35.2417" gradientUnits="userSpaceOnUse"><stop stop-color="white"></stop><stop offset="1" stop-color="white" stop-opacity="0"></stop></linearGradient><clipPath id="clip0"><rect x="37" y="53.7417" width="72" height="70.9714" fill="white"></rect></clipPath></defs></svg> 