<?xml version="1.0" encoding="UTF-8"?> <svg xmlns="http://www.w3.org/2000/svg" width="72" height="72" viewBox="0 0 72 72" fill="none"><g clip-path="url(#clip0)"><path d="M67.1998 14.4C64.5526 14.4 62.3999 16.5528 62.3999 19.1999C62.3999 21.847 64.5527 23.9999 67.1998 23.9999C69.847 23.9999 71.9998 21.8472 71.9998 19.1999C71.9998 16.5528 69.847 14.4 67.1998 14.4ZM67.1998 21.6C65.8763 21.6 64.7998 20.5236 64.7998 19.1999C64.7998 17.8764 65.8761 16.7999 67.1998 16.7999C68.5235 16.7999 69.5999 17.8762 69.5999 19.1999C69.5997 20.5236 68.5234 21.6 67.1998 21.6Z" fill="white"></path><path d="M4.79995 54C2.15283 54 0 56.1528 0 58.7999C0 61.4471 2.15283 63.5999 4.79995 63.5999C7.44722 63.5999 9.59991 61.4471 9.59991 58.7999C9.59991 56.1528 7.44722 54 4.79995 54ZM4.79995 61.2C3.47639 61.2 2.39991 60.1237 2.39991 58.7999C2.39991 57.4762 3.47625 56.3999 4.79995 56.3999C6.12352 56.3999 7.2 57.4762 7.2 58.7999C7.2 60.1237 6.12366 61.2 4.79995 61.2Z" fill="white"></path><path d="M64.873 15.9168L54.5206 10.9189C53.923 10.6296 53.2066 10.8816 52.9186 11.4782C52.6306 12.0745 52.8814 12.7922 53.4779 13.0802L63.8303 18.0781C63.9983 18.1597 64.176 18.1981 64.351 18.1981C64.7974 18.1981 65.2259 17.9485 65.4322 17.5188C65.7202 16.9225 65.4694 16.2048 64.873 15.9168Z" fill="white"></path><path d="M53.9999 62.4C51.3526 62.4 49.2 64.5528 49.2 67.1999C49.2 69.8471 51.3526 72 53.9999 72C56.6472 72 58.7999 69.8472 58.7999 67.2001C58.7999 64.5529 56.6472 62.4 53.9999 62.4ZM53.9999 69.6C52.6763 69.6 51.5999 68.5236 51.5999 67.1999C51.5999 65.8762 52.6763 64.8 53.9999 64.8C55.3235 64.8 56.3999 65.8764 56.3999 67.2001C56.3999 68.5238 55.3235 69.6 53.9999 69.6Z" fill="white"></path><path d="M51.6732 63.9169L41.3208 58.919C40.7232 58.6297 40.0068 58.8806 39.7188 59.4782C39.4308 60.0746 39.6815 60.7922 40.2781 61.0802L50.6305 66.0782C50.7985 66.1597 50.9761 66.1981 51.1512 66.1981C51.5975 66.1981 52.026 65.9485 52.2325 65.5189C52.5203 64.9224 52.2696 64.2049 51.6732 63.9169Z" fill="white"></path><path d="M35.9999 32.4C33.3526 32.4 31.2 34.5528 31.2 37.1999C31.2 39.8472 33.3528 41.9999 35.9999 41.9999C38.6472 41.9999 40.7999 39.847 40.7999 37.1999C40.7999 34.5528 38.6472 32.4 35.9999 32.4ZM35.9999 39.6C34.6763 39.6 33.5999 38.5236 33.5999 37.1999C33.5999 35.8764 34.6762 34.7999 35.9999 34.7999C37.3235 34.7999 38.3999 35.8762 38.3999 37.1999C38.3999 38.5236 37.3235 39.6 35.9999 39.6Z" fill="white"></path><path d="M33.8905 34.0512L25.9382 27.8531C25.4149 27.4487 24.6615 27.5387 24.2534 28.0619C23.8465 28.5852 23.9389 29.3387 24.4622 29.7468L32.4145 35.9448C32.6342 36.1152 32.8934 36.1981 33.1514 36.1981C33.509 36.1981 33.8618 36.0397 34.0994 35.7361C34.5062 35.2127 34.4138 34.4591 33.8905 34.0512Z" fill="white"></path><path d="M57.5996 31.2001C50.3215 31.2001 44.3995 37.1221 44.3995 44.4001C44.3995 51.6782 50.3215 57.6002 57.5996 57.6002C64.8776 57.6002 70.7996 51.6782 70.7996 44.4001C70.7996 37.1221 64.8776 31.2001 57.5996 31.2001ZM57.5996 55.2C51.644 55.2 46.7996 50.3556 46.7996 44.4C46.7996 38.4444 51.644 33.6 57.5996 33.6C63.5552 33.6 68.3996 38.4444 68.3996 44.4C68.3996 50.3556 63.5552 55.2 57.5996 55.2Z" fill="white"></path><path d="M57.6002 36C54.953 36 52.8003 38.1528 52.8003 40.8C52.8003 43.4472 54.9531 45.5999 57.6002 45.5999C60.2475 45.5999 62.4002 43.4471 62.4002 40.8C62.4002 38.1528 60.2475 36 57.6002 36ZM57.6002 43.2C56.2767 43.2 55.2002 42.1237 55.2002 40.8C55.2002 39.4764 56.2765 38.3999 57.6002 38.3999C58.9238 38.3999 60.0003 39.4763 60.0003 40.8C60.0003 42.1237 58.9238 43.2 57.6002 43.2Z" fill="white"></path><path d="M61.0808 47.9999H54.1185C52.0678 47.9999 50.3997 49.6236 50.3997 51.6179V54.7812C50.3997 55.2095 50.6276 55.6055 50.9984 55.8204C53.0097 56.9843 55.292 57.6 57.5997 57.6C59.9073 57.6 62.1897 56.9843 64.2009 55.8204C64.5717 55.6068 64.7997 55.2095 64.7997 54.7824V51.6192C64.7997 49.6236 63.1317 47.9999 61.0808 47.9999ZM62.3996 54.0659C59.4129 55.5539 55.7864 55.5539 52.7996 54.0659V51.6192C52.7996 50.9472 53.3912 50.4 54.1183 50.4H61.0807C61.8079 50.4 62.3995 50.9472 62.3995 51.6192V54.0659H62.3996Z" fill="white"></path><path d="M28.8004 45.6C21.5223 45.6 15.6003 51.522 15.6003 58.8001C15.6003 66.0781 21.5223 72 28.8004 72C36.0784 72 42.0004 66.078 42.0004 58.7999C42.0004 51.5219 36.0784 45.6 28.8004 45.6ZM28.8004 69.5999C22.8448 69.5999 18.0004 64.7556 18.0004 58.7999C18.0004 52.8443 22.8448 47.9999 28.8004 47.9999C34.756 47.9999 39.6004 52.8443 39.6004 58.7999C39.6004 64.7556 34.756 69.5999 28.8004 69.5999Z" fill="white"></path><path d="M28.8001 50.4C26.1528 50.4 24.0001 52.5528 24.0001 55.1999C24.0001 57.8472 26.1529 59.9999 28.8001 59.9999C31.4472 59.9999 33.6 57.847 33.6 55.1999C33.6 52.5528 31.4473 50.4 28.8001 50.4ZM28.8001 57.6C27.4765 57.6 26.4 56.5236 26.4 55.1999C26.4 53.8764 27.4764 52.7999 28.8001 52.7999C30.1236 52.7999 31.2001 53.8762 31.2001 55.1999C31.2001 56.5236 30.1236 57.6 28.8001 57.6Z" fill="white"></path><path d="M32.2815 62.4H25.3192C23.2684 62.4 21.6003 64.0236 21.6003 66.018V69.1812C21.6003 69.6095 21.8283 70.0056 22.1991 70.2204C24.2103 71.3844 26.4927 72 28.8003 72C31.108 72 33.3903 71.3844 35.4016 70.2204C35.7724 70.0068 36.0003 69.6097 36.0003 69.1825V66.0192C36.0003 64.0236 34.3324 62.4 32.2815 62.4ZM33.6003 68.466C30.6134 69.9539 26.9871 69.9539 24.0002 68.466V66.0192C24.0002 65.3472 24.5919 64.8 25.319 64.8H32.2814C33.0085 64.8 33.6002 65.3472 33.6002 66.0192V68.466H33.6003Z" fill="white"></path><path d="M13.2 15.6C5.922 15.6 0 21.522 0 28.8C0 36.0781 5.922 42.0001 13.2 42.0001C20.4781 42.0001 26.4001 36.0781 26.4001 28.8C26.4 21.522 20.478 15.6 13.2 15.6ZM13.2 39.6C7.24444 39.6 2.40005 34.7556 2.40005 28.8C2.40005 22.8444 7.24444 18 13.2 18C19.1557 18 24 22.8444 24 28.8C24 34.7556 19.1557 39.6 13.2 39.6Z" fill="white"></path><path d="M13.1997 20.4C10.5525 20.4 8.39978 22.5529 8.39978 25.2C8.39978 27.8471 10.5526 29.9999 13.1997 29.9999C15.847 29.9999 17.9997 27.8471 17.9997 25.2C17.9997 22.5529 15.8469 20.4 13.1997 20.4ZM13.1997 27.6C11.8762 27.6 10.7997 26.5237 10.7997 25.2C10.7997 23.8763 11.876 22.7999 13.1997 22.7999C14.5233 22.7999 15.5998 23.8763 15.5998 25.2C15.5998 26.5237 14.5233 27.6 13.1997 27.6Z" fill="white"></path><path d="M16.6813 32.4H9.71895C7.66822 32.4 6.00012 34.0236 6.00012 36.018V39.1812C6.00012 39.6095 6.22808 40.0055 6.5989 40.2204C8.61012 41.3844 10.8925 42 13.2001 42C15.5078 42 17.7901 41.3844 19.8013 40.2204C20.1722 40.0068 20.4001 39.6095 20.4001 39.1824V36.0192C20.4001 34.0236 18.732 32.4 16.6813 32.4ZM18.0001 38.466C15.0133 39.9539 11.3869 39.9539 8.40003 38.466V36.0192C8.40003 35.3472 8.99164 34.8 9.71881 34.8H16.6812C17.4083 34.8 17.9999 35.3472 17.9999 36.0192V38.466H18.0001Z" fill="white"></path><path d="M42.0002 0C34.7222 0 28.8002 5.922 28.8002 13.2C28.8002 20.4781 34.7222 26.4001 42.0002 26.4001C49.2783 26.4001 55.2003 20.4781 55.2003 13.2C55.2001 5.922 49.2781 0 42.0002 0ZM42.0002 24C36.0446 24 31.2002 19.1557 31.2002 13.2C31.2002 7.24444 36.0446 2.40005 42.0002 2.40005C47.9558 2.40005 52.8002 7.24444 52.8002 13.2C52.8002 19.1557 47.9558 24 42.0002 24Z" fill="white"></path><path d="M41.9999 4.79993C39.3526 4.79993 37.2 6.95276 37.2 9.59988C37.2 12.247 39.3528 14.3998 41.9999 14.3998C44.647 14.3998 46.7999 12.2471 46.7999 9.60002C46.7999 6.9529 44.647 4.79993 41.9999 4.79993ZM41.9999 11.9999C40.6763 11.9999 39.5999 10.9236 39.5999 9.59988C39.5999 8.27632 40.6762 7.19983 41.9999 7.19983C43.3236 7.19983 44.4 8.27618 44.4 9.59988C44.3998 10.9236 43.3235 11.9999 41.9999 11.9999Z" fill="white"></path><path d="M45.4815 16.8H38.5191C36.4684 16.8 34.8003 18.4237 34.8003 20.418V23.5813C34.8003 24.0096 35.0282 24.4056 35.3991 24.6205C37.4103 25.7844 39.6926 26.4001 42.0003 26.4001C44.3079 26.4001 46.5903 25.7844 48.6015 24.6205C48.9723 24.4069 49.2003 24.0096 49.2003 23.5825V20.4193C49.2003 18.4236 47.5322 16.8 45.4815 16.8ZM46.8002 22.866C43.8135 24.354 40.1871 24.354 37.2002 22.866V20.4193C37.2002 19.7473 37.7918 19.2001 38.519 19.2001H45.4813C46.2085 19.2001 46.8001 19.7473 46.8001 20.4193V22.866H46.8002Z" fill="white"></path><path d="M30.9132 12.4187C30.4824 11.9171 29.7252 11.8571 29.2212 12.2879L20.9052 19.404C20.4012 19.8347 20.3424 20.592 20.7731 21.096C21.0108 21.3732 21.3467 21.516 21.6851 21.516C21.9611 21.516 22.2383 21.4213 22.4651 21.2268L30.7811 14.1107C31.2853 13.68 31.3441 12.9227 30.9132 12.4187Z" fill="white"></path><path d="M57.36 31.6813L50.16 22.0812C49.7627 21.5497 49.0104 21.4452 48.4799 21.8412C47.9495 22.2385 47.8428 22.9908 48.2399 23.52L55.4399 33.12C55.6763 33.4345 56.0363 33.6 56.4011 33.6C56.6507 33.6 56.904 33.5219 57.12 33.3599C57.6504 32.9628 57.7573 32.2105 57.36 31.6813Z" fill="white"></path><path d="M47.5116 48.3684C47.1143 47.8379 46.362 47.7312 45.8316 48.1283L39.1284 53.1551C38.5979 53.5524 38.4912 54.3047 38.8883 54.8339C39.1247 55.1483 39.4847 55.3138 39.8495 55.3138C40.1002 55.3138 40.3522 55.2347 40.5684 55.0738L47.2716 50.047C47.802 49.65 47.9089 48.8975 47.5116 48.3684Z" fill="white"></path><path d="M16.7999 57.6H8.39978C7.73744 57.6 7.19983 58.1364 7.19983 58.8C7.19983 59.4636 7.73744 59.9999 8.39978 59.9999H16.7997C17.4621 59.9999 17.9997 59.4636 17.9997 58.8C17.9997 58.1364 17.4622 57.6 16.7999 57.6Z" fill="white"></path><path d="M13.1996 0C10.5524 0 8.39954 2.15283 8.39954 4.79995C8.39954 7.44722 10.5524 9.59991 13.1995 9.59991C15.8468 9.59991 17.9994 7.44708 17.9994 4.79995C17.9996 2.15283 15.8468 0 13.1996 0ZM13.1996 7.2C11.8761 7.2 10.7996 6.12366 10.7996 4.79995C10.7996 3.47639 11.8759 2.39991 13.1996 2.39991C14.5232 2.39991 15.5997 3.47625 15.5997 4.79995C15.5995 6.12366 14.5232 7.2 13.1996 7.2Z" fill="white"></path><path d="M13.2001 7.20007C12.5377 7.20007 12.0001 7.73642 12.0001 8.40003V16.8C12.0001 17.4636 12.5377 17.9999 13.2001 17.9999C13.8624 17.9999 14.4 17.4636 14.4 16.8V8.40003C14.4 7.73642 13.8624 7.20007 13.2001 7.20007Z" fill="white"></path></g><defs><clipPath id="clip0"><rect width="72" height="72" fill="white"></rect></clipPath></defs></svg> 