<?xml version="1.0" encoding="UTF-8"?> <svg xmlns="http://www.w3.org/2000/svg" width="145" height="136" viewBox="0 0 145 136" fill="none"><path fill-rule="evenodd" clip-rule="evenodd" d="M81.3845 124.681C70.0085 126.261 60.5554 117.248 49.8419 113.13C37.8393 108.517 19.8253 110.992 14.9114 99.1338C9.85966 86.9428 24.4756 75.5583 29.157 63.2124C32.461 54.4991 33.4001 45.4575 38.2774 37.5121C44.3881 27.5575 49.1798 13.4235 60.7547 11.7381C72.3924 10.0435 79.0435 25.4578 89.8825 29.998C101.696 34.9463 117.507 29.8166 126.24 39.1678C135.299 48.8692 137.32 64.3684 133.97 77.2086C130.763 89.5023 118.535 96.3732 109.091 104.899C100.459 112.692 92.9117 123.079 81.3845 124.681Z" fill="#F5F6F8"></path><path fill-rule="evenodd" clip-rule="evenodd" d="M81.3845 124.681C70.0085 126.261 60.5554 117.248 49.8419 113.13C37.8393 108.517 19.8253 110.992 14.9114 99.1338C9.85966 86.9428 24.4756 75.5583 29.157 63.2124C32.461 54.4991 33.4001 45.4575 38.2774 37.5121C44.3881 27.5575 49.1798 13.4235 60.7547 11.7381C72.3924 10.0435 79.0435 25.4578 89.8825 29.998C101.696 34.9463 117.507 29.8166 126.24 39.1678C135.299 48.8692 137.32 64.3684 133.97 77.2086C130.763 89.5023 118.535 96.3732 109.091 104.899C100.459 112.692 92.9117 123.079 81.3845 124.681Z" fill="url(#paint0_linear)"></path><g clip-path="url(#clip0)"><path d="M91.1806 94.014H72.6338V91.3683H91.1806C97.6291 91.3683 102.875 86.122 102.875 79.6736C102.875 76.5467 101.659 73.6089 99.4524 71.4018C97.2453 69.1952 94.3075 67.9796 91.1806 67.9796H82.2247V65.3336H91.1806C95.0144 65.3336 98.6167 66.8245 101.323 69.5309C104.029 72.2373 105.52 75.8398 105.52 79.6733C105.52 87.5811 99.0874 94.014 91.1806 94.014Z" fill="#47A348"></path><path d="M63.3735 117.389H96.4985V120.035H63.3735V117.389Z" fill="#47A348"></path><path d="M53.8883 120.035H50.0787C42.1712 120.035 35.7383 113.602 35.7383 105.695C35.7383 101.876 37.2284 98.2748 39.9336 95.5546C42.6336 92.8538 46.2359 91.3682 50.0787 91.3682H63.1487V94.0139H50.0787C46.9427 94.0139 44.0049 95.2243 41.8069 97.4225C39.6004 99.6414 38.3841 102.58 38.3841 105.694C38.3841 112.143 43.6303 117.389 50.0787 117.389H53.8886V120.035H53.8883Z" fill="#47A348"></path><path d="M43.8608 65.3336H72.7394V67.9794H43.8608V65.3336Z" fill="#47A348"></path><path d="M39.1182 72.087C35.7446 72.087 33 69.3424 33 65.9688C33 62.5952 35.7446 59.8506 39.1182 59.8506C42.4918 59.8506 45.2364 62.5952 45.2364 65.9688C45.2364 69.3424 42.492 72.087 39.1182 72.087ZM39.1182 62.4961C37.2037 62.4961 35.6455 64.054 35.6455 65.9688C35.6455 67.8836 37.2034 69.4415 39.1182 69.4415C41.033 69.4415 42.5909 67.8836 42.5909 65.9688C42.5909 64.054 41.033 62.4961 39.1182 62.4961Z" fill="#47A348"></path><path d="M77.4756 72.0806C74.4559 72.0806 71.8565 69.8295 71.4303 66.844C71.3837 66.5882 71.3638 66.2878 71.3638 65.9689C71.3638 62.599 74.1057 59.8571 77.4756 59.8571C80.8526 59.8571 83.6004 62.599 83.6004 65.9689C83.6004 66.288 83.5805 66.5882 83.5267 66.8887C83.1075 69.8295 80.5029 72.0806 77.4756 72.0806ZM77.4756 62.5026C75.5642 62.5026 74.0096 64.0573 74.0096 65.9686C74.0096 66.1261 74.0155 66.2755 74.0418 66.4246C74.2905 68.1597 75.7639 69.4346 77.4756 69.4346C79.1951 69.4346 80.6737 68.1594 80.9152 66.4692C80.9487 66.2755 80.9547 66.1261 80.9547 65.9686C80.9544 64.0575 79.3938 62.5026 77.4756 62.5026Z" fill="#47A348"></path><path d="M67.8847 98.1146C64.8643 98.1146 62.2656 95.8634 61.8395 92.8787C61.7929 92.6217 61.7729 92.3212 61.7729 92.0035C61.7729 88.626 64.5149 85.8782 67.8847 85.8782C71.2618 85.8782 74.0096 88.626 74.0096 92.0035C74.0096 92.3212 73.9896 92.6217 73.9359 92.9226C73.5167 95.8634 70.9123 98.1146 67.8847 98.1146ZM67.8847 88.5237C65.9734 88.5237 64.4187 90.0851 64.4187 92.0033C64.4187 92.1608 64.4246 92.3101 64.451 92.46C64.6997 94.1943 66.1731 95.4688 67.8847 95.4688C69.6043 95.4688 71.0828 94.1943 71.3244 92.5039C71.3579 92.3101 71.3638 92.1608 71.3638 92.0033C71.3638 90.0848 69.8032 88.5237 67.8847 88.5237Z" fill="#47A348"></path><path d="M58.6376 124.15C55.5913 124.15 52.9862 121.889 52.578 118.89C52.5322 118.642 52.5127 118.34 52.5127 118.038C52.5127 114.661 55.2605 111.912 58.6376 111.912C62.0074 111.912 64.7493 114.661 64.7493 118.038C64.7493 118.34 64.7299 118.642 64.6757 118.945C64.2759 121.889 61.676 124.15 58.6376 124.15ZM58.6376 114.558C56.7191 114.558 55.1585 116.119 55.1585 118.038C55.1585 118.185 55.1649 118.332 55.1908 118.48C55.4298 120.228 56.9084 121.504 58.6376 121.504C60.3596 121.504 61.8325 120.228 62.0629 118.534C62.0972 118.332 62.1036 118.185 62.1036 118.038C62.1036 116.119 60.5489 114.558 58.6376 114.558Z" fill="#47A348"></path><path d="M99.4044 122.827C97.0726 122.827 95.1753 120.929 95.1753 118.597C95.1753 116.265 97.0723 114.368 99.4044 114.368C101.737 114.368 103.634 116.265 103.634 118.597C103.634 120.929 101.737 122.827 99.4044 122.827ZM99.4044 117.013C98.5316 117.013 97.8211 117.724 97.8211 118.597C97.8211 119.47 98.5316 120.181 99.4044 120.181C100.278 120.181 100.988 119.47 100.988 118.597C100.988 117.724 100.278 117.013 99.4044 117.013Z" fill="#47A348"></path><path d="M99.4043 99.8967C98.6738 99.8967 98.0815 99.3045 98.0815 98.574V96.9584C98.0815 96.2279 98.6738 95.6356 99.4043 95.6356C100.135 95.6356 100.727 96.2279 100.727 96.9584V98.574C100.727 99.3042 100.135 99.8967 99.4043 99.8967Z" fill="#47A348"></path><path d="M99.4043 117.013C98.6738 117.013 98.0815 116.422 98.0815 115.691V106.97C98.0815 106.24 98.6738 105.648 99.4043 105.648C100.135 105.648 100.727 106.24 100.727 106.97V115.691C100.727 116.422 100.135 117.013 99.4043 117.013Z" fill="#47A348"></path><path d="M111.677 108.293H99.4043C98.6738 108.293 98.0815 107.701 98.0815 106.97V98.574C98.0815 97.8435 98.6738 97.2512 99.4043 97.2512H111.677C112.17 97.2512 112.622 97.525 112.85 97.9618C113.078 98.3978 113.045 98.925 112.763 99.3292L110.369 102.771L112.764 106.215C113.045 106.62 113.078 107.147 112.85 107.583C112.621 108.019 112.169 108.293 111.677 108.293ZM100.727 105.647H109.147L107.671 103.526C107.356 103.072 107.356 102.469 107.672 102.016L109.146 99.8965H100.728V105.647H100.727Z" fill="#47A348"></path></g><defs><linearGradient id="paint0_linear" x1="72.9209" y1="128.242" x2="114.421" y2="35.2417" gradientUnits="userSpaceOnUse"><stop stop-color="white"></stop><stop offset="1" stop-color="white" stop-opacity="0"></stop></linearGradient><clipPath id="clip0"><rect x="33" y="52" width="80" height="80" fill="white"></rect></clipPath></defs></svg> 