<?xml version="1.0" encoding="UTF-8"?> <svg xmlns="http://www.w3.org/2000/svg" width="145" height="136" viewBox="0 0 145 136" fill="none"><path fill-rule="evenodd" clip-rule="evenodd" d="M81.3845 124.681C70.0085 126.261 60.5554 117.248 49.8419 113.13C37.8393 108.517 19.8253 110.992 14.9114 99.1338C9.85966 86.9428 24.4756 75.5583 29.157 63.2124C32.461 54.4991 33.4001 45.4575 38.2774 37.5121C44.3881 27.5575 49.1798 13.4235 60.7547 11.7381C72.3924 10.0435 79.0435 25.4578 89.8825 29.998C101.696 34.9463 117.507 29.8166 126.24 39.1678C135.299 48.8692 137.32 64.3684 133.97 77.2086C130.763 89.5023 118.535 96.3732 109.091 104.899C100.459 112.692 92.9117 123.079 81.3845 124.681Z" fill="#F5F6F8"></path><path fill-rule="evenodd" clip-rule="evenodd" d="M81.3845 124.681C70.0085 126.261 60.5554 117.248 49.8419 113.13C37.8393 108.517 19.8253 110.992 14.9114 99.1338C9.85966 86.9428 24.4756 75.5583 29.157 63.2124C32.461 54.4991 33.4001 45.4575 38.2774 37.5121C44.3881 27.5575 49.1798 13.4235 60.7547 11.7381C72.3924 10.0435 79.0435 25.4578 89.8825 29.998C101.696 34.9463 117.507 29.8166 126.24 39.1678C135.299 48.8692 137.32 64.3684 133.97 77.2086C130.763 89.5023 118.535 96.3732 109.091 104.899C100.459 112.692 92.9117 123.079 81.3845 124.681Z" fill="url(#paint0_linear)"></path><g clip-path="url(#clip0)"><path d="M96.7651 57.2363C92.7832 57.2363 89.543 60.4292 89.543 64.3553C89.543 68.2815 92.7834 71.4743 96.7651 71.4743C100.748 71.4743 103.987 68.2815 103.987 64.3553C103.987 60.4292 100.747 57.2363 96.7651 57.2363ZM96.7651 69.1014C94.1097 69.1014 91.9503 66.9728 91.9503 64.3553C91.9503 61.7379 94.1097 59.6093 96.7651 59.6093C99.4206 59.6093 101.58 61.7379 101.58 64.3553C101.58 66.9728 99.4206 69.1014 96.7651 69.1014Z" fill="#47A348"></path><path d="M48.6167 107.07C44.6348 107.07 41.3945 110.263 41.3945 114.189C41.3945 118.115 44.6349 121.308 48.6167 121.308C52.5997 121.308 55.8389 118.115 55.8389 114.189C55.8389 110.263 52.5985 107.07 48.6167 107.07ZM48.6167 118.935C45.9613 118.935 43.8019 116.806 43.8019 114.189C43.8019 111.571 45.9613 109.443 48.6167 109.443C51.2721 109.443 53.4315 111.571 53.4315 114.189C53.4315 116.806 51.2721 118.935 48.6167 118.935Z" fill="#47A348"></path><path d="M85.6276 56.0332C72.6782 51.1638 57.5067 54.219 47.877 63.6375C47.4052 64.0991 47.4027 64.8514 47.871 65.3152C48.107 65.5489 48.4163 65.6664 48.7256 65.6664C49.0313 65.6664 49.3383 65.5514 49.573 65.3224C58.5431 56.5469 72.6878 53.7077 84.7694 58.2508C85.3916 58.4858 86.0862 58.1772 86.3234 57.5649C86.5606 56.9527 86.2487 56.2669 85.6276 56.0332Z" fill="#47A348"></path><path d="M45.7511 67.756C45.2118 67.3727 44.4595 67.4914 44.0708 68.0242C40.3524 73.1012 37.9836 79.1144 37.2204 85.4137C37.1422 86.0639 37.6127 86.6547 38.2737 86.7319C38.3218 86.7379 38.37 86.7402 38.4181 86.7402C39.02 86.7402 39.5387 86.2976 39.6097 85.6949C40.3247 79.7956 42.542 74.1645 46.0219 69.4125C46.4119 68.8807 46.2902 68.1391 45.7511 67.756Z" fill="#47A348"></path><path d="M43.0547 105.002C41.3466 101.762 40.2163 98.2716 39.6952 94.6302C39.6012 93.9812 38.9922 93.5256 38.335 93.6206C37.6766 93.7119 37.2181 94.3122 37.3107 94.9612C37.8704 98.8707 39.0837 102.617 40.9183 106.095C41.1326 106.502 41.5527 106.735 41.9872 106.735C42.1749 106.735 42.3639 106.692 42.5421 106.602C43.1317 106.3 43.3616 105.583 43.0547 105.002Z" fill="#47A348"></path><path d="M62.8206 120.984C59.6536 120.062 56.6745 118.687 53.9649 116.895C53.4113 116.529 52.665 116.673 52.2942 117.219C51.9235 117.762 52.0714 118.499 52.6228 118.865C55.5358 120.79 58.7364 122.269 62.1381 123.26C62.2525 123.293 62.3668 123.308 62.48 123.308C62.9987 123.308 63.4791 122.975 63.6344 122.458C63.8221 121.83 63.4586 121.169 62.8206 120.984Z" fill="#47A348"></path><path d="M86.7707 120.534C86.5215 119.926 85.8198 119.635 85.2034 119.879C80.7822 121.644 75.9169 122.488 71.1332 122.319C70.4724 122.278 69.9115 122.806 69.8874 123.461C69.8645 124.118 70.3834 124.666 71.0479 124.689C71.4752 124.705 71.9037 124.713 72.3322 124.713C77.0338 124.713 81.7692 123.81 86.1062 122.079C86.7226 121.833 87.0198 121.142 86.7707 120.534Z" fill="#47A348"></path><path d="M103.329 105.505C102.756 105.174 102.019 105.359 101.681 105.925C99.2051 110.063 95.7636 113.692 91.7277 116.418C91.18 116.789 91.0403 117.529 91.4159 118.069C91.6495 118.404 92.0263 118.585 92.4102 118.585C92.6449 118.585 92.882 118.517 93.0878 118.376C97.4116 115.454 101.1 111.564 103.754 107.129C104.092 106.566 103.902 105.837 103.329 105.505Z" fill="#47A348"></path><path d="M108.531 84.8773C108.45 84.2271 107.851 83.7501 107.19 83.8438C106.529 83.9221 106.059 84.5141 106.14 85.1644C106.695 89.6529 106.28 94.3195 104.936 98.6573C104.743 99.2839 105.101 99.947 105.737 100.138C105.854 100.174 105.971 100.19 106.088 100.19C106.603 100.19 107.08 99.8605 107.24 99.3504C108.681 94.6968 109.127 89.6921 108.531 84.8773Z" fill="#47A348"></path><path d="M106.69 77.2504C105.495 73.9709 103.817 70.8836 101.702 68.0763C101.306 67.5496 100.552 67.4404 100.018 67.8307C99.4832 68.221 99.3726 68.9639 99.7686 69.4894C101.743 72.1103 103.31 74.9911 104.424 78.0525C104.6 78.5365 105.064 78.838 105.557 78.838C105.692 78.838 105.829 78.8154 105.964 78.768C106.59 78.5472 106.915 77.8674 106.69 77.2504Z" fill="#47A348"></path><path d="M88.8932 69.7077C88.3731 69.2984 87.616 69.3803 87.2008 69.8904C86.7855 70.4017 86.8686 71.1481 87.3874 71.5586C96.3188 78.6172 98.4338 91.8455 92.2009 101.671C91.8483 102.227 92.0191 102.958 92.5837 103.306C92.7823 103.428 93.0026 103.486 93.2205 103.486C93.6212 103.486 94.0137 103.289 94.2424 102.93C101.112 92.1007 98.7623 77.5067 88.8932 69.7077Z" fill="#47A348"></path><path d="M89.015 107.263C88.6009 106.753 87.8438 106.666 87.3239 107.077C84.7527 109.099 81.6171 110.556 78.2539 111.289C77.6051 111.43 77.1958 112.064 77.3391 112.703C77.4632 113.257 77.9603 113.633 78.5128 113.633C78.5983 113.633 78.6862 113.624 78.7728 113.605C82.4923 112.795 85.9685 111.179 88.8249 108.93C89.3449 108.523 89.4292 107.776 89.015 107.263Z" fill="#47A348"></path><path d="M51.7138 95.9367C50.7592 92.8292 50.4667 89.4891 50.8664 86.2762C50.9471 85.6248 50.4776 85.0327 49.8179 84.9543C49.1547 84.857 48.5564 85.3364 48.4758 85.9866C48.0352 89.526 48.3578 93.2042 49.4087 96.6249C49.5663 97.1375 50.0443 97.4673 50.5607 97.4673C50.6763 97.4673 50.7943 97.4507 50.911 97.4163C51.5465 97.2264 51.9065 96.5643 51.7138 95.9367Z" fill="#47A348"></path><path d="M61.8722 68.3504C61.5267 67.7904 60.7864 67.6135 60.2183 67.953C56.1595 70.3865 52.9227 73.8749 50.8584 78.0454C50.5671 78.634 50.815 79.3446 51.412 79.6317C51.5817 79.7147 51.7623 79.7527 51.9392 79.7527C52.3846 79.7527 52.813 79.5083 53.0213 79.0858C54.8834 75.3258 57.8048 72.1769 61.4689 69.9806C62.0371 69.6402 62.2177 68.9104 61.8722 68.3504Z" fill="#47A348"></path><path d="M91.3715 88.0856H55.2604C54.5959 88.0856 54.0566 88.6159 54.0566 89.2721C54.0566 89.9283 54.5959 90.4587 55.2604 90.4587H91.3715C92.036 90.4587 92.5753 89.9283 92.5753 89.2721C92.5753 88.6159 92.036 88.0856 91.3715 88.0856Z" fill="#47A348"></path><path d="M86.9347 75.8492C83.2972 72.2624 78.4607 70.2881 73.316 70.2881C68.1712 70.2881 63.3349 72.2636 59.6972 75.8492C56.0597 79.4336 54.0566 84.2021 54.0566 89.2721C54.0566 94.3421 56.0596 99.1106 59.6972 102.695C63.3347 106.282 68.1712 108.256 73.316 108.256C78.4606 108.256 83.297 106.282 86.9347 102.695C90.5722 99.1106 92.5753 94.3421 92.5753 89.2721C92.5753 84.2021 90.5724 79.4336 86.9347 75.8492ZM85.2327 101.017C82.049 104.156 77.8179 105.883 73.3161 105.883C68.8143 105.883 64.5821 104.156 61.3995 101.017C58.2169 97.8803 56.4643 93.7085 56.4643 89.2721C56.4643 84.8358 58.2169 80.6652 61.3995 77.5269C64.5832 74.3886 68.8143 72.661 73.3161 72.661C77.8179 72.661 82.0501 74.3897 85.2327 77.5269C88.4153 80.664 90.1679 84.8358 90.1679 89.2721C90.1678 93.7085 88.4153 97.879 85.2327 101.017Z" fill="#47A348"></path><path d="M88.1087 100.627C88.0039 100.245 87.7127 99.9387 87.3323 99.813C84.825 98.9777 79.6719 97.5764 73.3164 97.5764C66.9609 97.5764 61.8077 98.9777 59.3006 99.813C58.9202 99.9399 58.6289 100.246 58.5242 100.627C58.4194 101.009 58.5146 101.418 58.7781 101.716C59.0719 102.05 59.3752 102.377 59.6978 102.695C63.3354 106.282 68.1718 108.256 73.3166 108.256C78.4612 108.256 83.2976 106.282 86.9353 102.695C87.2566 102.378 87.5601 102.05 87.855 101.716C88.1182 101.418 88.2134 101.009 88.1087 100.627ZM73.3176 105.882C69.0528 105.882 65.0313 104.332 61.9136 101.503C64.5654 100.769 68.5882 99.9494 73.3176 99.9494C78.0469 99.9494 82.0685 100.769 84.7215 101.503C81.6038 104.331 77.5823 105.882 73.3176 105.882Z" fill="#47A348"></path><path d="M87.855 76.8269C87.5613 76.4935 87.2579 76.166 86.9353 75.848C83.2978 72.2612 78.4613 70.2869 73.3166 70.2869C68.1719 70.2869 63.3355 72.2624 59.6978 75.848C59.3765 76.1647 59.0731 76.4934 58.7782 76.8269C58.5145 77.1246 58.4194 77.5341 58.5242 77.9161C58.629 78.2981 58.9202 78.6043 59.3006 78.7301C61.8079 79.5654 66.9609 80.9666 73.3165 80.9666C79.672 80.9666 84.8263 79.5654 87.3323 78.7301C87.7127 78.6031 88.0039 78.297 88.1087 77.9161C88.2138 77.534 88.1186 77.1246 87.855 76.8269ZM73.3179 78.5935C68.5885 78.5935 64.567 77.7736 61.9139 77.0403C65.0316 74.2105 69.0532 72.6609 73.3179 72.6609C77.5826 72.6609 81.6041 74.2105 84.7218 77.0403C82.0688 77.7749 78.0472 78.5935 73.3179 78.5935Z" fill="#47A348"></path><path d="M77.766 73.5603C76.4082 72.222 75.2346 71.2704 73.9587 70.4766C73.5867 70.2452 73.1173 70.2309 72.7346 70.4409C72.3505 70.6498 72.1123 71.0485 72.1123 71.4803V107.07C72.1123 107.502 72.3507 107.9 72.7346 108.109C72.9163 108.208 73.1161 108.256 73.3159 108.256C73.5398 108.256 73.7625 108.194 73.9587 108.073C75.2238 107.286 76.3974 106.334 77.766 104.984C82.0969 100.716 84.4815 95.1346 84.4815 89.272C84.4813 83.4095 82.0969 77.8305 77.766 73.5603ZM76.0627 103.306C75.5186 103.842 75.0107 104.307 74.5195 104.719V73.8261C75.013 74.2378 75.521 74.7017 76.0638 75.238C79.9397 79.0598 82.074 84.0431 82.074 89.272C82.074 94.501 79.9386 99.4843 76.0627 103.306Z" fill="#47A348"></path><path d="M73.8983 70.441C73.5142 70.2321 73.0448 70.2464 72.6741 70.4766C71.3983 71.2703 70.2246 72.2219 68.8669 73.5604C64.5359 77.8294 62.1514 83.4095 62.1514 89.2721C62.1514 95.1347 64.5359 100.715 68.8669 104.984C70.2246 106.322 71.3983 107.274 72.6741 108.068C72.8703 108.189 73.0931 108.25 73.3169 108.25C73.5168 108.25 73.7177 108.202 73.8983 108.103C74.2823 107.894 74.5205 107.496 74.5205 107.064V71.4804C74.5205 71.0485 74.2822 70.6499 73.8983 70.441ZM72.1132 104.716C71.6197 104.305 71.1129 103.84 70.57 103.305C66.6941 99.4832 64.5598 94.4999 64.5598 89.271C64.5598 84.0422 66.694 79.0587 70.57 75.2371C71.1117 74.702 71.6196 74.2381 72.1132 73.8264V104.716Z" fill="#47A348"></path></g><defs><linearGradient id="paint0_linear" x1="72.9209" y1="128.242" x2="114.421" y2="35.2417" gradientUnits="userSpaceOnUse"><stop stop-color="white"></stop><stop offset="1" stop-color="white" stop-opacity="0"></stop></linearGradient><clipPath id="clip0"><rect x="37" y="53.7417" width="72" height="70.9714" fill="white"></rect></clipPath></defs></svg> 