<?xml version="1.0" encoding="UTF-8"?> <svg xmlns="http://www.w3.org/2000/svg" width="145" height="136" viewBox="0 0 145 136" fill="none"><path fill-rule="evenodd" clip-rule="evenodd" d="M81.3845 124.681C70.0085 126.261 60.5554 117.248 49.8419 113.13C37.8393 108.517 19.8253 110.992 14.9114 99.1338C9.85966 86.9428 24.4756 75.5583 29.157 63.2124C32.461 54.4991 33.4001 45.4575 38.2774 37.5121C44.3881 27.5575 49.1798 13.4235 60.7547 11.7381C72.3924 10.0435 79.0435 25.4578 89.8825 29.998C101.696 34.9463 117.507 29.8166 126.24 39.1678C135.299 48.8692 137.32 64.3684 133.97 77.2086C130.763 89.5023 118.535 96.3732 109.091 104.899C100.459 112.692 92.9117 123.079 81.3845 124.681Z" fill="#F5F6F8"></path><path fill-rule="evenodd" clip-rule="evenodd" d="M81.3845 124.681C70.0085 126.261 60.5554 117.248 49.8419 113.13C37.8393 108.517 19.8253 110.992 14.9114 99.1338C9.85966 86.9428 24.4756 75.5583 29.157 63.2124C32.461 54.4991 33.4001 45.4575 38.2774 37.5121C44.3881 27.5575 49.1798 13.4235 60.7547 11.7381C72.3924 10.0435 79.0435 25.4578 89.8825 29.998C101.696 34.9463 117.507 29.8166 126.24 39.1678C135.299 48.8692 137.32 64.3684 133.97 77.2086C130.763 89.5023 118.535 96.3732 109.091 104.899C100.459 112.692 92.9117 123.079 81.3845 124.681Z" fill="url(#paint0_linear)"></path><g clip-path="url(#clip0)"><path d="M79.2747 61.2227C81.148 59.5147 82.3333 57.0627 82.3333 54.3333C82.3333 49.188 78.1467 45 73 45C67.8533 45 63.6667 49.188 63.6667 54.3333C63.6667 57.0627 64.852 59.5147 66.7253 61.2227C61.1933 62.2893 57 67.1613 57 73V78.3333C57 79.0707 57.5973 79.6667 58.3333 79.6667H87.6667C88.4027 79.6667 89 79.0707 89 78.3333V73C89 67.1613 84.8067 62.2893 79.2747 61.2227ZM66.3333 54.3333C66.3333 50.6573 69.324 47.6667 73 47.6667C76.676 47.6667 79.6667 50.6573 79.6667 54.3333C79.6667 58.0093 76.676 61 73 61C69.324 61 66.3333 58.0093 66.3333 54.3333ZM86.3333 77H59.6667V73C59.6667 67.8547 63.8533 63.6667 69 63.6667H77C82.1467 63.6667 86.3333 67.8547 86.3333 73V77Z" fill="#47A348"></path><path d="M55.2747 106.556C57.148 104.848 58.3333 102.396 58.3333 99.6667C58.3333 94.5214 54.1467 90.3334 49 90.3334C43.8533 90.3334 39.6667 94.5214 39.6667 99.6667C39.6667 102.396 40.852 104.848 42.7253 106.556C37.1933 107.623 33 112.495 33 118.333V123.667C33 124.404 33.5973 125 34.3333 125H63.6667C64.4027 125 65 124.404 65 123.667V118.333C65 112.495 60.8067 107.623 55.2747 106.556ZM42.3333 99.6667C42.3333 95.9907 45.324 93 49 93C52.676 93 55.6667 95.9907 55.6667 99.6667C55.6667 103.343 52.676 106.333 49 106.333C45.324 106.333 42.3333 103.343 42.3333 99.6667ZM62.3333 122.333H35.6667V118.333C35.6667 113.188 39.8533 109 45 109H53C58.1467 109 62.3333 113.188 62.3333 118.333V122.333Z" fill="#47A348"></path><path d="M103.275 106.556C105.148 104.848 106.333 102.396 106.333 99.6667C106.333 94.5214 102.147 90.3334 97 90.3334C91.8533 90.3334 87.6667 94.5214 87.6667 99.6667C87.6667 102.396 88.852 104.848 90.7253 106.556C85.1933 107.623 81 112.495 81 118.333V123.667C81 124.404 81.5973 125 82.3333 125H111.667C112.403 125 113 124.404 113 123.667V118.333C113 112.495 108.807 107.623 103.275 106.556ZM90.3333 99.6667C90.3333 95.9907 93.324 93 97 93C100.676 93 103.667 95.9907 103.667 99.6667C103.667 103.343 100.676 106.333 97 106.333C93.324 106.333 90.3333 103.343 90.3333 99.6667ZM110.333 122.333H83.6667V118.333C83.6667 113.188 87.8533 109 93 109H101C106.147 109 110.333 113.188 110.333 118.333V122.333Z" fill="#47A348"></path><path d="M41.0253 87.624L38.3613 87.728C38.3973 88.6467 38.4707 89.5774 38.58 90.492L41.228 90.1747C41.1267 89.3307 41.0587 88.472 41.0253 87.624Z" fill="#47A348"></path><path d="M38.5787 82.1959C38.4707 83.1053 38.396 84.0346 38.3613 84.9586L41.0253 85.0626C41.0587 84.2093 41.1267 83.3519 41.2267 82.5106L38.5787 82.1959Z" fill="#47A348"></path><path d="M51.9855 58.7574C51.2561 59.3134 50.5375 59.9081 49.8481 60.5268L51.6308 62.5108C52.2655 61.9401 52.9281 61.3908 53.6015 60.8788L51.9855 58.7574Z" fill="#47A348"></path><path d="M41.623 71.5734C41.231 72.4067 40.8683 73.2654 40.543 74.1307L43.039 75.068C43.339 74.2707 43.6736 73.4787 44.035 72.712L41.623 71.5734Z" fill="#47A348"></path><path d="M39.6706 76.764C39.4173 77.6454 39.1973 78.5534 39.0146 79.4574L41.6293 79.984C41.7973 79.1507 42 78.3134 42.2346 77.4987L39.6706 76.764Z" fill="#47A348"></path><path d="M47.8627 62.4626C47.224 63.1346 46.6107 63.8347 46.0347 64.5453L48.108 66.2227C48.6387 65.5667 49.2067 64.9187 49.796 64.2987L47.8627 62.4626Z" fill="#47A348"></path><path d="M56.6439 55.7614C55.8373 56.192 55.0333 56.6654 54.252 57.168L55.6973 59.4107C56.4173 58.9454 57.1586 58.5094 57.8999 58.1134L56.6439 55.7614Z" fill="#47A348"></path><path d="M44.379 66.7667C43.8576 67.5281 43.3616 68.3174 42.9043 69.1161L45.2176 70.4414C45.639 69.7054 46.0976 68.9761 46.579 68.2747L44.379 66.7667Z" fill="#47A348"></path><path d="M66.6824 117.709L66.1558 120.324C67.0531 120.505 67.9758 120.651 68.8971 120.759L69.2064 118.111C68.3598 118.011 67.5091 117.876 66.6824 117.709Z" fill="#47A348"></path><path d="M79.401 117.693C78.573 117.861 77.7237 117.999 76.873 118.103L77.1944 120.751C78.1144 120.639 79.0344 120.489 79.9304 120.308L79.401 117.693Z" fill="#47A348"></path><path d="M74.324 118.307C73.472 118.34 72.6107 118.344 71.764 118.311L71.6587 120.975C72.1027 120.993 72.5507 121.001 73.004 121.001C73.4814 120.999 73.9574 120.989 74.4307 120.971L74.324 118.307Z" fill="#47A348"></path><path d="M96.1573 60.5374L94.376 62.5214C95.0106 63.092 95.6266 63.692 96.2093 64.3054L98.1453 62.472C97.5133 61.8054 96.8453 61.1547 96.1573 60.5374Z" fill="#47A348"></path><path d="M99.9708 64.5533L97.8975 66.2307C98.4295 66.888 98.9441 67.58 99.4268 68.284L101.625 66.776C101.103 66.0147 100.547 65.2667 99.9708 64.5533Z" fill="#47A348"></path><path d="M107.639 84.9626L104.975 85.0666C104.992 85.4866 105 85.9106 105 86.3333C105 86.7666 104.992 87.1973 104.975 87.628L107.639 87.732C107.657 87.268 107.667 86.8013 107.667 86.3306C107.667 85.8733 107.657 85.416 107.639 84.9626Z" fill="#47A348"></path><path d="M103.101 69.1227L100.787 70.4493C101.209 71.1867 101.607 71.9507 101.969 72.7187L104.381 71.58C103.989 70.748 103.559 69.9213 103.101 69.1227Z" fill="#47A348"></path><path d="M105.46 74.136L102.964 75.0747C103.263 75.8693 103.532 76.6867 103.767 77.5027L106.331 76.768C106.077 75.8827 105.784 74.9973 105.46 74.136Z" fill="#47A348"></path><path d="M106.984 79.4626L104.371 79.988C104.539 80.8226 104.675 81.6733 104.773 82.516L107.421 82.2013C107.313 81.2893 107.167 80.368 106.984 79.4626Z" fill="#47A348"></path><path d="M91.756 57.1733L90.312 59.416C91.024 59.8747 91.728 60.3693 92.4067 60.888L94.0253 58.7667C93.2907 58.2053 92.528 57.6707 91.756 57.1733Z" fill="#47A348"></path><path d="M86.8717 54.5547L85.8037 56.9974C86.581 57.3374 87.3544 57.7134 88.105 58.116L89.3664 55.7667C88.5544 55.3294 87.7144 54.9214 86.8717 54.5547Z" fill="#47A348"></path></g><defs><linearGradient id="paint0_linear" x1="72.9209" y1="128.242" x2="114.421" y2="35.2417" gradientUnits="userSpaceOnUse"><stop stop-color="white"></stop><stop offset="1" stop-color="white" stop-opacity="0"></stop></linearGradient><clipPath id="clip0"><rect x="33" y="45" width="80" height="80" fill="white"></rect></clipPath></defs></svg> 