<?xml version="1.0" encoding="UTF-8"?> <svg xmlns="http://www.w3.org/2000/svg" width="145" height="136" viewBox="0 0 145 136" fill="none"><path fill-rule="evenodd" clip-rule="evenodd" d="M80.7513 124.572C69.3752 126.152 59.9222 117.138 49.2087 113.021C37.2061 108.408 19.192 110.883 14.2781 99.0246C9.22642 86.8336 23.8424 75.4491 28.5238 63.1032C31.8277 54.3899 32.7669 45.3483 37.6442 37.4029C43.7549 27.4483 48.5466 13.3143 60.1215 11.6289C71.7591 9.93433 78.4102 25.3486 89.2493 29.8888C101.063 34.8372 116.874 29.7074 125.607 39.0586C134.666 48.76 136.687 64.2592 133.337 77.0994C130.129 89.3931 117.902 96.264 108.458 104.79C99.8253 112.583 92.2785 122.97 80.7513 124.572Z" fill="url(#paint0_linear)"></path><g clip-path="url(#clip0)"><path d="M103.567 67.0325C100.919 67.0325 98.7666 69.1853 98.7666 71.8324C98.7666 74.4796 100.919 76.6324 103.567 76.6324C106.214 76.6324 108.366 74.4797 108.366 71.8324C108.366 69.1853 106.214 67.0325 103.567 67.0325ZM103.567 74.2325C102.243 74.2325 101.167 73.1561 101.167 71.8324C101.167 70.5089 102.243 69.4324 103.567 69.4324C104.89 69.4324 105.967 70.5087 105.967 71.8324C105.966 73.1561 104.89 74.2325 103.567 74.2325Z" fill="#47A348"></path><path d="M41.1667 106.633C38.5196 106.633 36.3668 108.785 36.3668 111.432C36.3668 114.08 38.5196 116.232 41.1667 116.232C43.814 116.232 45.9667 114.08 45.9667 111.432C45.9667 108.785 43.814 106.633 41.1667 106.633ZM41.1667 113.833C39.8432 113.833 38.7667 112.756 38.7667 111.432C38.7667 110.109 39.843 109.032 41.1667 109.032C42.4903 109.032 43.5668 110.109 43.5668 111.432C43.5668 112.756 42.4904 113.833 41.1667 113.833Z" fill="#47A348"></path><path d="M101.24 68.5493L90.8875 63.5514C90.2898 63.2621 89.5735 63.5141 89.2855 64.1106C88.9975 64.707 89.2482 65.4246 89.8447 65.7126L100.197 70.7106C100.365 70.7922 100.543 70.8305 100.718 70.8305C101.164 70.8305 101.593 70.5809 101.799 70.1513C102.087 69.5549 101.836 68.8373 101.24 68.5493Z" fill="#47A348"></path><path d="M90.3667 115.032C87.7194 115.032 85.5667 117.185 85.5667 119.832C85.5667 122.48 87.7194 124.633 90.3667 124.633C93.0139 124.633 95.1666 122.48 95.1666 119.833C95.1666 117.185 93.0139 115.032 90.3667 115.032ZM90.3667 122.232C89.0431 122.232 87.9666 121.156 87.9666 119.832C87.9666 118.509 89.0431 117.432 90.3667 117.432C91.6902 117.432 92.7667 118.509 92.7667 119.833C92.7667 121.156 91.6902 122.232 90.3667 122.232Z" fill="#47A348"></path><path d="M88.0399 116.549L77.6875 111.551C77.0899 111.262 76.3735 111.513 76.0855 112.111C75.7975 112.707 76.0483 113.425 76.6448 113.713L86.9972 118.711C87.1652 118.792 87.3429 118.831 87.5179 118.831C87.9643 118.831 88.3928 118.581 88.5992 118.151C88.8871 117.555 88.6363 116.837 88.0399 116.549Z" fill="#47A348"></path><path d="M72.3667 85.0325C69.7194 85.0325 67.5667 87.1853 67.5667 89.8324C67.5667 92.4797 69.7195 94.6324 72.3667 94.6324C75.0139 94.6324 77.1666 92.4795 77.1666 89.8324C77.1666 87.1853 75.0139 85.0325 72.3667 85.0325ZM72.3667 92.2325C71.0431 92.2325 69.9666 91.1561 69.9666 89.8324C69.9666 88.5089 71.043 87.4324 72.3667 87.4324C73.6902 87.4324 74.7667 88.5087 74.7667 89.8324C74.7667 91.1561 73.6902 92.2325 72.3667 92.2325Z" fill="#47A348"></path><path d="M70.2574 86.6837L62.305 80.4857C61.7817 80.0812 61.0283 80.1712 60.6202 80.6945C60.2134 81.2177 60.3057 81.9712 60.829 82.3793L68.7814 88.5773C69.001 88.7478 69.2602 88.8306 69.5182 88.8306C69.8758 88.8306 70.2287 88.6723 70.4662 88.3687C70.873 87.8453 70.7806 87.0916 70.2574 86.6837Z" fill="#47A348"></path><path d="M93.9663 83.8326C86.6883 83.8326 80.7663 89.7546 80.7663 97.0326C80.7663 104.311 86.6883 110.233 93.9663 110.233C101.244 110.233 107.166 104.311 107.166 97.0326C107.166 89.7546 101.244 83.8326 93.9663 83.8326ZM93.9663 107.832C88.0107 107.832 83.1663 102.988 83.1663 97.0325C83.1663 91.0769 88.0107 86.2325 93.9663 86.2325C99.922 86.2325 104.766 91.0769 104.766 97.0325C104.766 102.988 99.922 107.832 93.9663 107.832Z" fill="#47A348"></path><path d="M93.967 88.6325C91.3197 88.6325 89.1671 90.7853 89.1671 93.4325C89.1671 96.0797 91.3199 98.2324 93.967 98.2324C96.6143 98.2324 98.767 96.0796 98.767 93.4325C98.767 90.7853 96.6143 88.6325 93.967 88.6325ZM93.967 95.8325C92.6434 95.8325 91.567 94.7562 91.567 93.4325C91.567 92.1089 92.6433 91.0324 93.967 91.0324C95.2906 91.0324 96.367 92.1088 96.367 93.4325C96.367 94.7562 95.2906 95.8325 93.967 95.8325Z" fill="#47A348"></path><path d="M97.4476 100.632H90.4852C88.4345 100.632 86.7664 102.256 86.7664 104.25V107.414C86.7664 107.842 86.9944 108.238 87.3652 108.453C89.3764 109.617 91.6588 110.232 93.9664 110.232C96.2741 110.232 98.5564 109.617 100.568 108.453C100.938 108.239 101.166 107.842 101.166 107.415V104.252C101.166 102.256 99.4985 100.632 97.4476 100.632ZM98.7664 106.698C95.7796 108.186 92.1532 108.186 89.1663 106.698V104.252C89.1663 103.58 89.7579 103.032 90.4851 103.032H97.4475C98.1746 103.032 98.7662 103.58 98.7662 104.252V106.698H98.7664Z" fill="#47A348"></path><path d="M65.1671 98.2326C57.8891 98.2326 51.9671 104.155 51.9671 111.433C51.9671 118.711 57.8891 124.633 65.1671 124.633C72.4452 124.633 78.3672 118.711 78.3672 111.432C78.3672 104.154 72.4452 98.2326 65.1671 98.2326ZM65.1671 122.232C59.2115 122.232 54.3671 117.388 54.3671 111.432C54.3671 105.477 59.2115 100.632 65.1671 100.632C71.1227 100.632 75.9671 105.477 75.9671 111.432C75.9671 117.388 71.1227 122.232 65.1671 122.232Z" fill="#47A348"></path><path d="M65.1668 103.032C62.5195 103.032 60.3669 105.185 60.3669 107.832C60.3669 110.48 62.5197 112.632 65.1668 112.632C67.8139 112.632 69.9668 110.48 69.9668 107.832C69.9668 105.185 67.8141 103.032 65.1668 103.032ZM65.1668 110.232C63.8432 110.232 62.7668 109.156 62.7668 107.832C62.7668 106.509 63.8431 105.432 65.1668 105.432C66.4904 105.432 67.5669 106.509 67.5669 107.832C67.5669 109.156 66.4904 110.232 65.1668 110.232Z" fill="#47A348"></path><path d="M68.6483 115.032H61.686C59.6352 115.032 57.9671 116.656 57.9671 118.65V121.814C57.9671 122.242 58.1951 122.638 58.5659 122.853C60.5771 124.017 62.8595 124.633 65.1671 124.633C67.4748 124.633 69.7571 124.017 71.7684 122.853C72.1392 122.639 72.3671 122.242 72.3671 121.815V118.652C72.3671 116.656 70.6992 115.032 68.6483 115.032ZM69.9671 121.098C66.9802 122.586 63.3539 122.586 60.367 121.098V118.652C60.367 117.98 60.9586 117.432 61.6858 117.432H68.6482C69.3753 117.432 69.9669 117.98 69.9669 118.652V121.098H69.9671Z" fill="#47A348"></path><path d="M49.5668 68.2325C42.2888 68.2325 36.3668 74.1544 36.3668 81.4325C36.3668 88.7105 42.2888 94.6325 49.5668 94.6325C56.8449 94.6325 62.7669 88.7105 62.7669 81.4325C62.7667 74.1544 56.8447 68.2325 49.5668 68.2325ZM49.5668 92.2325C43.6112 92.2325 38.7668 87.3881 38.7668 81.4325C38.7668 75.4769 43.6112 70.6325 49.5668 70.6325C55.5224 70.6325 60.3668 75.4769 60.3668 81.4325C60.3668 87.3881 55.5224 92.2325 49.5668 92.2325Z" fill="#47A348"></path><path d="M49.5666 73.0326C46.9193 73.0326 44.7666 75.1854 44.7666 77.8325C44.7666 80.4796 46.9194 82.6325 49.5666 82.6325C52.2138 82.6325 54.3665 80.4796 54.3665 77.8325C54.3665 75.1854 52.2137 73.0326 49.5666 73.0326ZM49.5666 80.2326C48.243 80.2326 47.1665 79.1562 47.1665 77.8325C47.1665 76.5088 48.2429 75.4325 49.5666 75.4325C50.8901 75.4325 51.9666 76.5088 51.9666 77.8325C51.9666 79.1562 50.8901 80.2326 49.5666 80.2326Z" fill="#47A348"></path><path d="M53.048 85.0325H46.0857C44.0349 85.0325 42.3668 86.6561 42.3668 88.6505V91.8137C42.3668 92.242 42.5948 92.638 42.9656 92.8529C44.9768 94.0169 47.2592 94.6325 49.5668 94.6325C51.8745 94.6325 54.1568 94.0169 56.1681 92.8529C56.5389 92.6393 56.7668 92.242 56.7668 91.815V88.6517C56.7668 86.6561 55.0987 85.0325 53.048 85.0325ZM54.3668 91.0985C51.3801 92.5864 47.7536 92.5864 44.7667 91.0985V88.6517C44.7667 87.9797 45.3584 87.4325 46.0855 87.4325H53.0479C53.775 87.4325 54.3667 87.9797 54.3667 88.6517V91.0985H54.3668Z" fill="#47A348"></path><path d="M78.367 52.6325C71.089 52.6325 65.167 58.5545 65.167 65.8326C65.167 73.1106 71.089 79.0326 78.367 79.0326C85.6451 79.0326 91.5671 73.1106 91.5671 65.8326C91.5669 58.5545 85.6449 52.6325 78.367 52.6325ZM78.367 76.6326C72.4114 76.6326 67.567 71.7882 67.567 65.8326C67.567 59.8769 72.4114 55.0326 78.367 55.0326C84.3226 55.0326 89.167 59.8769 89.167 65.8326C89.167 71.7882 84.3226 76.6326 78.367 76.6326Z" fill="#47A348"></path><path d="M78.3666 57.4324C75.7194 57.4324 73.5667 59.5853 73.5667 62.2324C73.5667 64.8795 75.7195 67.0323 78.3666 67.0323C81.0138 67.0323 83.1666 64.8797 83.1666 62.2325C83.1666 59.5854 81.0138 57.4324 78.3666 57.4324ZM78.3666 64.6324C77.0431 64.6324 75.9666 63.5561 75.9666 62.2324C75.9666 60.9088 77.0429 59.8323 78.3666 59.8323C79.6903 59.8323 80.7667 60.9087 80.7667 62.2324C80.7665 63.5561 79.6902 64.6324 78.3666 64.6324Z" fill="#47A348"></path><path d="M81.8482 69.4325H74.8859C72.8351 69.4325 71.1671 71.0562 71.1671 73.0505V76.2137C71.1671 76.6421 71.395 77.0381 71.7658 77.253C73.7771 78.4169 76.0594 79.0326 78.367 79.0326C80.6747 79.0326 82.957 78.4169 84.9683 77.253C85.3391 77.0394 85.567 76.6421 85.567 76.215V73.0518C85.567 71.056 83.899 69.4325 81.8482 69.4325ZM83.167 75.4985C80.1803 76.9865 76.5538 76.9865 73.567 75.4985V73.0518C73.567 72.3797 74.1586 71.8326 74.8857 71.8326H81.8481C82.5752 71.8326 83.1669 72.3797 83.1669 73.0518V75.4985H83.167Z" fill="#47A348"></path><path d="M67.2799 65.0512C66.8492 64.5496 66.0919 64.4896 65.5879 64.9205L57.2719 72.0365C56.7679 72.4672 56.7091 73.2245 57.1399 73.7285C57.3775 74.0057 57.7135 74.1486 58.0518 74.1486C58.3279 74.1486 58.605 74.0538 58.8319 73.8593L67.1479 66.7432C67.652 66.3125 67.7108 65.5552 67.2799 65.0512Z" fill="#47A348"></path><path d="M93.7268 84.3138L86.5268 74.7137C86.1295 74.1822 85.3771 74.0777 84.8467 74.4737C84.3163 74.8709 84.2095 75.6233 84.6067 76.1524L91.8067 85.7525C92.0431 86.0669 92.4031 86.2324 92.7678 86.2324C93.0174 86.2324 93.2707 86.1544 93.4867 85.9924C94.0171 85.5953 94.124 84.8429 93.7268 84.3138Z" fill="#47A348"></path><path d="M83.8784 101.001C83.4811 100.47 82.7288 100.364 82.1983 100.761L75.4951 105.788C74.9647 106.185 74.858 106.937 75.2551 107.466C75.4915 107.781 75.8515 107.946 76.2163 107.946C76.467 107.946 76.719 107.867 76.9351 107.706L83.6383 102.68C84.1688 102.283 84.2756 101.53 83.8784 101.001Z" fill="#47A348"></path><path d="M53.1666 110.233H44.7665C44.1042 110.233 43.5666 110.769 43.5666 111.432C43.5666 112.096 44.1042 112.632 44.7665 112.632H53.1665C53.8288 112.632 54.3664 112.096 54.3664 111.432C54.3664 110.769 53.829 110.233 53.1666 110.233Z" fill="#47A348"></path><path d="M49.5664 52.6325C46.9191 52.6325 44.7663 54.7853 44.7663 57.4325C44.7663 60.0797 46.9191 62.2324 49.5662 62.2324C52.2135 62.2324 54.3662 60.0796 54.3662 57.4325C54.3663 54.7853 52.2135 52.6325 49.5664 52.6325ZM49.5664 59.8325C48.2428 59.8325 47.1663 58.7562 47.1663 57.4325C47.1663 56.1089 48.2427 55.0324 49.5664 55.0324C50.89 55.0324 51.9664 56.1088 51.9664 57.4325C51.9663 58.7562 50.89 59.8325 49.5664 59.8325Z" fill="#47A348"></path><path d="M49.5669 59.8326C48.9045 59.8326 48.3669 60.3689 48.3669 61.0325V69.4325C48.3669 70.0961 48.9045 70.6324 49.5669 70.6324C50.2292 70.6324 50.7668 70.0961 50.7668 69.4325V61.0325C50.7668 60.3689 50.2292 59.8326 49.5669 59.8326Z" fill="#47A348"></path></g><defs><linearGradient id="paint0_linear" x1="92.4996" y1="119" x2="40.1428" y2="12.1344" gradientUnits="userSpaceOnUse"><stop stop-color="#101823"></stop><stop offset="0.991797" stop-color="#1F2836"></stop></linearGradient><clipPath id="clip0"><rect x="36.3668" y="52.6325" width="72" height="72" fill="white"></rect></clipPath></defs></svg> 