<svg width="1749" height="1463" viewBox="0 0 1749 1463" fill="none" xmlns="http://www.w3.org/2000/svg">
<path fill-rule="evenodd" clip-rule="evenodd" d="M-208.585 -389.51C-112.138 -476.246 -44.5275 -598.522 75.0344 -648.768C192.994 -698.34 325.932 -658.315 453.505 -667.752C589.363 -677.801 721.171 -730.643 855.214 -706.476C1004.41 -679.578 1152.34 -623.611 1264.4 -521.554C1381.58 -414.841 1532.51 -272.649 1502.6 -116.908C1467.43 66.2541 1193.77 106.172 1111.71 273.684C1055.62 388.178 1196.32 544.344 1126.42 650.974C1058.34 754.825 886.157 711.471 781.217 777.839C660.916 853.922 604.107 1011.38 472.167 1064.75C329.005 1122.66 146.996 1168.22 15.3726 1087.62C-120.13 1004.65 -91.8231 790.176 -185.645 661.936C-273.222 542.232 -446.484 500.615 -511.597 367.337C-578.978 229.417 -608.043 56.7781 -550.957 -85.8076C-493.538 -229.226 -323.456 -286.205 -208.585 -389.51Z" fill="#F5F6F8"/>
</svg>
