<svg width="12" height="10" viewBox="0 0 12 10" fill="none" xmlns="http://www.w3.org/2000/svg">
<path d="M11.8082 4.53363L7.47455 0.199909C7.35085 0.0762026 7.18597 0.00830078 7.01017 0.00830078C6.83417 0.00830078 6.66939 0.0763002 6.54569 0.199909L6.15223 0.593467C6.02862 0.716978 5.96052 0.881952 5.96052 1.05785C5.96052 1.23366 6.02862 1.40419 6.15223 1.5277L8.6804 4.06144H0.648286C0.286143 4.06144 0 4.34495 0 4.70719V5.26357C0 5.62582 0.286143 5.93791 0.648286 5.93791H8.70908L6.15232 8.48579C6.02872 8.6095 5.96062 8.76999 5.96062 8.94589C5.96062 9.12159 6.02872 9.28442 6.15232 9.40803L6.54578 9.80032C6.66949 9.92402 6.83427 9.99144 7.01027 9.99144C7.18607 9.99144 7.35095 9.92315 7.47465 9.79944L11.8083 5.46582C11.9323 5.34172 12.0005 5.17606 12 4.99997C12.0004 4.82329 11.9323 4.65753 11.8082 4.53363Z" fill="#47A348"/>
</svg>
