<svg width="12" height="10" viewBox="0 0 12 10" fill="none" xmlns="http://www.w3.org/2000/svg">
<path d="M11.8082 4.52533L7.47455 0.191608C7.35085 0.0679019 7.18597 0 7.01017 0C6.83417 0 6.66939 0.0679994 6.54569 0.191608L6.15223 0.585166C6.02862 0.708677 5.96052 0.873651 5.96052 1.04955C5.96052 1.22536 6.02862 1.39589 6.15223 1.5194L8.6804 4.05314H0.648286C0.286143 4.05314 0 4.33665 0 4.69889V5.25527C0 5.61751 0.286143 5.92961 0.648286 5.92961H8.70908L6.15232 8.47749C6.02872 8.6012 5.96062 8.76168 5.96062 8.93759C5.96062 9.11329 6.02872 9.27612 6.15232 9.39973L6.54578 9.79202C6.66949 9.91572 6.83427 9.98314 7.01027 9.98314C7.18607 9.98314 7.35095 9.91485 7.47465 9.79114L11.8083 5.45752C11.9323 5.33342 12.0005 5.16776 12 4.99167C12.0004 4.81499 11.9323 4.64923 11.8082 4.52533Z" fill="white"/>
</svg>
