<svg id="ftr-emoj-icon-svg" width="23" height="18" viewBox="0 0 23 18" xmlns="http://www.w3.org/2000/svg">
<path d="M10.1018 4.91782L10.8528 1.71748C10.9074 1.48492 11.0122 1.26439 11.161 1.06847C11.3099 0.872552 11.4999 0.705094 11.7203 0.57566C11.9406 0.446227 12.187 0.357353 12.4453 0.314116C12.7037 0.27088 12.9689 0.274127 13.2258 0.323673L16.4218 0.939122C16.7164 0.643001 17.1108 0.443144 17.5437 0.37055C17.9766 0.297957 18.4239 0.356683 18.8161 0.53762C19.2084 0.718558 19.5238 1.01159 19.7133 1.37128C19.9028 1.73096 19.9559 2.13719 19.8643 2.52696C19.7727 2.91673 19.5415 3.26826 19.2067 3.52701C18.8719 3.78577 18.4521 3.93729 18.0124 3.95809C17.5727 3.97888 17.1377 3.86778 16.7749 3.64202C16.4121 3.41626 16.1418 3.08845 16.0058 2.70945L12.8098 2.094L12.1438 4.9314C13.9278 5.05539 15.7008 5.5921 17.3068 6.47002C17.784 6.22986 18.3214 6.10453 18.8674 6.10599C19.4134 6.10746 19.9499 6.23568 20.4256 6.4784C20.9013 6.72112 21.3002 7.07022 21.5842 7.49232C21.8682 7.91442 22.0278 8.3954 22.0478 8.88929V8.90829C22.0554 9.35097 21.9506 9.78933 21.7413 10.1895C21.532 10.5897 21.2239 10.941 20.8408 11.2162C20.839 11.2534 20.8363 11.2905 20.8328 11.3276C20.8328 14.946 16.3828 17.6902 11.0338 17.6902C5.70179 17.6902 1.32579 14.9533 1.32879 11.3972C1.32443 11.3427 1.3211 11.2881 1.31879 11.2334C0.672908 10.7946 0.234795 10.1506 0.0927449 9.43106C-0.0493052 8.71152 0.115267 7.97001 0.553297 7.35593C0.991327 6.74186 1.67025 6.30089 2.45325 6.12188C3.23624 5.94288 4.0651 6.03914 4.77279 6.39128C6.3879 5.51032 8.21847 5.00417 10.1018 4.91782ZM19.3878 9.91926C19.7958 9.73553 20.0518 9.35811 20.0488 8.9463C20.0384 8.73922 19.9623 8.53923 19.8296 8.37027C19.6969 8.2013 19.5132 8.07052 19.3005 7.99356C19.0879 7.9166 18.8552 7.89673 18.6304 7.93633C18.4055 7.97592 18.1981 8.0733 18.0328 8.21682L17.4478 8.72366L16.7778 8.31185C15.1628 7.31808 13.3258 6.7506 11.5478 6.7153H10.5418C8.66679 6.74155 6.89079 7.25834 5.30479 8.2313L4.64179 8.63858L4.05779 8.14079C3.93185 8.0338 3.78173 7.95286 3.61781 7.90357C3.45389 7.85428 3.28009 7.83783 3.10845 7.85534C2.93681 7.87286 2.77143 7.92393 2.62375 8.00501C2.47607 8.0861 2.34963 8.19526 2.25317 8.32495C2.15672 8.45463 2.09255 8.60174 2.06513 8.75609C2.0377 8.91044 2.04766 9.06834 2.09433 9.21886C2.14099 9.36938 2.22324 9.50892 2.33538 9.62782C2.44752 9.74673 2.58687 9.84215 2.74379 9.90749L3.37679 10.17L3.32279 10.799C3.30979 10.9529 3.30979 11.1058 3.32579 11.3276C3.32579 13.7803 6.68179 15.8801 11.0338 15.8801C15.4048 15.8801 18.8328 13.7658 18.8358 11.2588C18.8488 11.1057 18.8488 10.952 18.8358 10.799L18.7838 10.1908L19.3878 9.91926ZM5.99979 10.0632C5.99979 9.7031 6.15783 9.35779 6.43913 9.10319C6.72044 8.84859 7.10197 8.70555 7.49979 8.70555C7.89762 8.70555 8.27915 8.84859 8.56045 9.10319C8.84176 9.35779 8.99979 9.7031 8.99979 10.0632C8.99979 10.4232 8.84176 10.7685 8.56045 11.0231C8.27915 11.2777 7.89762 11.4208 7.49979 11.4208C7.10197 11.4208 6.72044 11.2777 6.43913 11.0231C6.15783 10.7685 5.99979 10.4232 5.99979 10.0632ZM12.9998 10.0632C12.9998 9.7031 13.1578 9.35779 13.4391 9.10319C13.7204 8.84859 14.102 8.70555 14.4998 8.70555C14.8976 8.70555 15.2791 8.84859 15.5605 9.10319C15.8418 9.35779 15.9998 9.7031 15.9998 10.0632C15.9998 10.4232 15.8418 10.7685 15.5605 11.0231C15.2791 11.2777 14.8976 11.4208 14.4998 11.4208C14.102 11.4208 13.7204 11.2777 13.4391 11.0231C13.1578 10.7685 12.9998 10.4232 12.9998 10.0632ZM11.0158 14.6818C9.61879 14.6818 8.24879 14.3469 7.13379 13.5866C7.06644 13.513 7.03185 13.4193 7.03679 13.3239C7.04173 13.2284 7.08585 13.138 7.16051 13.0705C7.23517 13.0029 7.33501 12.963 7.44048 12.9585C7.54595 12.954 7.64948 12.9853 7.73079 13.0463C8.67579 13.6735 9.85379 13.9423 10.9998 13.9423C12.1458 13.9423 13.3298 13.6934 14.2838 13.0743C14.339 13.0256 14.4073 12.9909 14.482 12.9737C14.5567 12.9565 14.6351 12.9574 14.7093 12.9763C14.7835 12.9952 14.8508 13.0314 14.9047 13.0814C14.9585 13.1313 14.9968 13.1932 15.0158 13.2608C15.032 13.3285 15.0296 13.3989 15.0089 13.4656C14.9882 13.5323 14.9497 13.5935 14.8968 13.6436C14.2128 14.365 12.4128 14.6818 11.0158 14.6818Z"/>
</svg>
