<svg id="ftr-github-icon-svg" width="20" height="19" viewBox="0 0 20 19" xmlns="http://www.w3.org/2000/svg">
<path d="M10 0.654785C4.475 0.654785 1.45954e-06 4.70499 1.45954e-06 9.70552C-0.00113276 11.6055 0.658815 13.4576 1.88622 14.999C3.11362 16.5404 4.84615 17.6929 6.838 18.2929C7.338 18.3716 7.525 18.1001 7.525 17.862C7.525 17.6475 7.512 16.9352 7.512 16.1768C5 16.5958 4.35 15.6229 4.15 15.1133C4.037 14.8527 3.55 14.0499 3.125 13.8345C2.775 13.6652 2.275 13.2462 3.112 13.2353C3.9 13.2235 4.462 13.8915 4.65 14.163C5.55 15.5315 6.988 15.1468 7.562 14.9097C7.65 14.3214 7.912 13.9259 8.2 13.6996C5.975 13.4733 3.65 12.6923 3.65 9.23035C3.65 8.24563 4.037 7.43197 4.675 6.79752C4.575 6.57125 4.225 5.64355 4.775 4.39907C4.775 4.39907 5.612 4.16194 7.525 5.32768C8.33906 5.12319 9.18017 5.02026 10.025 5.02176C10.875 5.02176 11.725 5.12313 12.525 5.32677C14.437 4.15018 15.275 4.39998 15.275 4.39998C15.825 5.64445 15.475 6.57215 15.375 6.79842C16.012 7.43197 16.4 8.23477 16.4 9.23035C16.4 12.704 14.063 13.4733 11.838 13.6996C12.2 13.982 12.513 14.525 12.513 15.374C12.513 16.5841 12.5 17.557 12.5 17.8629C12.5 18.1001 12.688 18.3825 13.188 18.2919C15.173 17.6854 16.8979 16.5307 18.1199 14.9904C19.3419 13.4501 19.9994 11.6018 20 9.70552C20 4.70499 15.525 0.654785 10 0.654785Z"/>
</svg>
