<svg width="1154" height="1269" viewBox="0 0 1154 1269" fill="none" xmlns="http://www.w3.org/2000/svg">
<path fill-rule="evenodd" clip-rule="evenodd" d="M702.877 1188.7C614.622 1171.11 518.587 1184.3 441.016 1138.71C364.486 1093.73 331.535 1003.22 273.321 936.229C211.327 864.889 127.229 813.568 85.0055 729.03C38.0103 634.938 7.69586 529.477 17.8904 424.815C28.5501 315.378 44.9188 172.452 143.898 124.409C260.306 67.9069 396.119 203.439 523.298 179.498C610.224 163.135 638.603 20.0879 726.892 14.6658C812.881 9.38495 860.278 123.091 940.738 153.862C1032.98 189.137 1144.08 155.335 1228.53 206.51C1320.16 262.038 1421.05 344.283 1430.9 450.908C1441.05 560.674 1310.09 633.991 1277.76 739.385C1247.59 837.763 1296.4 951.345 1249.36 1042.87C1200.68 1137.59 1116.79 1225.43 1013.84 1252.9C910.28 1280.53 807.991 1209.66 702.877 1188.7Z" fill="#F5F6F8"/>
<path fill-rule="evenodd" clip-rule="evenodd" d="M702.877 1188.7C614.622 1171.11 518.587 1184.3 441.016 1138.71C364.486 1093.73 331.535 1003.22 273.321 936.229C211.327 864.889 127.229 813.568 85.0055 729.03C38.0103 634.938 7.69586 529.477 17.8904 424.815C28.5501 315.378 44.9188 172.452 143.898 124.409C260.306 67.9069 396.119 203.439 523.298 179.498C610.224 163.135 638.603 20.0879 726.892 14.6658C812.881 9.38495 860.278 123.091 940.738 153.862C1032.98 189.137 1144.08 155.335 1228.53 206.51C1320.16 262.038 1421.05 344.283 1430.9 450.908C1441.05 560.674 1310.09 633.991 1277.76 739.385C1247.59 837.763 1296.4 951.345 1249.36 1042.87C1200.68 1137.59 1116.79 1225.43 1013.84 1252.9C910.28 1280.53 807.991 1209.66 702.877 1188.7Z" fill="url(#paint0_linear)"/>
<defs>
<linearGradient id="paint0_linear" x1="707.507" y1="1254" x2="732.862" y2="14.4723" gradientUnits="userSpaceOnUse">
<stop stop-color="white"/>
<stop offset="1" stop-color="white" stop-opacity="0"/>
</linearGradient>
</defs>
</svg>
