<svg width="1920" height="1975" viewBox="0 0 1920 1975" fill="none" xmlns="http://www.w3.org/2000/svg">
<path fill-rule="evenodd" clip-rule="evenodd" d="M-47.6635 772.346C3.8328 683.871 -13.7502 576.149 100.106 509.051C212.436 442.851 422.767 439.532 582.828 400.779C753.284 359.508 881.029 287.432 1078.97 272.05C1299.28 254.929 1543.32 259.732 1780.28 307.722C2028.06 357.9 2351.33 426.06 2447.88 549.278C2561.43 694.193 2235.26 791.952 2273.28 936.898C2299.26 1035.97 2621.26 1117.06 2622.16 1213.72C2623.04 1307.86 2358.02 1318.47 2277.53 1393.91C2185.26 1480.4 2247.82 1611.59 2120.36 1684.09C1982.06 1762.76 1781.73 1841.92 1537.71 1814.74C1286.48 1786.77 1136.54 1620.29 900.778 1548.29C680.711 1481.09 415.791 1493.26 213.505 1410.38C4.17243 1324.61 -184.929 1203.5 -234.131 1083.3C-283.621 962.396 -108.997 877.723 -47.6635 772.346Z" fill="#F5F6F8"/>
<path fill-rule="evenodd" clip-rule="evenodd" d="M-47.6635 772.346C3.8328 683.871 -13.7502 576.149 100.106 509.051C212.436 442.851 422.767 439.532 582.828 400.779C753.284 359.508 881.029 287.432 1078.97 272.05C1299.28 254.929 1543.32 259.732 1780.28 307.722C2028.06 357.9 2351.33 426.06 2447.88 549.278C2561.43 694.193 2235.26 791.952 2273.28 936.898C2299.26 1035.97 2621.26 1117.06 2622.16 1213.72C2623.04 1307.86 2358.02 1318.47 2277.53 1393.91C2185.26 1480.4 2247.82 1611.59 2120.36 1684.09C1982.06 1762.76 1781.73 1841.92 1537.71 1814.74C1286.48 1786.77 1136.54 1620.29 900.778 1548.29C680.711 1481.09 415.791 1493.26 213.505 1410.38C4.17243 1324.61 -184.929 1203.5 -234.131 1083.3C-283.621 962.396 -108.997 877.723 -47.6635 772.346Z" fill="url(#paint0_linear)"/>
<defs>
<linearGradient id="paint0_linear" x1="-196.92" y1="754.201" x2="2621.83" y2="1220.19" gradientUnits="userSpaceOnUse">
<stop stop-color="white"/>
<stop offset="1" stop-color="white" stop-opacity="0"/>
</linearGradient>
</defs>
</svg>
