<svg width="79" height="73" viewBox="0 0 79 73" fill="none" xmlns="http://www.w3.org/2000/svg">
<path d="M5.75651 39.2922C2.26157 35.2332 0.240896 30.1205 0.0202075 24.778C-0.200481 19.4356 1.39168 14.1748 4.54003 9.84366C7.68839 5.5125 12.2095 2.36335 17.3746 0.903823C22.5397 -0.555702 28.0478 -0.24056 33.0111 1.79845H33.0037L17.4076 17.3379L22.6063 22.5152L38.2024 6.98314C42.6839 2.51952 48.7624 0.0116916 55.1006 0.0113482C61.4387 0.0110049 67.5175 2.51817 71.9995 6.98131C76.4815 11.4444 78.9997 17.4979 79 23.8101C79.0003 30.1223 76.4828 36.176 72.0013 40.6397L39.5039 73L5.70872 39.3435L5.75651 39.2922Z" fill="#47A348"/>
</svg>
