<svg width="65" height="60" viewBox="0 0 65 60" fill="none" xmlns="http://www.w3.org/2000/svg">
<path d="M4.69716 32.1935C1.84538 28.8679 0.196565 24.6788 0.0164888 20.3015C-0.163587 15.9243 1.13557 11.6139 3.70455 8.06526C6.27352 4.51659 9.96263 1.93638 14.1772 0.740535C18.3918 -0.455307 22.8863 -0.1971 26.9362 1.47354H26.9302L14.2042 14.2055L18.4462 18.4475L31.1722 5.72154C34.829 2.06433 39.7888 0.00957932 44.9606 0.00929802C50.1324 0.00901671 55.0925 2.06323 58.7497 5.72004C62.4069 9.37684 64.4616 14.3367 64.4619 19.5085C64.4622 24.6803 62.408 29.6403 58.7512 33.2975L32.2342 59.8115L4.65816 32.2355L4.69716 32.1935Z" fill="#47A348"/>
</svg>
