<svg width="46" height="42" viewBox="0 0 46 42" fill="none" xmlns="http://www.w3.org/2000/svg">
<path d="M3.87715 22.6542C1.89675 20.3447 0.751738 17.4357 0.626685 14.3959C0.501632 11.3561 1.40383 8.36284 3.18783 5.89849C4.97184 3.43413 7.53373 1.64231 10.4605 0.811868C13.3873 -0.0185781 16.5085 0.160733 19.3209 1.3209H19.3167L10.4792 10.1626L13.4251 13.1084L22.2626 4.2709C24.802 1.73117 28.2464 0.30426 31.8379 0.304064C35.4294 0.303869 38.8739 1.73041 41.4136 4.26985C43.9533 6.8093 45.3802 10.2536 45.3804 13.8452C45.3806 17.4367 43.9541 20.8812 41.4147 23.4209L23.0001 41.8334L3.85007 22.6834L3.87715 22.6542Z" fill="white"/>
</svg>
