<svg id="ftr-ins-icon-svg" width="20" height="19" viewBox="0 0 20 19" xmlns="http://www.w3.org/2000/svg">
<path d="M10 0.654785C12.717 0.654785 13.056 0.663836 14.122 0.709089C15.187 0.754343 15.912 0.905491 16.55 1.12995C17.21 1.35984 17.766 1.67118 18.322 2.1735C18.8305 2.62594 19.224 3.17323 19.475 3.77729C19.722 4.35382 19.89 5.0109 19.94 5.9748C19.987 6.93961 20 7.24643 20 9.70552C20 12.1646 19.99 12.4714 19.94 13.4362C19.89 14.4001 19.722 15.0563 19.475 15.6337C19.2247 16.2381 18.8311 16.7856 18.322 17.2375C17.822 17.6976 17.2173 18.0537 16.55 18.2811C15.913 18.5046 15.187 18.6567 14.122 18.7019C13.056 18.7445 12.717 18.7562 10 18.7562C7.283 18.7562 6.944 18.7472 5.878 18.7019C4.813 18.6567 4.088 18.5046 3.45 18.2811C2.78233 18.0543 2.17753 17.6982 1.678 17.2375C1.16941 16.7852 0.775931 16.2379 0.525 15.6337C0.277 15.0572 0.11 14.4001 0.0599999 13.4362C0.0129999 12.4714 0 12.1646 0 9.70552C0 7.24643 0.00999994 6.93961 0.0599999 5.9748C0.11 5.01 0.277 4.35472 0.525 3.77729C0.775236 3.17286 1.1688 2.62542 1.678 2.1735C2.17767 1.71302 2.78243 1.35688 3.45 1.12995C4.088 0.905491 4.812 0.754343 5.878 0.709089C6.944 0.666551 7.283 0.654785 10 0.654785ZM10 5.18015C8.67392 5.18015 7.40215 5.65693 6.46447 6.5056C5.52678 7.35427 5 8.50532 5 9.70552C5 10.9057 5.52678 12.0568 6.46447 12.9054C7.40215 13.7541 8.67392 14.2309 10 14.2309C11.3261 14.2309 12.5979 13.7541 13.5355 12.9054C14.4732 12.0568 15 10.9057 15 9.70552C15 8.50532 14.4732 7.35427 13.5355 6.5056C12.5979 5.65693 11.3261 5.18015 10 5.18015ZM16.5 4.95388C16.5 4.65383 16.3683 4.36607 16.1339 4.1539C15.8995 3.94174 15.5815 3.82254 15.25 3.82254C14.9185 3.82254 14.6005 3.94174 14.3661 4.1539C14.1317 4.36607 14 4.65383 14 4.95388C14 5.25393 14.1317 5.54169 14.3661 5.75386C14.6005 5.96603 14.9185 6.08522 15.25 6.08522C15.5815 6.08522 15.8995 5.96603 16.1339 5.75386C16.3683 5.54169 16.5 5.25393 16.5 4.95388ZM10 6.9903C10.7956 6.9903 11.5587 7.27636 12.1213 7.78557C12.6839 8.29477 13 8.9854 13 9.70552C13 10.4256 12.6839 11.1163 12.1213 11.6255C11.5587 12.1347 10.7956 12.4207 10 12.4207C9.20435 12.4207 8.44129 12.1347 7.87868 11.6255C7.31607 11.1163 7 10.4256 7 9.70552C7 8.9854 7.31607 8.29477 7.87868 7.78557C8.44129 7.27636 9.20435 6.9903 10 6.9903Z"/>
</svg>
