<svg width="12" height="10" viewBox="0 0 12 10" fill="none" xmlns="http://www.w3.org/2000/svg">
<path d="M11.8082 4.53375L7.47455 0.200031C7.35085 0.0763247 7.18597 0.00842285 7.01017 0.00842285C6.83417 0.00842285 6.66939 0.0764223 6.54569 0.200031L6.15223 0.593589C6.02862 0.7171 5.96052 0.882074 5.96052 1.05798C5.96052 1.23378 6.02862 1.40431 6.15223 1.52783L8.6804 4.06156H0.648286C0.286143 4.06156 0 4.34507 0 4.70731V5.2637C0 5.62594 0.286143 5.93803 0.648286 5.93803H8.70908L6.15232 8.48591C6.02872 8.60962 5.96062 8.77011 5.96062 8.94601C5.96062 9.12171 6.02872 9.28454 6.15232 9.40815L6.54578 9.80044C6.66949 9.92415 6.83427 9.99156 7.01027 9.99156C7.18607 9.99156 7.35095 9.92327 7.47465 9.79956L11.8083 5.46594C11.9323 5.34184 12.0005 5.17619 12 5.00009C12.0004 4.82341 11.9323 4.65765 11.8082 4.53375Z" fill="#47A348"/>
</svg>
