<svg width="145" height="136" viewBox="0 0 145 136" fill="none" xmlns="http://www.w3.org/2000/svg">
<path fill-rule="evenodd" clip-rule="evenodd" d="M80.7517 124.572C69.3756 126.152 59.9226 117.139 49.2091 113.021C37.2065 108.408 19.1924 110.883 14.2786 99.0247C9.22685 86.8337 23.8428 75.4493 28.5242 63.1033C31.8282 54.39 32.7673 45.3484 37.6446 37.403C43.7553 27.4484 48.547 13.3144 60.1219 11.629C71.7596 9.93445 78.4106 25.3488 89.2497 29.8889C101.063 34.8373 116.874 29.7075 125.607 39.0588C134.667 48.7601 136.687 64.2593 133.337 77.0995C130.13 89.3932 117.902 96.2642 108.458 104.79C99.8258 112.583 92.2789 122.97 80.7517 124.572Z" fill="#F5F6F8"/>
<path fill-rule="evenodd" clip-rule="evenodd" d="M80.7517 124.572C69.3756 126.152 59.9226 117.139 49.2091 113.021C37.2065 108.408 19.1924 110.883 14.2786 99.0247C9.22685 86.8337 23.8428 75.4493 28.5242 63.1033C31.8282 54.39 32.7673 45.3484 37.6446 37.403C43.7553 27.4484 48.547 13.3144 60.1219 11.629C71.7596 9.93445 78.4106 25.3488 89.2497 29.8889C101.063 34.8373 116.874 29.7075 125.607 39.0588C134.667 48.7601 136.687 64.2593 133.337 77.0995C130.13 89.3932 117.902 96.2642 108.458 104.79C99.8258 112.583 92.2789 122.97 80.7517 124.572Z" fill="url(#paint0_linear)"/>
<g clip-path="url(#clip0)">
<path d="M103.567 67.0326C100.919 67.0326 98.7666 69.1854 98.7666 71.8326C98.7666 74.4797 100.919 76.6325 103.567 76.6325C106.214 76.6325 108.366 74.4798 108.366 71.8326C108.366 69.1854 106.214 67.0326 103.567 67.0326ZM103.567 74.2326C102.243 74.2326 101.167 73.1563 101.167 71.8326C101.167 70.509 102.243 69.4325 103.567 69.4325C104.89 69.4325 105.967 70.5088 105.967 71.8326C105.966 73.1563 104.89 74.2326 103.567 74.2326Z" fill="#47A348"/>
<path d="M41.1671 106.633C38.52 106.633 36.3672 108.785 36.3672 111.433C36.3672 114.08 38.52 116.233 41.1671 116.233C43.8144 116.233 45.9671 114.08 45.9671 111.433C45.9671 108.785 43.8144 106.633 41.1671 106.633ZM41.1671 113.833C39.8436 113.833 38.7671 112.756 38.7671 111.433C38.7671 110.109 39.8434 109.033 41.1671 109.033C42.4907 109.033 43.5672 110.109 43.5672 111.433C43.5672 112.756 42.4908 113.833 41.1671 113.833Z" fill="#47A348"/>
<path d="M101.24 68.5495L90.8875 63.5515C90.2898 63.2623 89.5735 63.5143 89.2855 64.1108C88.9975 64.7072 89.2482 65.4248 89.8447 65.7128L100.197 70.7107C100.365 70.7923 100.543 70.8307 100.718 70.8307C101.164 70.8307 101.593 70.5811 101.799 70.1515C102.087 69.5551 101.836 68.8375 101.24 68.5495Z" fill="#47A348"/>
<path d="M90.3673 115.033C87.7201 115.033 85.5674 117.185 85.5674 119.833C85.5674 122.48 87.7201 124.633 90.3673 124.633C93.0146 124.633 95.1673 122.48 95.1673 119.833C95.1673 117.186 93.0146 115.033 90.3673 115.033ZM90.3673 122.233C89.0438 122.233 87.9673 121.156 87.9673 119.833C87.9673 118.509 89.0438 117.433 90.3673 117.433C91.6909 117.433 92.7674 118.509 92.7674 119.833C92.7674 121.156 91.6909 122.233 90.3673 122.233Z" fill="#47A348"/>
<path d="M88.0406 116.55L77.6882 111.552C77.0906 111.262 76.3742 111.513 76.0862 112.111C75.7982 112.707 76.049 113.425 76.6455 113.713L86.9979 118.711C87.1659 118.792 87.3436 118.831 87.5186 118.831C87.965 118.831 88.3935 118.581 88.5999 118.152C88.8878 117.555 88.637 116.838 88.0406 116.55Z" fill="#47A348"/>
<path d="M72.3673 85.0326C69.7201 85.0326 67.5674 87.1854 67.5674 89.8325C67.5674 92.4798 69.7202 94.6325 72.3673 94.6325C75.0146 94.6325 77.1673 92.4797 77.1673 89.8325C77.1673 87.1854 75.0146 85.0326 72.3673 85.0326ZM72.3673 92.2326C71.0438 92.2326 69.9673 91.1562 69.9673 89.8325C69.9673 88.509 71.0436 87.4325 72.3673 87.4325C73.6909 87.4325 74.7674 88.5088 74.7674 89.8325C74.7674 91.1562 73.6909 92.2326 72.3673 92.2326Z" fill="#47A348"/>
<path d="M70.2578 86.6838L62.3055 80.4857C61.7822 80.0813 61.0288 80.1713 60.6207 80.6946C60.2138 81.2178 60.3062 81.9713 60.8295 82.3794L68.7818 88.5774C69.0015 88.7479 69.2607 88.8307 69.5187 88.8307C69.8763 88.8307 70.2292 88.6724 70.4667 88.3688C70.8735 87.8453 70.7811 87.0917 70.2578 86.6838Z" fill="#47A348"/>
<path d="M93.9666 83.8327C86.6886 83.8327 80.7666 89.7547 80.7666 97.0327C80.7666 104.311 86.6886 110.233 93.9666 110.233C101.245 110.233 107.167 104.311 107.167 97.0327C107.167 89.7547 101.245 83.8327 93.9666 83.8327ZM93.9666 107.833C88.011 107.833 83.1666 102.988 83.1666 97.0326C83.1666 91.077 88.011 86.2326 93.9666 86.2326C99.9223 86.2326 104.767 91.077 104.767 97.0326C104.767 102.988 99.9223 107.833 93.9666 107.833Z" fill="#47A348"/>
<path d="M93.9669 88.6326C91.3197 88.6326 89.167 90.7855 89.167 93.4326C89.167 96.0798 91.3198 98.2325 93.9669 98.2325C96.6142 98.2325 98.7669 96.0797 98.7669 93.4326C98.7669 90.7855 96.6142 88.6326 93.9669 88.6326ZM93.9669 95.8326C92.6434 95.8326 91.5669 94.7563 91.5669 93.4326C91.5669 92.109 92.6432 91.0325 93.9669 91.0325C95.2905 91.0325 96.367 92.1089 96.367 93.4326C96.367 94.7563 95.2905 95.8326 93.9669 95.8326Z" fill="#47A348"/>
<path d="M97.4478 100.633H90.4854C88.4347 100.633 86.7666 102.256 86.7666 104.251V107.414C86.7666 107.842 86.9946 108.238 87.3654 108.453C89.3766 109.617 91.6589 110.233 93.9666 110.233C96.2743 110.233 98.5566 109.617 100.568 108.453C100.939 108.239 101.167 107.842 101.167 107.415V104.252C101.167 102.256 99.4987 100.633 97.4478 100.633ZM98.7666 106.699C95.7798 108.187 92.1534 108.187 89.1665 106.699V104.252C89.1665 103.58 89.7581 103.033 90.4853 103.033H97.4476C98.1748 103.033 98.7664 103.58 98.7664 104.252V106.699H98.7666Z" fill="#47A348"/>
<path d="M65.1678 98.2327C57.8898 98.2327 51.9678 104.155 51.9678 111.433C51.9678 118.711 57.8898 124.633 65.1678 124.633C72.4459 124.633 78.3679 118.711 78.3679 111.433C78.3679 104.155 72.4459 98.2327 65.1678 98.2327ZM65.1678 122.233C59.2122 122.233 54.3678 117.388 54.3678 111.433C54.3678 105.477 59.2122 100.633 65.1678 100.633C71.1234 100.633 75.9678 105.477 75.9678 111.433C75.9678 117.388 71.1234 122.233 65.1678 122.233Z" fill="#47A348"/>
<path d="M65.1671 103.033C62.5199 103.033 60.3672 105.185 60.3672 107.833C60.3672 110.48 62.52 112.632 65.1671 112.632C67.8143 112.632 69.9671 110.48 69.9671 107.833C69.9671 105.185 67.8144 103.033 65.1671 103.033ZM65.1671 110.233C63.8436 110.233 62.7671 109.156 62.7671 107.833C62.7671 106.509 63.8434 105.433 65.1671 105.433C66.4907 105.433 67.5672 106.509 67.5672 107.833C67.5672 109.156 66.4907 110.233 65.1671 110.233Z" fill="#47A348"/>
<path d="M68.6489 115.033H61.6866C59.6359 115.033 57.9678 116.656 57.9678 118.651V121.814C57.9678 122.242 58.1957 122.638 58.5666 122.853C60.5778 124.017 62.8601 124.633 65.1678 124.633C67.4754 124.633 69.7578 124.017 71.769 122.853C72.1398 122.639 72.3678 122.242 72.3678 121.815V118.652C72.3678 116.656 70.6998 115.033 68.6489 115.033ZM69.9677 121.099C66.9809 122.587 63.3546 122.587 60.3677 121.099V118.652C60.3677 117.98 60.9593 117.433 61.6865 117.433H68.6488C69.376 117.433 69.9676 117.98 69.9676 118.652V121.099H69.9677Z" fill="#47A348"/>
<path d="M49.5672 68.2326C42.2892 68.2326 36.3672 74.1546 36.3672 81.4326C36.3672 88.7107 42.2892 94.6327 49.5672 94.6327C56.8453 94.6327 62.7673 88.7107 62.7673 81.4326C62.7671 74.1546 56.8451 68.2326 49.5672 68.2326ZM49.5672 92.2326C43.6116 92.2326 38.7672 87.3883 38.7672 81.4326C38.7672 75.477 43.6116 70.6327 49.5672 70.6327C55.5228 70.6327 60.3672 75.477 60.3672 81.4326C60.3672 87.3883 55.5228 92.2326 49.5672 92.2326Z" fill="#47A348"/>
<path d="M49.5666 73.0327C46.9193 73.0327 44.7666 75.1855 44.7666 77.8327C44.7666 80.4798 46.9194 82.6326 49.5666 82.6326C52.2138 82.6326 54.3665 80.4798 54.3665 77.8327C54.3665 75.1855 52.2137 73.0327 49.5666 73.0327ZM49.5666 80.2327C48.243 80.2327 47.1665 79.1564 47.1665 77.8327C47.1665 76.509 48.2429 75.4326 49.5666 75.4326C50.8901 75.4326 51.9666 76.509 51.9666 77.8327C51.9666 79.1564 50.8901 80.2327 49.5666 80.2327Z" fill="#47A348"/>
<path d="M53.0484 85.0326H46.086C44.0353 85.0326 42.3672 86.6562 42.3672 88.6506V91.8138C42.3672 92.2422 42.5951 92.6382 42.966 92.853C44.9772 94.017 47.2595 94.6326 49.5672 94.6326C51.8748 94.6326 54.1572 94.017 56.1684 92.853C56.5392 92.6394 56.7672 92.2422 56.7672 91.8151V88.6519C56.7672 86.6562 55.0991 85.0326 53.0484 85.0326ZM54.3671 91.0986C51.3804 92.5865 47.754 92.5865 44.7671 91.0986V88.6519C44.7671 87.9798 45.3587 87.4326 46.0859 87.4326H53.0482C53.7754 87.4326 54.367 87.9798 54.367 88.6519V91.0986H54.3671Z" fill="#47A348"/>
<path d="M78.367 52.6326C71.089 52.6326 65.167 58.5546 65.167 65.8327C65.167 73.1107 71.089 79.0327 78.367 79.0327C85.6451 79.0327 91.5671 73.1107 91.5671 65.8327C91.5669 58.5546 85.6449 52.6326 78.367 52.6326ZM78.367 76.6327C72.4114 76.6327 67.567 71.7883 67.567 65.8327C67.567 59.8771 72.4114 55.0327 78.367 55.0327C84.3226 55.0327 89.167 59.8771 89.167 65.8327C89.167 71.7883 84.3226 76.6327 78.367 76.6327Z" fill="#47A348"/>
<path d="M78.3673 57.4326C75.7201 57.4326 73.5674 59.5854 73.5674 62.2325C73.5674 64.8796 75.7202 67.0325 78.3673 67.0325C81.0145 67.0325 83.1673 64.8798 83.1673 62.2327C83.1673 59.5855 81.0145 57.4326 78.3673 57.4326ZM78.3673 64.6326C77.0438 64.6326 75.9673 63.5562 75.9673 62.2325C75.9673 60.9089 77.0436 59.8325 78.3673 59.8325C79.691 59.8325 80.7674 60.9088 80.7674 62.2325C80.7672 63.5562 79.6909 64.6326 78.3673 64.6326Z" fill="#47A348"/>
<path d="M81.8482 69.4327H74.8858C72.8351 69.4327 71.167 71.0563 71.167 73.0507V76.2139C71.167 76.6422 71.3949 77.0382 71.7658 77.2531C73.777 78.4171 76.0593 79.0327 78.367 79.0327C80.6746 79.0327 82.957 78.4171 84.9682 77.2531C85.339 77.0395 85.567 76.6422 85.567 76.2152V73.0519C85.567 71.0562 83.8989 69.4327 81.8482 69.4327ZM83.1669 75.4987C80.1802 76.9866 76.5538 76.9866 73.5669 75.4987V73.0519C73.5669 72.3799 74.1585 71.8327 74.8857 71.8327H81.848C82.5752 71.8327 83.1668 72.3799 83.1668 73.0519V75.4987H83.1669Z" fill="#47A348"/>
<path d="M67.2807 65.0514C66.85 64.5497 66.0927 64.4897 65.5887 64.9206L57.2727 72.0366C56.7687 72.4674 56.71 73.2246 57.1407 73.7286C57.3783 74.0058 57.7143 74.1487 58.0526 74.1487C58.3287 74.1487 58.6059 74.0539 58.8327 73.8594L67.1487 66.7434C67.6528 66.3126 67.7116 65.5554 67.2807 65.0514Z" fill="#47A348"/>
<path d="M93.7272 84.3139L86.5272 74.7138C86.1299 74.1822 85.3776 74.0778 84.8471 74.4738C84.3167 74.871 84.21 75.6234 84.6071 76.1525L91.8071 85.7526C92.0435 86.067 92.4035 86.2325 92.7683 86.2325C93.0179 86.2325 93.2711 86.1545 93.4871 85.9925C94.0176 85.5954 94.1245 84.843 93.7272 84.3139Z" fill="#47A348"/>
<path d="M83.8788 101.001C83.4815 100.471 82.7292 100.364 82.1987 100.761L75.4956 105.788C74.9651 106.185 74.8584 106.937 75.2555 107.467C75.4919 107.781 75.8519 107.946 76.2167 107.946C76.4674 107.946 76.7194 107.867 76.9356 107.706L83.6387 102.68C84.1692 102.283 84.2761 101.53 83.8788 101.001Z" fill="#47A348"/>
<path d="M53.1674 110.233H44.7673C44.105 110.233 43.5674 110.769 43.5674 111.433C43.5674 112.096 44.105 112.633 44.7673 112.633H53.1673C53.8296 112.633 54.3672 112.096 54.3672 111.433C54.3672 110.769 53.8298 110.233 53.1674 110.233Z" fill="#47A348"/>
<path d="M49.5667 52.6326C46.9194 52.6326 44.7666 54.7855 44.7666 57.4326C44.7666 60.0798 46.9194 62.2325 49.5666 62.2325C52.2138 62.2325 54.3665 60.0797 54.3665 57.4326C54.3666 54.7855 52.2138 52.6326 49.5667 52.6326ZM49.5667 59.8326C48.2431 59.8326 47.1666 58.7563 47.1666 57.4326C47.1666 56.109 48.243 55.0325 49.5667 55.0325C50.8903 55.0325 51.9667 56.1089 51.9667 57.4326C51.9666 58.7563 50.8903 59.8326 49.5667 59.8326Z" fill="#47A348"/>
<path d="M49.5671 59.8327C48.9048 59.8327 48.3672 60.369 48.3672 61.0327V69.4326C48.3672 70.0962 48.9048 70.6326 49.5671 70.6326C50.2295 70.6326 50.7671 70.0962 50.7671 69.4326V61.0327C50.7671 60.369 50.2295 59.8327 49.5671 59.8327Z" fill="#47A348"/>
</g>
<defs>
<linearGradient id="paint0_linear" x1="72.2881" y1="128.133" x2="113.788" y2="35.1327" gradientUnits="userSpaceOnUse">
<stop stop-color="white"/>
<stop offset="1" stop-color="white" stop-opacity="0"/>
</linearGradient>
<clipPath id="clip0">
<rect x="36.3672" y="52.6326" width="72" height="72" fill="white"/>
</clipPath>
</defs>
</svg>
