<svg id="ftr-message-icon-svg" width="18" height="20" viewBox="0 0 18 20" xmlns="http://www.w3.org/2000/svg">
<path d="M7.076 8.80044C7.676 8.80044 8.162 9.20773 8.151 9.70552C8.151 10.2033 7.677 10.6106 7.076 10.6106C6.486 10.6106 6 10.2033 6 9.70552C6 9.20773 6.475 8.80044 7.076 8.80044ZM10.924 8.80044C11.525 8.80044 12 9.20773 12 9.70552C12 10.2033 11.525 10.6106 10.924 10.6106C10.334 10.6106 9.849 10.2033 9.849 9.70552C9.849 9.20773 10.323 8.80044 10.924 8.80044ZM15.891 0.654785C17.054 0.654785 18 1.52909 18 2.61246V19.6613L15.789 17.8557L14.544 16.7913L13.227 15.66L13.773 17.4186H2.109C0.946 17.4186 0 16.5442 0 15.4609V2.61246C0 1.52909 0.946 0.654785 2.109 0.654785H15.89H15.891ZM11.921 13.0661C14.194 13 15.069 11.6216 15.069 11.6216C15.069 8.5615 13.587 6.0807 13.587 6.0807C12.107 5.05525 10.697 5.08331 10.697 5.08331L10.553 5.23536C12.302 5.72953 13.114 6.44273 13.114 6.44273C12.1591 5.95579 11.1066 5.64566 10.018 5.53041C9.32744 5.45982 8.62993 5.4659 7.941 5.54852C7.879 5.54852 7.827 5.55847 7.766 5.56752C7.406 5.59648 6.531 5.71957 5.431 6.16668C5.051 6.32778 4.824 6.44273 4.824 6.44273C4.824 6.44273 5.678 5.69152 7.529 5.19735L7.426 5.08331C7.426 5.08331 6.017 5.05525 4.536 6.0816C4.536 6.0816 3.055 8.5615 3.055 11.6216C3.055 11.6216 3.919 12.9991 6.192 13.0661C6.192 13.0661 6.572 12.6389 6.882 12.2777C5.575 11.9157 5.082 11.1554 5.082 11.1554C5.082 11.1554 5.184 11.2224 5.369 11.3175C5.379 11.3265 5.389 11.3365 5.41 11.3455C5.441 11.3654 5.472 11.3745 5.503 11.3935C5.76 11.5265 6.017 11.6306 6.253 11.7166C6.675 11.8686 7.179 12.0207 7.766 12.1257C8.64532 12.2817 9.54941 12.2848 10.43 12.1347C10.9429 12.0519 11.4433 11.9149 11.921 11.7265C12.281 11.6025 12.682 11.4215 13.104 11.1654C13.104 11.1654 12.59 11.9447 11.242 12.2967C11.551 12.6579 11.922 13.0661 11.922 13.0661H11.921Z"/>
</svg>
