<svg width="32" height="32" viewBox="0 0 32 32" fill="none" xmlns="http://www.w3.org/2000/svg">
<g clip-path="url(#clip0)">
<path d="M21.5562 26.9152C21.1048 27.3666 20.3943 27.3666 19.9429 26.9152C19.5068 26.4791 19.5068 25.7533 19.9429 25.3182L28.1231 17.1381L1.12859 17.138C0.499343 17.138 -0.000801606 16.6379 -0.000801579 16.0087C-0.000801551 15.3794 0.499343 14.863 1.12859 14.863L28.1241 14.863L19.9439 6.69909C19.5078 6.24774 19.5078 5.52091 19.9439 5.08583C20.3953 4.63448 21.1058 4.63448 21.5572 5.08583L31.6739 15.2025C32.11 15.6386 32.11 16.3645 31.6739 16.7995L21.5562 26.9152Z" fill="#47A348"/>
</g>
<defs>
<clipPath id="clip0">
<rect x="32" width="32" height="32" transform="rotate(90 32 0)" fill="white"/>
</clipPath>
</defs>
</svg>
