<svg width="72" height="72" viewBox="0 0 72 72" fill="none" xmlns="http://www.w3.org/2000/svg">
<g clip-path="url(#clip0)">
<path d="M36 67.4878C19.4579 67.4878 6.00018 54.2095 6.00018 37.888C6.00018 21.5664 19.4579 8.28815 36 8.28815C36.6625 8.28815 37.2003 8.81822 37.2003 9.47186V36.4165L50.7634 62.3459C51.0634 62.9188 50.8425 63.6234 50.269 63.9301C45.9146 66.258 40.9812 67.4878 36 67.4878ZM34.7997 10.681C20.1357 11.3038 8.40015 23.2694 8.40015 37.888C8.40015 52.9033 20.7817 65.1198 36 65.1198C40.188 65.1198 44.3403 64.1751 48.0795 62.379L34.9332 37.2462C34.8453 37.0793 34.7997 36.8934 34.7997 36.7043V10.681Z" fill="white"/>
<path d="M54.1425 17.0023C53.8667 17.0023 53.5882 16.9085 53.3624 16.7167C52.8598 16.2918 52.801 15.5438 53.2328 15.0473L56.6891 11.0691C56.9171 10.8063 57.2494 10.6561 57.5999 10.6561H63.5995C64.262 10.6561 64.7998 11.1862 64.7998 11.8398C64.7998 12.4935 64.262 13.0241 63.5995 13.0241H58.1514L55.0543 16.5888C54.817 16.8625 54.4808 17.0023 54.1425 17.0023Z" fill="white"/>
<path d="M67.2001 16.5757C64.5529 16.5757 62.4001 14.4517 62.4001 11.8398C62.4001 9.22795 64.5529 7.10388 67.2001 7.10388C69.8472 7.10388 72 9.22795 72 11.8398C72 14.4517 69.8472 16.5757 67.2001 16.5757ZM67.2001 9.47185C65.8762 9.47185 64.8001 10.5341 64.8001 11.8398C64.8001 13.146 65.8762 14.2078 67.2001 14.2078C68.5234 14.2078 69.6 13.146 69.6 11.8398C69.6 10.5341 68.5234 9.47185 67.2001 9.47185Z" fill="white"/>
<path d="M14.3998 67.4878H8.40015C7.73767 67.4878 7.19989 66.9578 7.19989 66.3041C7.19989 65.6505 7.73767 65.1199 8.40015 65.1199H13.8483L18.1862 60.1259C18.6169 59.6311 19.3766 59.5731 19.8781 59.998C20.3807 60.423 20.4395 61.1714 20.0078 61.6674L15.3094 67.0748C15.0826 67.3377 14.7502 67.4878 14.3998 67.4878Z" fill="white"/>
<path d="M4.79993 71.04C2.15277 71.04 0 68.9159 0 66.304C0 63.6922 2.15277 61.5681 4.79993 61.5681C7.44708 61.5681 9.59985 63.6922 9.59985 66.304C9.59985 68.9159 7.44708 71.04 4.79993 71.04ZM4.79993 63.9361C3.47662 63.9361 2.39996 64.9978 2.39996 66.304C2.39996 67.6097 3.47662 68.672 4.79993 68.672C6.12378 68.672 7.19989 67.6097 7.19989 66.304C7.19989 64.9978 6.12378 63.9361 4.79993 63.9361Z" fill="white"/>
<path d="M21.6002 14.2078C21.2618 14.2078 20.9257 14.0669 20.6878 13.7948L13.8483 5.92021H8.40015C7.73767 5.92021 7.19989 5.3896 7.19989 4.73596C7.19989 4.08231 7.73767 3.55225 8.40015 3.55225H14.3998C14.7502 3.55225 15.0826 3.70238 15.3105 3.96524L22.511 12.2534C22.9417 12.7493 22.884 13.4978 22.3813 13.9227C22.1545 14.1146 21.8771 14.2078 21.6002 14.2078Z" fill="white"/>
<path d="M4.79993 9.47185C2.15277 9.47185 0 7.34779 0 4.73593C0 2.12407 2.15277 0 4.79993 0C7.44708 0 9.59985 2.12407 9.59985 4.73593C9.59985 7.34779 7.44708 9.47185 4.79993 9.47185ZM4.79993 2.36796C3.47662 2.36796 2.39996 3.43027 2.39996 4.73593C2.39996 6.04213 3.47662 7.10389 4.79993 7.10389C6.12378 7.10389 7.19989 6.04213 7.19989 4.73593C7.19989 3.43027 6.12378 2.36796 4.79993 2.36796Z" fill="white"/>
<path d="M16.8013 53.28C16.4338 53.28 16.0712 53.1141 15.8361 52.8014C12.6287 48.5359 10.794 43.0986 10.8 37.8869C10.8 37.2332 11.3372 36.7042 11.9997 36.7042H12.0014C12.6633 36.7042 13.2011 37.2354 13.2 37.889C13.195 42.6038 14.8584 47.5246 17.7637 51.39C18.1581 51.9158 18.0466 52.6572 17.5137 53.0469C17.3001 53.2041 17.0496 53.28 16.8013 53.28Z" fill="white"/>
<path d="M35.9965 62.7518C30.2797 62.7518 24.3125 60.4917 19.6225 56.5487C19.1187 56.1249 19.0578 55.378 19.4873 54.8794C19.9169 54.3797 20.6749 54.3217 21.1792 54.7455C25.4403 58.3297 30.8417 60.3839 35.9965 60.3839H36.0003C36.6628 60.3839 37.2006 60.9134 37.2006 61.5681C37.2006 62.2218 36.6628 62.7518 36.0003 62.7518C35.9992 62.7518 35.9981 62.7518 35.9965 62.7518Z" fill="white"/>
<path d="M63.5916 47.2216C63.4609 47.2216 63.329 47.1999 63.2027 47.1577L35.6111 37.824C35.1249 37.6592 34.7997 37.2094 34.7997 36.7043V9.47186C34.7997 8.81822 35.3375 8.28815 36 8.28815C52.5421 8.28815 65.9998 21.5664 65.9998 37.888C65.9998 40.7638 65.5763 43.6195 64.7413 46.3761C64.6474 46.685 64.4304 46.943 64.1409 47.0899C63.9695 47.1777 63.7811 47.2216 63.5916 47.2216ZM37.2003 35.8587L62.7731 44.51C63.323 42.3448 63.5999 40.1221 63.5999 37.888C63.5999 23.2694 51.8643 11.3038 37.2003 10.681V35.8587Z" fill="white"/>
<path d="M49.6979 64.0733C49.5792 64.0733 49.4606 64.0554 49.3452 64.0212C49.0371 63.928 48.78 63.7156 48.6328 63.4326L34.9333 37.2463C34.7087 36.8165 34.7713 36.2956 35.0915 35.9298C35.4124 35.5639 35.9243 35.4241 36.389 35.584L63.9807 44.9176C64.5904 45.1236 64.926 45.7675 64.7415 46.3761C62.4854 53.8226 57.2103 60.2197 50.2692 63.9302C50.0917 64.0261 49.8962 64.0733 49.6979 64.0733ZM38.4363 38.7796L50.189 61.2484C55.7195 57.965 59.98 52.7863 62.0883 46.7799L38.4363 38.7796Z" fill="white"/>
</g>
<defs>
<clipPath id="clip0">
<rect width="72" height="71.04" fill="white"/>
</clipPath>
</defs>
</svg>
