<svg width="100" height="100" viewBox="0 0 100 100" fill="none" xmlns="http://www.w3.org/2000/svg">
<g clip-path="url(#clip0)">
<path d="M93.2832 25.0105C86.6084 13.4495 75.8311 5.17942 62.9361 1.72434C50.0414 -1.73113 36.573 0.0421103 25.0115 6.71731C13.4502 13.3923 5.18047 24.1697 1.72539 37.0646C-1.72969 49.9593 0.0435529 63.4281 6.71836 74.989C13.393 86.5499 24.1707 94.8201 37.0654 98.2751C41.3713 99.429 45.7406 99.9997 50.0822 99.9997C58.7422 99.9997 67.2895 97.7284 74.9902 93.2824C86.5512 86.6076 94.8213 75.8302 98.2764 62.9353C101.732 50.0402 99.958 36.5718 93.2832 25.0105ZM93.2486 61.5882C90.1533 73.1402 82.7447 82.7954 72.3873 88.7751C62.0303 94.755 49.9643 96.3433 38.4123 93.2484C26.8602 90.1531 17.2051 82.7445 11.2252 72.387C5.24551 62.03 3.65703 49.9638 6.75254 38.4116C9.84804 26.8597 17.2566 17.2048 27.6139 11.2247C34.5133 7.24133 42.1693 5.20676 49.9281 5.20676C53.8168 5.20676 57.7326 5.71809 61.5887 6.75149C73.1406 9.8468 82.7959 17.2554 88.7756 27.6128C94.7555 37.97 96.3441 50.0361 93.2486 61.5882Z" fill="white"/>
<path d="M73.9807 45.2836L41.8467 26.7309C40.1414 25.7463 38.1055 25.7467 36.4002 26.7307C34.6949 27.715 33.6768 29.4785 33.6768 31.4475V68.5529C33.6768 70.5219 34.6947 72.2852 36.4002 73.2697C37.2527 73.7621 38.1877 74.008 39.123 74.008C40.0586 74.008 40.9939 73.7615 41.8465 73.2695L73.9809 54.717C75.6859 53.7322 76.7037 51.9689 76.7037 50C76.7037 48.0313 75.6857 46.268 73.9807 45.2836ZM71.3779 50.2098L39.2438 68.7623C39.2045 68.7852 39.1227 68.8322 39.0023 68.7623C38.8816 68.6926 38.8816 68.5984 38.8816 68.5531V31.4477C38.8816 31.4023 38.8816 31.3082 39.0023 31.2385C39.0496 31.2111 39.0908 31.2018 39.126 31.2018C39.1807 31.2018 39.2201 31.2246 39.2441 31.2385L71.3781 49.7912C71.4174 49.8139 71.4988 49.8609 71.4988 50.0004C71.4988 50.1398 71.417 50.1871 71.3779 50.2098Z" fill="white"/>
<path d="M80.7232 26.2578C74.534 18.2621 65.2299 12.8902 55.1963 11.5193C53.7738 11.3246 52.4602 12.3213 52.2654 13.7457C52.0711 15.1697 53.0678 16.4818 54.4918 16.6766C63.1855 17.8643 71.2463 22.5182 76.6074 29.4439C77.1203 30.1064 77.8897 30.4533 78.6672 30.4533C79.2236 30.4533 79.7844 30.2758 80.2582 29.9086C81.3947 29.0289 81.6029 27.3943 80.7232 26.2578Z" fill="white"/>
</g>
<defs>
<clipPath id="clip0">
<rect width="100" height="100" fill="white"/>
</clipPath>
</defs>
</svg>
