<svg width="133" height="133" viewBox="0 0 133 133" fill="none" xmlns="http://www.w3.org/2000/svg">
<g clip-path="url(#clip0)">
<path d="M124.066 33.2641C115.189 17.888 100.855 6.88876 83.7047 2.29351C66.5547 -2.30226 48.6418 0.0561479 33.265 8.93416C17.8884 17.8119 6.8897 32.1458 2.29444 49.296C-2.30081 66.446 0.0576031 84.3595 8.93509 99.7355C17.8123 115.112 32.1467 126.111 49.2967 130.706C55.0235 132.241 60.8347 133 66.609 133C78.1268 133 89.4947 129.979 99.7367 124.066C115.113 115.188 126.112 100.854 130.707 83.7041C135.303 66.5536 132.944 48.6406 124.066 33.2641ZM124.02 81.9125C119.904 97.2766 110.05 110.118 96.2748 118.071C82.4999 126.024 66.4521 128.137 51.088 124.02C35.7237 119.904 22.8824 110.05 14.9292 96.2749C6.9762 82.5 4.86353 66.452 8.98055 51.0876C13.0976 35.7235 22.951 22.8825 36.7261 14.929C45.9023 9.63111 56.0849 6.92513 66.4041 6.92513C71.576 6.92513 76.784 7.6052 81.9126 8.97962C97.2767 13.0964 110.118 22.9498 118.071 36.7252C126.024 50.5003 128.137 66.5481 124.02 81.9125Z" fill="white"/>
<path d="M98.3933 60.2272L55.6551 35.5521C53.387 34.2426 50.6792 34.2431 48.4112 35.5518C46.1432 36.861 44.7891 39.2065 44.7891 41.8252V91.1754C44.7891 93.7941 46.143 96.1393 48.4112 97.4488C49.5451 98.1036 50.7886 98.4307 52.0326 98.4307C53.2769 98.4307 54.5209 98.1029 55.6548 97.4485L98.3935 72.7736C100.661 71.4639 102.015 69.1187 102.015 66.5C102.015 63.8816 100.661 61.5364 98.3933 60.2272ZM94.9316 66.779L52.1932 91.4539C52.1409 91.4843 52.0321 91.5469 51.8721 91.4539C51.7116 91.3612 51.7116 91.236 51.7116 91.1757V41.8254C51.7116 41.7652 51.7116 41.6399 51.8721 41.5472C51.935 41.5108 51.9898 41.4984 52.0365 41.4984C52.1093 41.4984 52.1617 41.5288 52.1937 41.5472L94.9319 66.2223C94.9841 66.2525 95.0924 66.3151 95.0924 66.5006C95.0924 66.686 94.9836 66.7489 94.9316 66.779Z" fill="white"/>
<path d="M107.363 34.9229C99.1308 24.2886 86.7564 17.144 73.4117 15.3207C71.5198 15.0617 69.7726 16.3873 69.5136 18.2818C69.2552 20.1757 70.5808 21.9208 72.4747 22.1798C84.0374 23.7595 94.7582 29.9492 101.889 39.1605C102.571 40.0416 103.594 40.5029 104.628 40.5029C105.368 40.5029 106.114 40.2668 106.744 39.7784C108.256 38.6085 108.533 36.4345 107.363 34.9229Z" fill="white"/>
</g>
<defs>
<clipPath id="clip0">
<rect width="133" height="133" fill="white"/>
</clipPath>
</defs>
</svg>
