<svg width="375" height="667" viewBox="0 0 375 667" fill="none" xmlns="http://www.w3.org/2000/svg">
<path fill-rule="evenodd" clip-rule="evenodd" d="M79.618 535.545C66.103 482.939 33.4064 434.432 38.2896 380.053C43.1073 326.403 84.7608 284.08 106.659 234.414C129.979 181.522 136.326 122.056 172.21 76.3182C212.149 25.4114 262.817 -19.5232 323.738 -42.2776C387.438 -66.0701 471.276 -95.8164 524.14 -55.1311C586.312 -7.28231 546.77 102.98 593.67 165.468C625.726 208.179 712.804 184.911 739.132 231.317C764.775 276.514 714.03 332.938 718.156 384.88C722.885 444.424 771.028 495.532 764.855 555.148C758.156 619.834 739.04 696.765 682.321 730.919C623.931 766.08 548.562 714.884 481.391 725.838C418.692 736.063 368.389 793.219 305.045 792.445C239.495 791.645 168.478 769.895 126.009 721.497C83.2919 672.816 95.7148 598.201 79.618 535.545Z" fill="url(#paint0_linear)"/>
<defs>
<linearGradient id="paint0_linear" x1="750.19" y1="1170.15" x2="1201.45" y2="122.346" gradientUnits="userSpaceOnUse">
<stop stop-color="#59C45D"/>
<stop offset="1" stop-color="#3C8B3D"/>
</linearGradient>
</defs>
</svg>
