<svg width="22" height="22" viewBox="0 0 22 22" fill="none" xmlns="http://www.w3.org/2000/svg">
<g clip-path="url(#clip0)">
<path d="M10.8576 6.01498C8.83558 6.01498 7.90698 7.21337 7.90698 8.02225C7.90698 8.6065 8.40121 8.87613 8.80563 8.87613C9.61439 8.87613 9.2849 7.72268 10.8126 7.72268C11.5615 7.72268 12.1606 8.05229 12.1606 8.74133C12.1606 9.55026 11.3219 10.0146 10.8276 10.434C10.3933 10.8086 9.82412 11.4227 9.82412 12.711C9.82412 13.4899 10.0338 13.7146 10.6479 13.7146C11.3817 13.7146 11.5315 13.3851 11.5315 13.1005C11.5315 12.3215 11.5465 11.8721 12.3703 11.228C12.7747 10.9134 14.0478 9.89474 14.0478 8.48666C14.0478 7.07858 12.7747 6.01502 10.8576 6.01498Z" fill="#27364A"/>
<path d="M10.6632 14.7482C10.0342 14.7482 9.5249 15.2725 9.5249 15.9017C9.5249 16.5158 10.0192 17.0551 10.6632 17.0551C11.3072 17.0551 11.8165 16.5159 11.8165 15.9017C11.8165 15.2725 11.2922 14.7482 10.6632 14.7482Z" fill="#27364A"/>
<path d="M19.2379 4.20212L12.7707 0.472393C11.6786 -0.157485 10.3216 -0.157485 9.22949 0.472393L2.76232 4.20212C1.66812 4.83315 0.988403 6.00989 0.988403 7.27317V14.7268C0.988403 15.9901 1.66812 17.1668 2.76232 17.7979L9.22949 21.5276C10.3214 22.1574 11.6784 22.1576 12.7707 21.5276L19.2379 17.7979C20.3321 17.1668 21.0118 15.9901 21.0118 14.7268V7.27317C21.0118 6.00989 20.3321 4.83315 19.2379 4.20212ZM19.2931 14.7268C19.2931 15.3775 18.9429 15.9836 18.3793 16.3087L11.9121 20.0384C11.3495 20.3628 10.6506 20.3628 10.088 20.0384L3.62092 16.3087C3.05726 15.9837 2.70715 15.3775 2.70715 14.7268V7.27317C2.70715 6.62246 3.05726 6.01634 3.62092 5.69128L10.0881 1.96156C10.6508 1.6371 11.3496 1.63714 11.9122 1.96156L18.3793 5.69128C18.9429 6.0163 19.2931 6.62246 19.2931 7.27317V14.7268Z" fill="#27364A"/>
</g>
<defs>
<clipPath id="clip0">
<rect width="22" height="22" fill="white"/>
</clipPath>
</defs>
</svg>
