<svg width="71" height="71" viewBox="0 0 71 71" fill="none" xmlns="http://www.w3.org/2000/svg">
<g clip-path="url(#clip0)">
<path d="M70.1753 9.18481H43.5504C42.324 9.18481 41.3315 10.1771 41.3315 11.4036V38.0286C41.3315 39.2549 42.3238 40.2474 43.5504 40.2474H67.7324C66.6121 50.2044 58.2396 57.9974 47.9879 57.9974H45.769V62.4348H47.9879C61.4455 62.4348 72.3942 51.4862 72.3942 38.0286V11.4036C72.3942 10.1773 71.4019 9.18481 70.1753 9.18481ZM45.7692 13.6223H67.9567V35.8098H45.7692V13.6223Z" fill="#47A348"/>
<path d="M28.8438 9.18481H2.21882C0.992305 9.18481 0 10.1773 0 11.4036V38.0286C0 39.2549 0.992305 40.2474 2.21882 40.2474H26.4008C25.2805 50.2044 16.9081 57.9974 6.65631 57.9974H4.43749V62.4348H6.65631C20.1139 62.4348 31.0626 51.4862 31.0626 38.0286V11.4036C31.0624 10.1773 30.0701 9.18481 28.8438 9.18481ZM4.43749 13.6223H26.6249V35.8098H4.43749V13.6223Z" fill="#47A348"/>
</g>
<defs>
<clipPath id="clip0">
<rect width="71" height="71" fill="white"/>
</clipPath>
</defs>
</svg>
