<svg width="145" height="136" viewBox="0 0 145 136" fill="none" xmlns="http://www.w3.org/2000/svg">
<path fill-rule="evenodd" clip-rule="evenodd" d="M81.3845 124.681C70.0085 126.261 60.5554 117.248 49.8419 113.13C37.8393 108.517 19.8253 110.992 14.9114 99.1338C9.85966 86.9428 24.4756 75.5583 29.157 63.2124C32.461 54.4991 33.4001 45.4575 38.2774 37.5121C44.3881 27.5575 49.1798 13.4235 60.7547 11.7381C72.3924 10.0435 79.0435 25.4578 89.8825 29.998C101.696 34.9463 117.507 29.8166 126.24 39.1678C135.299 48.8692 137.32 64.3684 133.97 77.2086C130.763 89.5023 118.535 96.3732 109.091 104.899C100.459 112.692 92.9117 123.079 81.3845 124.681Z" fill="#F5F6F8"/>
<path fill-rule="evenodd" clip-rule="evenodd" d="M81.3845 124.681C70.0085 126.261 60.5554 117.248 49.8419 113.13C37.8393 108.517 19.8253 110.992 14.9114 99.1338C9.85966 86.9428 24.4756 75.5583 29.157 63.2124C32.461 54.4991 33.4001 45.4575 38.2774 37.5121C44.3881 27.5575 49.1798 13.4235 60.7547 11.7381C72.3924 10.0435 79.0435 25.4578 89.8825 29.998C101.696 34.9463 117.507 29.8166 126.24 39.1678C135.299 48.8692 137.32 64.3684 133.97 77.2086C130.763 89.5023 118.535 96.3732 109.091 104.899C100.459 112.692 92.9117 123.079 81.3845 124.681Z" fill="url(#paint0_linear)"/>
<g clip-path="url(#clip0)">
<path d="M72.9998 120.528C56.4577 120.528 43 107.249 43 90.9279C43 74.6064 56.4577 61.3281 72.9998 61.3281C73.6623 61.3281 74.2001 61.8582 74.2001 62.5118V89.4564L87.7632 115.386C88.0632 115.959 87.8423 116.663 87.2689 116.97C82.9144 119.298 77.981 120.528 72.9998 120.528ZM71.7996 63.721C57.1356 64.3438 45.4 76.3093 45.4 90.9279C45.4 105.943 57.7816 118.16 72.9998 118.16C77.1878 118.16 81.3401 117.215 85.0793 115.419L71.933 90.2862C71.8452 90.1193 71.7996 89.9334 71.7996 89.7442V63.721Z" fill="#47A348"/>
<path d="M91.1426 70.0424C90.8669 70.0424 90.5884 69.9486 90.3626 69.7567C89.86 69.3318 89.8012 68.5839 90.233 68.0874L93.6893 64.1092C93.9172 63.8463 94.2496 63.6962 94.6001 63.6962H100.6C101.262 63.6962 101.8 64.2262 101.8 64.8799C101.8 65.5335 101.262 66.0641 100.6 66.0641H95.1516L92.0545 69.6288C91.8172 69.9025 91.481 70.0424 91.1426 70.0424Z" fill="#47A348"/>
<path d="M104.2 69.6158C101.553 69.6158 99.4004 67.4917 99.4004 64.8798C99.4004 62.268 101.553 60.1439 104.2 60.1439C106.847 60.1439 109 62.268 109 64.8798C109 67.4917 106.847 69.6158 104.2 69.6158ZM104.2 62.5119C102.876 62.5119 101.8 63.5742 101.8 64.8798C101.8 66.186 102.876 67.2478 104.2 67.2478C105.524 67.2478 106.6 66.186 106.6 64.8798C106.6 63.5742 105.524 62.5119 104.2 62.5119Z" fill="#47A348"/>
<path d="M51.3996 120.528H45.4C44.7375 120.528 44.1997 119.998 44.1997 119.344C44.1997 118.69 44.7375 118.16 45.4 118.16H50.8481L55.186 113.166C55.6167 112.671 56.3764 112.613 56.8779 113.038C57.3806 113.463 57.4393 114.211 57.0076 114.707L52.3093 120.115C52.0824 120.378 51.7501 120.528 51.3996 120.528Z" fill="#47A348"/>
<path d="M41.7999 124.08C39.1528 124.08 37 121.956 37 119.344C37 116.732 39.1528 114.608 41.7999 114.608C44.4471 114.608 46.5999 116.732 46.5999 119.344C46.5999 121.956 44.4471 124.08 41.7999 124.08ZM41.7999 116.976C40.4766 116.976 39.4 118.038 39.4 119.344C39.4 120.65 40.4766 121.712 41.7999 121.712C43.1238 121.712 44.1999 120.65 44.1999 119.344C44.1999 118.038 43.1238 116.976 41.7999 116.976Z" fill="#47A348"/>
<path d="M58.6 67.2479C58.2617 67.2479 57.9255 67.1069 57.6876 66.8349L50.8481 58.9602H45.4C44.7375 58.9602 44.1997 58.4296 44.1997 57.776C44.1997 57.1224 44.7375 56.5923 45.4 56.5923H51.3996C51.7501 56.5923 52.0824 56.7424 52.3104 57.0053L59.5108 65.2934C59.9415 65.7893 59.8838 66.5378 59.3812 66.9628C59.1543 67.1546 58.8769 67.2479 58.6 67.2479Z" fill="#47A348"/>
<path d="M41.7999 62.5119C39.1528 62.5119 37 60.3878 37 57.776C37 55.1641 39.1528 53.04 41.7999 53.04C44.4471 53.04 46.5999 55.1641 46.5999 57.776C46.5999 60.3878 44.4471 62.5119 41.7999 62.5119ZM41.7999 55.408C40.4766 55.408 39.4 56.4703 39.4 57.776C39.4 59.0822 40.4766 60.1439 41.7999 60.1439C43.1238 60.1439 44.1999 59.0822 44.1999 57.776C44.1999 56.4703 43.1238 55.408 41.7999 55.408Z" fill="#47A348"/>
<path d="M53.8011 106.32C53.4336 106.32 53.0711 106.154 52.836 105.841C49.6285 101.576 47.7938 96.1387 47.7998 90.9269C47.7998 90.2732 48.3371 89.7443 48.9995 89.7443H49.0012C49.6631 89.7443 50.2009 90.2754 50.1998 90.9291C50.1948 95.6438 51.8582 100.565 54.7635 104.43C55.1579 104.956 55.0464 105.697 54.5136 106.087C54.2999 106.244 54.0494 106.32 53.8011 106.32Z" fill="#47A348"/>
<path d="M72.9966 115.792C67.2799 115.792 61.3126 113.532 56.6226 109.589C56.1189 109.165 56.0579 108.418 56.4874 107.919C56.917 107.42 57.6751 107.362 58.1793 107.786C62.4404 111.37 67.8418 113.424 72.9966 113.424H73.0005C73.6629 113.424 74.2007 113.953 74.2007 114.608C74.2007 115.262 73.6629 115.792 73.0005 115.792C72.9994 115.792 72.9983 115.792 72.9966 115.792Z" fill="#47A348"/>
<path d="M100.592 100.262C100.461 100.262 100.329 100.24 100.203 100.198L72.6111 90.864C72.125 90.6992 71.7998 90.2494 71.7998 89.7442V62.5118C71.7998 61.8582 72.3376 61.3281 73.0001 61.3281C89.5422 61.3281 103 74.6064 103 90.9279C103 93.8038 102.576 96.6595 101.741 99.4161C101.647 99.725 101.43 99.983 101.141 100.13C100.97 100.218 100.781 100.262 100.592 100.262ZM74.2003 88.8987L99.7732 97.55C100.323 95.3847 100.6 93.162 100.6 90.9279C100.6 76.3093 88.8643 64.3438 74.2003 63.721V88.8987Z" fill="#47A348"/>
<path d="M86.6979 117.113C86.5793 117.113 86.4606 117.095 86.3453 117.061C86.0371 116.968 85.78 116.756 85.6328 116.473L71.9334 90.2863C71.7087 89.8565 71.7714 89.3357 72.0916 88.9698C72.4124 88.604 72.9244 88.4641 73.3891 88.624L100.981 97.9577C101.59 98.1636 101.926 98.8075 101.742 99.4162C99.4855 106.863 94.2104 113.26 87.2692 116.97C87.0918 117.066 86.8962 117.113 86.6979 117.113ZM75.4364 91.8196L87.189 114.288C92.7195 111.005 96.98 105.826 99.0883 99.82L75.4364 91.8196Z" fill="#47A348"/>
</g>
<defs>
<linearGradient id="paint0_linear" x1="72.9209" y1="128.242" x2="114.421" y2="35.2417" gradientUnits="userSpaceOnUse">
<stop stop-color="white"/>
<stop offset="1" stop-color="white" stop-opacity="0"/>
</linearGradient>
<clipPath id="clip0">
<rect x="37" y="53.04" width="72" height="71.04" fill="white"/>
</clipPath>
</defs>
</svg>
