<svg width="145" height="136" viewBox="0 0 145 136" fill="none" xmlns="http://www.w3.org/2000/svg">
<path fill-rule="evenodd" clip-rule="evenodd" d="M81.3845 124.681C70.0085 126.261 60.5554 117.248 49.8419 113.13C37.8393 108.517 19.8253 110.992 14.9114 99.1338C9.85966 86.9428 24.4756 75.5583 29.157 63.2124C32.461 54.4991 33.4001 45.4575 38.2774 37.5121C44.3881 27.5575 49.1798 13.4235 60.7547 11.7381C72.3924 10.0435 79.0435 25.4578 89.8825 29.998C101.696 34.9463 117.507 29.8166 126.24 39.1678C135.299 48.8692 137.32 64.3684 133.97 77.2086C130.763 89.5023 118.535 96.3732 109.091 104.899C100.459 112.692 92.9117 123.079 81.3845 124.681Z" fill="#F5F6F8"/>
<path fill-rule="evenodd" clip-rule="evenodd" d="M81.3845 124.681C70.0085 126.261 60.5554 117.248 49.8419 113.13C37.8393 108.517 19.8253 110.992 14.9114 99.1338C9.85966 86.9428 24.4756 75.5583 29.157 63.2124C32.461 54.4991 33.4001 45.4575 38.2774 37.5121C44.3881 27.5575 49.1798 13.4235 60.7547 11.7381C72.3924 10.0435 79.0435 25.4578 89.8825 29.998C101.696 34.9463 117.507 29.8166 126.24 39.1678C135.299 48.8692 137.32 64.3684 133.97 77.2086C130.763 89.5023 118.535 96.3732 109.091 104.899C100.459 112.692 92.9117 123.079 81.3845 124.681Z" fill="url(#paint0_linear)"/>
<g clip-path="url(#clip0)">
<path d="M104.199 67.1417C101.552 67.1417 99.3994 69.2946 99.3994 71.9417C99.3994 74.5888 101.552 76.7416 104.199 76.7416C106.846 76.7416 108.999 74.5889 108.999 71.9417C108.999 69.2946 106.846 67.1417 104.199 67.1417ZM104.199 74.3417C102.876 74.3417 101.799 73.2654 101.799 71.9417C101.799 70.6181 102.876 69.5416 104.199 69.5416C105.523 69.5416 106.599 70.618 106.599 71.9417C106.599 73.2654 105.523 74.3417 104.199 74.3417Z" fill="#47A348"/>
<path d="M41.8 106.742C39.1528 106.742 37 108.895 37 111.542C37 114.189 39.1528 116.342 41.8 116.342C44.4472 116.342 46.5999 114.189 46.5999 111.542C46.5999 108.895 44.4472 106.742 41.8 106.742ZM41.8 113.942C40.4764 113.942 39.3999 112.865 39.3999 111.542C39.3999 110.218 40.4762 109.142 41.8 109.142C43.1235 109.142 44.2 110.218 44.2 111.542C44.2 112.865 43.1237 113.942 41.8 113.942Z" fill="#47A348"/>
<path d="M101.873 68.6585L91.5203 63.6605C90.9226 63.3713 90.2063 63.6233 89.9183 64.2198C89.6303 64.8162 89.881 65.5338 90.4775 65.8218L100.83 70.8198C100.998 70.9013 101.176 70.9397 101.351 70.9397C101.797 70.9397 102.225 70.6901 102.432 70.2605C102.72 69.6641 102.469 68.9465 101.873 68.6585Z" fill="#47A348"/>
<path d="M91.0001 115.142C88.3529 115.142 86.2002 117.294 86.2002 119.942C86.2002 122.589 88.3529 124.742 91.0001 124.742C93.6474 124.742 95.8001 122.589 95.8001 119.942C95.8001 117.295 93.6474 115.142 91.0001 115.142ZM91.0001 122.342C89.6766 122.342 88.6001 121.265 88.6001 119.942C88.6001 118.618 89.6766 117.542 91.0001 117.542C92.3237 117.542 93.4002 118.618 93.4002 119.942C93.4002 121.265 92.3237 122.342 91.0001 122.342Z" fill="#47A348"/>
<path d="M88.6735 116.659L78.3211 111.661C77.7234 111.371 77.0071 111.622 76.7191 112.22C76.4311 112.816 76.6818 113.534 77.2783 113.822L87.6307 118.82C87.7988 118.901 87.9764 118.94 88.1514 118.94C88.5978 118.94 89.0263 118.69 89.2327 118.261C89.5206 117.664 89.2698 116.947 88.6735 116.659Z" fill="#47A348"/>
<path d="M73.0001 85.1417C70.3529 85.1417 68.2002 87.2946 68.2002 89.9417C68.2002 92.5889 70.353 94.7416 73.0001 94.7416C75.6474 94.7416 77.8001 92.5888 77.8001 89.9417C77.8001 87.2946 75.6474 85.1417 73.0001 85.1417ZM73.0001 92.3417C71.6766 92.3417 70.6001 91.2654 70.6001 89.9417C70.6001 88.6181 71.6764 87.5416 73.0001 87.5416C74.3237 87.5416 75.4002 88.618 75.4002 89.9417C75.4002 91.2654 74.3237 92.3417 73.0001 92.3417Z" fill="#47A348"/>
<path d="M70.8907 86.7929L62.9383 80.5949C62.415 80.1904 61.6616 80.2804 61.2535 80.8037C60.8467 81.327 60.939 82.0804 61.4623 82.4885L69.4147 88.6866C69.6343 88.857 69.8935 88.9398 70.1515 88.9398C70.5091 88.9398 70.862 88.7815 71.0995 88.4779C71.5063 87.9545 71.4139 87.2009 70.8907 86.7929Z" fill="#47A348"/>
<path d="M94.5995 83.9418C87.3214 83.9418 81.3994 89.8638 81.3994 97.1418C81.3994 104.42 87.3214 110.342 94.5995 110.342C101.878 110.342 107.8 104.42 107.8 97.1418C107.8 89.8638 101.878 83.9418 94.5995 83.9418ZM94.5995 107.942C88.6439 107.942 83.7995 103.097 83.7995 97.1417C83.7995 91.1861 88.6439 86.3417 94.5995 86.3417C100.555 86.3417 105.399 91.1861 105.399 97.1417C105.399 103.097 100.555 107.942 94.5995 107.942Z" fill="#47A348"/>
<path d="M94.5998 88.7417C91.9525 88.7417 89.7998 90.8945 89.7998 93.5417C89.7998 96.1889 91.9526 98.3416 94.5998 98.3416C97.247 98.3416 99.3997 96.1888 99.3997 93.5417C99.3997 90.8945 97.247 88.7417 94.5998 88.7417ZM94.5998 95.9417C93.2762 95.9417 92.1997 94.8654 92.1997 93.5417C92.1997 92.2181 93.2761 91.1416 94.5998 91.1416C95.9233 91.1416 96.9998 92.2179 96.9998 93.5417C96.9998 94.8654 95.9233 95.9417 94.5998 95.9417Z" fill="#47A348"/>
<path d="M98.0806 100.742H91.1182C89.0675 100.742 87.3994 102.365 87.3994 104.36V107.523C87.3994 107.951 87.6274 108.347 87.9982 108.562C90.0094 109.726 92.2918 110.342 94.5994 110.342C96.9071 110.342 99.1894 109.726 101.201 108.562C101.571 108.349 101.799 107.951 101.799 107.524V104.361C101.799 102.365 100.131 100.742 98.0806 100.742ZM99.3994 106.808C96.4126 108.296 92.7862 108.296 89.7993 106.808V104.361C89.7993 103.689 90.3909 103.142 91.1181 103.142H98.0804C98.8076 103.142 99.3992 103.689 99.3992 104.361V106.808H99.3994Z" fill="#47A348"/>
<path d="M65.8006 98.3418C58.5226 98.3418 52.6006 104.264 52.6006 111.542C52.6006 118.82 58.5226 124.742 65.8006 124.742C73.0787 124.742 79.0007 118.82 79.0007 111.542C79.0007 104.264 73.0787 98.3418 65.8006 98.3418ZM65.8006 122.342C59.845 122.342 55.0006 117.497 55.0006 111.542C55.0006 105.586 59.845 100.742 65.8006 100.742C71.7562 100.742 76.6006 105.586 76.6006 111.542C76.6006 117.497 71.7562 122.342 65.8006 122.342Z" fill="#47A348"/>
<path d="M65.8 103.142C63.1527 103.142 61 105.295 61 107.942C61 110.589 63.1528 112.742 65.8 112.742C68.4471 112.742 70.5999 110.589 70.5999 107.942C70.5999 105.295 68.4472 103.142 65.8 103.142ZM65.8 110.342C64.4764 110.342 63.3999 109.265 63.3999 107.942C63.3999 106.618 64.4762 105.542 65.8 105.542C67.1235 105.542 68.2 106.618 68.2 107.942C68.2 109.265 67.1235 110.342 65.8 110.342Z" fill="#47A348"/>
<path d="M69.2818 115.142H62.3194C60.2687 115.142 58.6006 116.765 58.6006 118.76V121.923C58.6006 122.351 58.8285 122.747 59.1994 122.962C61.2106 124.126 63.4929 124.742 65.8006 124.742C68.1082 124.742 70.3906 124.126 72.4018 122.962C72.7726 122.748 73.0006 122.351 73.0006 121.924V118.761C73.0006 116.765 71.3326 115.142 69.2818 115.142ZM70.6005 121.208C67.6137 122.696 63.9874 122.696 61.0005 121.208V118.761C61.0005 118.089 61.5921 117.542 62.3193 117.542H69.2816C70.0088 117.542 70.6004 118.089 70.6004 118.761V121.208H70.6005Z" fill="#47A348"/>
<path d="M50.2 68.3417C42.922 68.3417 37 74.2637 37 81.5417C37 88.8198 42.922 94.7418 50.2 94.7418C57.4781 94.7418 63.4001 88.8198 63.4001 81.5417C63.4 74.2637 57.478 68.3417 50.2 68.3417ZM50.2 92.3417C44.2444 92.3417 39.4 87.4973 39.4 81.5417C39.4 75.5861 44.2444 70.7417 50.2 70.7417C56.1557 70.7417 61 75.5861 61 81.5417C61 87.4973 56.1557 92.3417 50.2 92.3417Z" fill="#47A348"/>
<path d="M50.1994 73.1417C47.5521 73.1417 45.3994 75.2946 45.3994 77.9417C45.3994 80.5888 47.5522 82.7416 50.1994 82.7416C52.8466 82.7416 54.9993 80.5888 54.9993 77.9417C54.9993 75.2946 52.8465 73.1417 50.1994 73.1417ZM50.1994 80.3417C48.8758 80.3417 47.7993 79.2654 47.7993 77.9417C47.7993 76.618 48.8757 75.5416 50.1994 75.5416C51.5229 75.5416 52.5994 76.618 52.5994 77.9417C52.5994 79.2654 51.5229 80.3417 50.1994 80.3417Z" fill="#47A348"/>
<path d="M53.6812 85.1417H46.7188C44.6681 85.1417 43 86.7654 43 88.7597V91.9229C43 92.3513 43.228 92.7473 43.5988 92.9622C45.61 94.1261 47.8923 94.7418 50.2 94.7418C52.5077 94.7418 54.79 94.1261 56.8012 92.9622C57.172 92.7485 57.4 92.3513 57.4 91.9242V88.761C57.4 86.7654 55.7319 85.1417 53.6812 85.1417ZM55 91.2077C52.0132 92.6957 48.3868 92.6957 45.3999 91.2077V88.761C45.3999 88.0889 45.9915 87.5418 46.7187 87.5418H53.681C54.4082 87.5418 54.9998 88.0889 54.9998 88.761V91.2077H55Z" fill="#47A348"/>
<path d="M78.9998 52.7417C71.7218 52.7417 65.7998 58.6637 65.7998 65.9417C65.7998 73.2198 71.7218 79.1418 78.9998 79.1418C86.2779 79.1418 92.1999 73.2198 92.1999 65.9417C92.1997 58.6637 86.2778 52.7417 78.9998 52.7417ZM78.9998 76.7417C73.0442 76.7417 68.1999 71.8974 68.1999 65.9417C68.1999 59.9861 73.0442 55.1417 78.9998 55.1417C84.9555 55.1417 89.7998 59.9861 89.7998 65.9417C89.7998 71.8974 84.9555 76.7417 78.9998 76.7417Z" fill="#47A348"/>
<path d="M79.0002 57.5416C76.3529 57.5416 74.2002 59.6945 74.2002 62.3416C74.2002 64.9887 76.353 67.1415 79.0002 67.1415C81.6473 67.1415 83.8001 64.9888 83.8001 62.3417C83.8001 59.6946 81.6473 57.5416 79.0002 57.5416ZM79.0002 64.7416C77.6766 64.7416 76.6001 63.6653 76.6001 62.3416C76.6001 61.018 77.6764 59.9415 79.0002 59.9415C80.3239 59.9415 81.4002 61.0179 81.4002 62.3416C81.4001 63.6653 80.3237 64.7416 79.0002 64.7416Z" fill="#47A348"/>
<path d="M82.481 69.5417H75.5186C73.4679 69.5417 71.7998 71.1654 71.7998 73.1597V76.323C71.7998 76.7513 72.0278 77.1473 72.3986 77.3622C74.4098 78.5261 76.6921 79.1418 78.9998 79.1418C81.3075 79.1418 83.5898 78.5261 85.601 77.3622C85.9718 77.1486 86.1998 76.7513 86.1998 76.3242V73.161C86.1998 71.1653 84.5317 69.5417 82.481 69.5417ZM83.7997 75.6077C80.813 77.0957 77.1866 77.0957 74.1997 75.6077V73.161C74.1997 72.489 74.7913 71.9418 75.5185 71.9418H82.4808C83.208 71.9418 83.7996 72.489 83.7996 73.161V75.6077H83.7997Z" fill="#47A348"/>
<path d="M67.9136 65.1604C67.4828 64.6588 66.7256 64.5988 66.2215 65.0296L57.9055 72.1457C57.4015 72.5764 57.3428 73.3337 57.7735 73.8377C58.0112 74.1149 58.3471 74.2577 58.6855 74.2577C58.9615 74.2577 59.2387 74.163 59.4655 73.9685L67.7815 66.8524C68.2856 66.4217 68.3444 65.6644 67.9136 65.1604Z" fill="#47A348"/>
<path d="M94.36 84.423L87.16 74.8229C86.7627 74.2914 86.0104 74.1869 85.4799 74.5829C84.9495 74.9802 84.8428 75.7325 85.2399 76.2617L92.4399 85.8617C92.6763 86.1762 93.0363 86.3417 93.4011 86.3417C93.6507 86.3417 93.904 86.2636 94.12 86.1016C94.6504 85.7045 94.7573 84.9522 94.36 84.423Z" fill="#47A348"/>
<path d="M84.5116 101.11C84.1143 100.58 83.362 100.473 82.8316 100.87L76.1284 105.897C75.5979 106.294 75.4912 107.046 75.8883 107.576C76.1247 107.89 76.4847 108.056 76.8495 108.056C77.1002 108.056 77.3522 107.976 77.5684 107.815L84.2716 102.789C84.802 102.392 84.9089 101.639 84.5116 101.11Z" fill="#47A348"/>
<path d="M53.8002 110.342H45.4001C44.7378 110.342 44.2002 110.878 44.2002 111.542C44.2002 112.205 44.7378 112.742 45.4001 112.742H53.8001C54.4624 112.742 55.0001 112.205 55.0001 111.542C55.0001 110.878 54.4626 110.342 53.8002 110.342Z" fill="#47A348"/>
<path d="M50.1995 52.7417C47.5522 52.7417 45.3994 54.8945 45.3994 57.5417C45.3994 60.1889 47.5522 62.3416 50.1994 62.3416C52.8466 62.3416 54.9993 60.1888 54.9993 57.5417C54.9995 54.8945 52.8466 52.7417 50.1995 52.7417ZM50.1995 59.9417C48.8759 59.9417 47.7995 58.8654 47.7995 57.5417C47.7995 56.2181 48.8758 55.1416 50.1995 55.1416C51.5231 55.1416 52.5996 56.2179 52.5996 57.5417C52.5994 58.8654 51.5231 59.9417 50.1995 59.9417Z" fill="#47A348"/>
<path d="M50.2 59.9418C49.5376 59.9418 49 60.4781 49 61.1417V69.5417C49 70.2053 49.5376 70.7416 50.2 70.7416C50.8623 70.7416 51.3999 70.2053 51.3999 69.5417V61.1417C51.3999 60.4781 50.8623 59.9418 50.2 59.9418Z" fill="#47A348"/>
</g>
<defs>
<linearGradient id="paint0_linear" x1="72.9209" y1="128.242" x2="114.421" y2="35.2417" gradientUnits="userSpaceOnUse">
<stop stop-color="white"/>
<stop offset="1" stop-color="white" stop-opacity="0"/>
</linearGradient>
<clipPath id="clip0">
<rect x="37" y="52.7417" width="72" height="72" fill="white"/>
</clipPath>
</defs>
</svg>
