<svg width="145" height="136" viewBox="0 0 145 136" fill="none" xmlns="http://www.w3.org/2000/svg">
<path fill-rule="evenodd" clip-rule="evenodd" d="M81.3845 124.681C70.0085 126.261 60.5554 117.248 49.8419 113.13C37.8393 108.517 19.8253 110.992 14.9114 99.1338C9.85966 86.9428 24.4756 75.5583 29.157 63.2124C32.461 54.4991 33.4001 45.4575 38.2774 37.5121C44.3881 27.5575 49.1798 13.4235 60.7547 11.7381C72.3924 10.0435 79.0435 25.4578 89.8825 29.998C101.696 34.9463 117.507 29.8166 126.24 39.1678C135.299 48.8692 137.32 64.3684 133.97 77.2086C130.763 89.5023 118.535 96.3732 109.091 104.899C100.459 112.692 92.9117 123.079 81.3845 124.681Z" fill="#F5F6F8"/>
<path fill-rule="evenodd" clip-rule="evenodd" d="M81.3845 124.681C70.0085 126.261 60.5554 117.248 49.8419 113.13C37.8393 108.517 19.8253 110.992 14.9114 99.1338C9.85966 86.9428 24.4756 75.5583 29.157 63.2124C32.461 54.4991 33.4001 45.4575 38.2774 37.5121C44.3881 27.5575 49.1798 13.4235 60.7547 11.7381C72.3924 10.0435 79.0435 25.4578 89.8825 29.998C101.696 34.9463 117.507 29.8166 126.24 39.1678C135.299 48.8692 137.32 64.3684 133.97 77.2086C130.763 89.5023 118.535 96.3732 109.091 104.899C100.459 112.692 92.9117 123.079 81.3845 124.681Z" fill="url(#paint0_linear)"/>
<g clip-path="url(#clip0)">
<path d="M41.8 68.2346C39.1528 68.2346 37 66.1105 37 63.4986C37 60.8867 39.1528 58.7626 41.8 58.7626C44.4472 58.7626 46.6 60.8867 46.6 63.4986C46.6 66.1105 44.4472 68.2346 41.8 68.2346ZM41.8 61.1306C40.4764 61.1306 39.4 62.1926 39.4 63.4986C39.4 64.8045 40.4764 65.8666 41.8 65.8666C43.1236 65.8666 44.2 64.8045 44.2 63.4986C44.2 62.1926 43.1236 61.1306 41.8 61.1306Z" fill="#47A348"/>
<path d="M59.8 63.4986C57.1528 63.4986 55 61.3745 55 58.7626C55 56.1507 57.1528 54.0266 59.8 54.0266C62.4472 54.0266 64.6 56.1507 64.6 58.7626C64.6 61.3745 62.4472 63.4986 59.8 63.4986ZM59.8 56.3946C58.4764 56.3946 57.4 57.4567 57.4 58.7626C57.4 60.0686 58.4764 61.1306 59.8 61.1306C61.1236 61.1306 62.2 60.0686 62.2 58.7626C62.2 57.4567 61.1236 56.3946 59.8 56.3946Z" fill="#47A348"/>
<path d="M104.2 78.8906C101.553 78.8906 99.3999 76.7665 99.3999 74.1546C99.3999 71.5427 101.553 69.4186 104.2 69.4186C106.847 69.4186 109 71.5427 109 74.1546C109 76.7665 106.847 78.8906 104.2 78.8906ZM104.2 71.7866C102.876 71.7866 101.8 72.8486 101.8 74.1546C101.8 75.4605 102.876 76.5226 104.2 76.5226C105.524 76.5226 106.6 75.4605 106.6 74.1546C106.6 72.8486 105.524 71.7866 104.2 71.7866Z" fill="#47A348"/>
<path d="M88.6003 125.067C85.9531 125.067 83.8003 122.943 83.8003 120.331C83.8003 117.719 85.9531 115.595 88.6003 115.595C91.2475 115.595 93.4003 117.719 93.4003 120.331C93.4003 122.943 91.2475 125.067 88.6003 125.067ZM88.6003 117.963C87.2767 117.963 86.2003 119.025 86.2003 120.331C86.2003 121.637 87.2767 122.699 88.6003 122.699C89.9239 122.699 91.0003 121.637 91.0003 120.331C91.0003 119.025 89.9239 117.963 88.6003 117.963Z" fill="#47A348"/>
<path d="M104.2 112.043C101.553 112.043 99.3999 109.918 99.3999 107.307C99.3999 104.695 101.553 102.571 104.2 102.571C106.847 102.571 109 104.695 109 107.307C109 109.918 106.847 112.043 104.2 112.043ZM104.2 104.939C102.876 104.939 101.8 106.001 101.8 107.307C101.8 108.613 102.876 109.675 104.2 109.675C105.524 109.675 106.6 108.613 106.6 107.307C106.6 106.001 105.524 104.939 104.2 104.939Z" fill="#47A348"/>
<path d="M52.6003 121.515C49.9531 121.515 47.8003 119.391 47.8003 116.779C47.8003 114.167 49.9531 112.043 52.6003 112.043C55.2475 112.043 57.4003 114.167 57.4003 116.779C57.4003 119.391 55.2475 121.515 52.6003 121.515ZM52.6003 114.411C51.2767 114.411 50.2003 115.473 50.2003 116.779C50.2003 118.085 51.2767 119.147 52.6003 119.147C53.9239 119.147 55.0003 118.085 55.0003 116.779C55.0003 115.473 53.9239 114.411 52.6003 114.411Z" fill="#47A348"/>
<path d="M41.8 107.307C39.1528 107.307 37 105.183 37 102.571C37 99.9587 39.1528 97.8346 41.8 97.8346C44.4472 97.8346 46.6 99.9587 46.6 102.571C46.6 105.183 44.4472 107.307 41.8 107.307ZM41.8 100.203C40.4764 100.203 39.4 101.265 39.4 102.571C39.4 103.877 40.4764 104.939 41.8 104.939C43.1236 104.939 44.2 103.877 44.2 102.571C44.2 101.265 43.1236 100.203 41.8 100.203Z" fill="#47A348"/>
<path d="M92.1994 63.4986C89.5522 63.4986 87.3994 61.3745 87.3994 58.7626C87.3994 56.1507 89.5522 54.0266 92.1994 54.0266C94.8466 54.0266 96.9994 56.1507 96.9994 58.7626C96.9994 61.3745 94.8466 63.4986 92.1994 63.4986ZM92.1994 56.3946C90.8758 56.3946 89.7994 57.4567 89.7994 58.7626C89.7994 60.0686 90.8758 61.1306 92.1994 61.1306C93.523 61.1306 94.5994 60.0686 94.5994 58.7626C94.5994 57.4567 93.523 56.3946 92.1994 56.3946Z" fill="#47A348"/>
<path d="M72.9994 110.859C61.0894 110.859 51.3994 101.298 51.3994 89.5466C51.3994 77.7954 61.0894 68.2346 72.9994 68.2346C84.9094 68.2346 94.5994 77.7954 94.5994 89.5466C94.5994 101.298 84.9094 110.859 72.9994 110.859ZM72.9994 70.6026C62.4118 70.6026 53.7994 79.1014 53.7994 89.5466C53.7994 99.9919 62.4118 108.491 72.9994 108.491C83.587 108.491 92.1994 99.9919 92.1994 89.5466C92.1994 79.1014 83.587 70.6026 72.9994 70.6026Z" fill="#47A348"/>
<path d="M57.4002 90.7306C56.7378 90.7306 56.2002 90.2013 56.2002 89.5466C56.2002 80.4061 63.7362 72.9706 73.0002 72.9706C73.6626 72.9706 74.2002 73.4998 74.2002 74.1546C74.2002 74.8093 73.6626 75.3386 73.0002 75.3386C65.0598 75.3386 58.6002 81.7121 58.6002 89.5466C58.6002 90.2013 58.0626 90.7306 57.4002 90.7306Z" fill="#47A348"/>
<path d="M72.9998 106.123C72.3374 106.123 71.7998 105.593 71.7998 104.939C71.7998 104.284 72.3374 103.755 72.9998 103.755C80.9402 103.755 87.3998 97.3811 87.3998 89.5465C87.3998 88.8918 87.9374 88.3625 88.5998 88.3625C89.2622 88.3625 89.7998 88.8918 89.7998 89.5465C89.7998 98.687 82.2638 106.123 72.9998 106.123Z" fill="#47A348"/>
<path d="M75.4005 90.7307H68.2005C67.5381 90.7307 67.0005 90.2014 67.0005 89.5467V82.4427C67.0005 81.7879 67.5381 81.2587 68.2005 81.2587H75.4005C78.0477 81.2587 80.2005 83.3828 80.2005 85.9947C80.2005 88.6066 78.0477 90.7307 75.4005 90.7307ZM69.4005 88.3627H75.4005C76.7241 88.3627 77.8005 87.3006 77.8005 85.9947C77.8005 84.6887 76.7241 83.6267 75.4005 83.6267H69.4005V88.3627Z" fill="#47A348"/>
<path d="M75.4005 97.8346H68.2005C67.5381 97.8346 67.0005 97.3053 67.0005 96.6506V89.5465C67.0005 88.8918 67.5381 88.3625 68.2005 88.3625H75.4005C78.0477 88.3625 80.2005 90.4866 80.2005 93.0986C80.2005 95.7105 78.0477 97.8346 75.4005 97.8346ZM69.4005 95.4666H75.4005C76.7241 95.4666 77.8005 94.4045 77.8005 93.0986C77.8005 91.7926 76.7241 90.7305 75.4005 90.7305H69.4005V95.4666Z" fill="#47A348"/>
<path d="M70.5994 83.6267C69.937 83.6267 69.3994 83.0974 69.3994 82.4427V78.8907C69.3994 78.2359 69.937 77.7067 70.5994 77.7067C71.2618 77.7067 71.7994 78.2359 71.7994 78.8907V82.4427C71.7994 83.0974 71.2618 83.6267 70.5994 83.6267Z" fill="#47A348"/>
<path d="M75.4002 83.6267C74.7378 83.6267 74.2002 83.0974 74.2002 82.4427V78.8907C74.2002 78.2359 74.7378 77.7067 75.4002 77.7067C76.0626 77.7067 76.6002 78.2359 76.6002 78.8907V82.4427C76.6002 83.0974 76.0626 83.6267 75.4002 83.6267Z" fill="#47A348"/>
<path d="M70.5994 101.387C69.937 101.387 69.3994 100.857 69.3994 100.203V96.6507C69.3994 95.9959 69.937 95.4667 70.5994 95.4667C71.2618 95.4667 71.7994 95.9959 71.7994 96.6507V100.203C71.7994 100.857 71.2618 101.387 70.5994 101.387Z" fill="#47A348"/>
<path d="M75.4002 101.387C74.7378 101.387 74.2002 100.857 74.2002 100.203V96.6507C74.2002 95.9959 74.7378 95.4667 75.4002 95.4667C76.0626 95.4667 76.6002 95.9959 76.6002 96.6507V100.203C76.6002 100.857 76.0626 101.387 75.4002 101.387Z" fill="#47A348"/>
<path d="M68.2001 83.6267H65.8001C65.1377 83.6267 64.6001 83.0974 64.6001 82.4427C64.6001 81.7879 65.1377 81.2587 65.8001 81.2587H68.2001C68.8625 81.2587 69.4001 81.7879 69.4001 82.4427C69.4001 83.0974 68.8625 83.6267 68.2001 83.6267Z" fill="#47A348"/>
<path d="M68.2001 97.8347H65.8001C65.1377 97.8347 64.6001 97.3054 64.6001 96.6507C64.6001 95.9959 65.1377 95.4667 65.8001 95.4667H68.2001C68.8625 95.4667 69.4001 95.9959 69.4001 96.6507C69.4001 97.3054 68.8625 97.8347 68.2001 97.8347Z" fill="#47A348"/>
<path d="M57.4006 77.7066H51.4006C45.445 77.7066 40.6006 72.9268 40.6006 67.0506C40.6006 66.3958 41.1382 65.8666 41.8006 65.8666C42.463 65.8666 43.0006 66.3958 43.0006 67.0506C43.0006 71.6196 46.7686 75.3386 51.4006 75.3386H57.4006C58.063 75.3386 58.6006 75.8678 58.6006 76.5226C58.6006 77.1773 58.063 77.7066 57.4006 77.7066Z" fill="#47A348"/>
<path d="M65.8 117.963H56.2C55.5376 117.963 55 117.433 55 116.779C55 116.124 55.5376 115.595 56.2 115.595H65.8C69.1084 115.595 71.8 112.939 71.8 109.675C71.8 109.02 72.3376 108.491 73 108.491C73.6624 108.491 74.2 109.02 74.2 109.675C74.2 114.244 70.432 117.963 65.8 117.963Z" fill="#47A348"/>
<path d="M57.3997 103.755H45.3997C44.7373 103.755 44.1997 103.225 44.1997 102.571C44.1997 101.916 44.7373 101.387 45.3997 101.387H57.3997C58.0621 101.387 58.5997 101.916 58.5997 102.571C58.5997 103.225 58.0621 103.755 57.3997 103.755Z" fill="#47A348"/>
<path d="M72.9997 63.4986C72.3373 63.4986 71.7997 62.9694 71.7997 62.3146C71.7997 61.0087 70.7233 59.9466 69.3997 59.9466H63.3997C62.7373 59.9466 62.1997 59.4174 62.1997 58.7626C62.1997 58.1079 62.7373 57.5786 63.3997 57.5786H69.3997C72.0469 57.5786 74.1997 59.7027 74.1997 62.3146C74.1997 62.9694 73.6621 63.4986 72.9997 63.4986Z" fill="#47A348"/>
<path d="M72.9998 70.6026C72.3374 70.6026 71.7998 70.0734 71.7998 69.4186V62.3146C71.7998 61.6599 72.3374 61.1306 72.9998 61.1306C73.6622 61.1306 74.1998 61.6599 74.1998 62.3146V69.4186C74.1998 70.0734 73.6622 70.6026 72.9998 70.6026Z" fill="#47A348"/>
<path d="M82.5999 72.9706C81.9375 72.9706 81.3999 72.4414 81.3999 71.7866C81.3999 69.1747 83.5527 67.0506 86.1999 67.0506H89.7999C90.4623 67.0506 90.9999 66.5202 90.9999 65.8666V62.3146C90.9999 61.6599 91.5375 61.1306 92.1999 61.1306C92.8623 61.1306 93.3999 61.6599 93.3999 62.3146V65.8666C93.3999 67.8249 91.7847 69.4186 89.7999 69.4186H86.1999C84.8763 69.4186 83.7999 70.4807 83.7999 71.7866C83.7999 72.4414 83.2623 72.9706 82.5999 72.9706Z" fill="#47A348"/>
<path d="M93.4002 90.7306C92.7378 90.7306 92.2002 90.2013 92.2002 89.5466C92.2002 86.9347 94.353 84.8106 97.0002 84.8106H101.8C102.463 84.8106 103 84.2801 103 83.6266V77.7066C103 77.0518 103.538 76.5226 104.2 76.5226C104.863 76.5226 105.4 77.0518 105.4 77.7066V83.6266C105.4 85.5849 103.785 87.1786 101.8 87.1786H97.0002C95.6766 87.1786 94.6002 88.2406 94.6002 89.5466C94.6002 90.2013 94.0626 90.7306 93.4002 90.7306Z" fill="#47A348"/>
<path d="M104.199 104.939C103.537 104.939 102.999 104.409 102.999 103.755V100.203C102.999 99.5491 102.462 99.0186 101.799 99.0186H95.7994C93.3046 99.0186 91.6294 97.1159 91.6294 94.2826C91.6294 93.6279 92.167 93.0986 92.8294 93.0986C93.4918 93.0986 94.0294 93.6279 94.0294 94.2826C94.0294 94.9954 94.2022 96.6506 95.7994 96.6506H101.799C103.784 96.6506 105.399 98.2443 105.399 100.203V103.755C105.399 104.409 104.862 104.939 104.199 104.939Z" fill="#47A348"/>
<path d="M88.5999 114.411C87.9375 114.411 87.3999 113.881 87.3999 113.227C87.3999 112.573 86.8623 112.043 86.1999 112.043C83.5527 112.043 81.3999 109.918 81.3999 107.307C81.3999 106.652 81.9375 106.123 82.5999 106.123C83.2623 106.123 83.7999 106.652 83.7999 107.307C83.7999 108.613 84.8763 109.675 86.1999 109.675C88.1847 109.675 89.7999 111.268 89.7999 113.227C89.7999 113.881 89.2623 114.411 88.5999 114.411Z" fill="#47A348"/>
<path d="M88.5994 117.963C87.937 117.963 87.3994 117.433 87.3994 116.779V113.227C87.3994 112.572 87.937 112.043 88.5994 112.043C89.2618 112.043 89.7994 112.572 89.7994 113.227V116.779C89.7994 117.433 89.2618 117.963 88.5994 117.963Z" fill="#47A348"/>
</g>
<defs>
<linearGradient id="paint0_linear" x1="72.9209" y1="128.242" x2="114.421" y2="35.2417" gradientUnits="userSpaceOnUse">
<stop stop-color="white"/>
<stop offset="1" stop-color="white" stop-opacity="0"/>
</linearGradient>
<clipPath id="clip0">
<rect x="37" y="54.0266" width="72" height="71.04" fill="white"/>
</clipPath>
</defs>
</svg>
