<svg width="145" height="136" viewBox="0 0 145 136" fill="none" xmlns="http://www.w3.org/2000/svg">
<path fill-rule="evenodd" clip-rule="evenodd" d="M80.7517 124.572C69.3756 126.152 59.9226 117.139 49.2091 113.021C37.2065 108.408 19.1924 110.883 14.2786 99.0247C9.22685 86.8337 23.8428 75.4492 28.5242 63.1033C31.8282 54.39 32.7673 45.3484 37.6446 37.403C43.7553 27.4484 48.547 13.3144 60.1219 11.629C71.7596 9.93444 78.4106 25.3488 89.2497 29.8889C101.063 34.8373 116.874 29.7075 125.607 39.0587C134.667 48.7601 136.687 64.2593 133.337 77.0995C130.13 89.3932 117.902 96.2642 108.458 104.79C99.8258 112.583 92.2789 122.97 80.7517 124.572Z" fill="url(#paint0_linear)"/>
<g clip-path="url(#clip0)">
<path d="M95.9832 79.2295C95.58 69.6607 87.6684 61.9999 78 61.9999C71.064 61.9999 64.842 65.9251 61.8324 72.0966C60.8532 71.7666 59.838 71.5998 58.8 71.5998C53.5067 71.5998 49.1999 75.9066 49.1999 81.1998C49.1999 82.0207 49.3019 82.8235 49.5059 83.6034C42.0636 83.4259 36 89.4199 36 96.7999C36 104.078 41.922 110 49.2 110H92.4C101.002 110 108 103.001 108 94.3999C108 87.0979 103.004 80.8723 95.9832 79.2295ZM92.4 107.6H49.2C43.2457 107.6 38.4 102.756 38.4 96.7999C38.4 90.8443 43.2457 85.9999 49.2 85.9999C49.8049 85.9999 50.4277 86.0587 51.1044 86.1787C51.5592 86.2615 52.008 86.0767 52.278 85.7118C52.5493 85.3457 52.5901 84.8586 52.3837 84.4531C51.864 83.4294 51.6001 82.3351 51.6001 81.1998C51.6001 77.229 54.8293 73.9998 58.8001 73.9998C59.8838 73.9998 60.936 74.2434 61.9297 74.7259C62.2273 74.8699 62.5729 74.8866 62.8813 74.7655C63.191 74.6467 63.438 74.4055 63.5629 74.0995C65.9749 68.2075 71.6413 64.3999 78.0002 64.3999C86.6018 64.3999 93.6001 71.3983 93.5978 80.0239C93.5966 80.048 93.5893 80.1716 93.5893 80.1944C93.5797 80.7884 94.0057 81.2995 94.5913 81.398C100.97 82.466 105.6 87.9332 105.6 94.4C105.6 101.678 99.678 107.6 92.4 107.6Z" fill="#DB771C"/>
<path d="M92.4001 78.7999C83.7985 78.7999 76.8002 85.7983 76.8002 94.3999C76.8002 95.0635 77.3378 95.5998 78.0001 95.5998C78.6625 95.5998 79.2001 95.0635 79.2001 94.3999C79.2001 87.1218 85.1221 81.1998 92.4001 81.1998C99.6782 81.1998 105.6 87.1218 105.6 94.3999C105.6 95.0635 106.138 95.5998 106.8 95.5998C107.462 95.5998 108 95.0635 108 94.3999C108 85.7983 101.002 78.7999 92.4001 78.7999Z" fill="#DB771C"/>
<path d="M78.0001 61.9999C68.0749 61.9999 60.0001 70.0747 60.0001 79.9999C60.0001 82.2139 60.3974 84.3751 61.1809 86.4259C61.3633 86.9058 61.8194 87.1986 62.3017 87.1986C62.4445 87.1986 62.5897 87.1734 62.7313 87.1206C63.3505 86.8842 63.6602 86.1906 63.4238 85.5714C62.7446 83.7931 62.4002 81.9198 62.4002 79.9999C62.4002 71.3983 69.3985 64.3999 78.0001 64.3999C78.6625 64.3999 79.2001 63.8636 79.2001 63.2C79.2001 62.5364 78.6625 61.9999 78.0001 61.9999Z" fill="#DB771C"/>
<path d="M71.9998 124.4C69.3525 124.4 67.1998 126.553 67.1998 129.2C67.1998 131.847 69.3525 134 71.9998 134C74.647 134 76.7997 131.847 76.7997 129.2C76.7997 126.553 74.647 124.4 71.9998 124.4ZM71.9998 131.6C70.6762 131.6 69.5997 130.523 69.5997 129.2C69.5997 127.876 70.6762 126.8 71.9998 126.8C73.3233 126.8 74.3998 127.876 74.3998 129.2C74.3998 130.524 73.3233 131.6 71.9998 131.6Z" fill="#DB771C"/>
<path d="M49.1999 123.2C46.5526 123.2 44.3999 125.353 44.3999 128C44.3999 130.647 46.5527 132.8 49.1999 132.8C51.8471 132.8 53.9998 130.647 53.9998 128C53.9998 125.353 51.847 123.2 49.1999 123.2ZM49.1999 130.4C47.8763 130.4 46.7998 129.324 46.7998 128C46.7998 126.676 47.8762 125.6 49.1999 125.6C50.5234 125.6 51.5999 126.676 51.5999 128C51.5998 129.324 50.5234 130.4 49.1999 130.4Z" fill="#DB771C"/>
<path d="M72.0001 107.6C71.3378 107.6 70.8002 108.136 70.8002 108.8V125.6C70.8002 126.264 71.3378 126.8 72.0001 126.8C72.6625 126.8 73.2001 126.264 73.2001 125.6V108.8C73.2001 108.136 72.6625 107.6 72.0001 107.6Z" fill="#DB771C"/>
<path d="M40.8 112.4C38.1528 112.4 36 114.553 36 117.2C36 119.847 38.1528 122 40.8 122C43.4472 122 45.5999 119.847 45.5999 117.2C45.6 114.553 43.4472 112.4 40.8 112.4ZM40.8 119.6C39.4764 119.6 38.3999 118.524 38.3999 117.2C38.3999 115.876 39.4762 114.8 40.8 114.8C42.1235 114.8 43.2 115.876 43.2 117.2C43.2 118.524 42.1237 119.6 40.8 119.6Z" fill="#DB771C"/>
<path d="M53.9999 107.6C53.3376 107.6 52.8 108.136 52.8 108.8C52.8 113.431 49.0319 117.2 44.4 117.2C43.7377 117.2 43.2001 117.736 43.2001 118.4C43.2001 119.063 43.7377 119.6 44.4 119.6C50.3544 119.6 55.2 114.755 55.2 108.8C55.1999 108.136 54.6623 107.6 53.9999 107.6Z" fill="#DB771C"/>
<path d="M63.6004 107.6C62.9381 107.6 62.4005 108.136 62.4005 108.8V117.2C62.4005 122.493 58.0937 126.8 52.8004 126.8C52.1381 126.8 51.6005 127.336 51.6005 128C51.6005 128.663 52.1381 129.2 52.8004 129.2C59.4172 129.2 64.8004 123.817 64.8004 117.2V108.8C64.8004 108.136 64.2628 107.6 63.6004 107.6Z" fill="#DB771C"/>
<path d="M94.8 123.2C92.1527 123.2 90 125.353 90 128C90 130.647 92.1528 132.8 94.8 132.8C97.4471 132.8 99.5999 130.647 99.5999 128C99.6001 125.353 97.4472 123.2 94.8 123.2ZM94.8 130.4C93.4764 130.4 92.3999 129.324 92.3999 128C92.3999 126.676 93.4763 125.6 94.8 125.6C96.1237 125.6 97.2 126.676 97.2 128C97.2 129.324 96.1237 130.4 94.8 130.4Z" fill="#DB771C"/>
<path d="M103.2 112.4C100.553 112.4 98.3999 114.553 98.3999 117.2C98.3999 119.847 100.553 122 103.2 122C105.847 122 108 119.847 108 117.2C108 114.553 105.847 112.4 103.2 112.4ZM103.2 119.6C101.876 119.6 100.8 118.524 100.8 117.2C100.8 115.876 101.876 114.8 103.2 114.8C104.524 114.8 105.6 115.876 105.6 117.2C105.6 118.524 104.523 119.6 103.2 119.6Z" fill="#DB771C"/>
<path d="M99.6003 117.2C94.9682 117.2 91.2003 113.431 91.2003 108.8C91.2003 108.136 90.6627 107.6 90.0004 107.6C89.338 107.6 88.8004 108.136 88.8004 108.8C88.8004 114.756 93.6461 119.6 99.6004 119.6C100.263 119.6 100.8 119.064 100.8 118.4C100.8 117.736 100.263 117.2 99.6003 117.2Z" fill="#DB771C"/>
<path d="M91.1999 126.8C85.9066 126.8 81.5999 122.493 81.5999 117.2V108.8C81.5999 108.136 81.0622 107.6 80.3999 107.6C79.7376 107.6 79.2 108.136 79.2 108.8V117.2C79.2 123.817 84.5832 129.2 91.1999 129.2C91.8622 129.2 92.3999 128.663 92.3999 128C92.3999 127.336 91.8624 126.8 91.1999 126.8Z" fill="#DB771C"/>
</g>
<defs>
<linearGradient id="paint0_linear" x1="92.5" y1="119" x2="40.1432" y2="12.1345" gradientUnits="userSpaceOnUse">
<stop stop-color="#101823"/>
<stop offset="0.991797" stop-color="#1F2836"/>
</linearGradient>
<clipPath id="clip0">
<rect x="36" y="61.9999" width="72" height="72" fill="white"/>
</clipPath>
</defs>
</svg>
