<svg width="145" height="136" viewBox="0 0 145 136" fill="none" xmlns="http://www.w3.org/2000/svg">
<path fill-rule="evenodd" clip-rule="evenodd" d="M80.7517 124.572C69.3756 126.152 59.9226 117.139 49.2091 113.021C37.2065 108.408 19.1924 110.883 14.2786 99.0247C9.22685 86.8337 23.8428 75.4492 28.5242 63.1033C31.8282 54.39 32.7673 45.3484 37.6446 37.403C43.7553 27.4484 48.547 13.3144 60.1219 11.629C71.7596 9.93444 78.4106 25.3488 89.2497 29.8889C101.063 34.8373 116.874 29.7075 125.607 39.0587C134.667 48.7601 136.687 64.2593 133.337 77.0995C130.13 89.3932 117.902 96.2642 108.458 104.79C99.8258 112.583 92.2789 122.97 80.7517 124.572Z" fill="url(#paint0_linear)"/>
<g clip-path="url(#clip0)">
<path d="M92.6978 70.0528C86.6809 65.5961 79.5405 63.2413 72.0487 63.2413C65.2174 63.2413 58.4307 65.2089 53.3796 68.5817V63.2413C53.3796 62.556 52.8234 61.9999 52.1382 61.9999C51.4529 61.9999 50.8967 62.556 50.8967 63.2413V71.0508C50.8967 71.5312 51.1747 71.9693 51.6105 72.1742C52.0463 72.3779 52.5614 72.3133 52.9314 72.0053C57.666 68.0726 64.8127 65.7239 72.0487 65.7239C79.0042 65.7239 85.6331 67.9112 91.2193 72.0488C91.4414 72.2126 91.7009 72.2921 91.9578 72.2921C92.3377 72.2921 92.7126 72.1183 92.9558 71.7893C93.3645 71.2382 93.249 70.4611 92.6978 70.0528Z" fill="#DB771C"/>
<path d="M108 78.139C108 77.4537 107.444 76.8975 106.759 76.8975H98.9493C98.4689 76.8975 98.0308 77.1756 97.8259 77.6113C97.621 78.047 97.6868 78.5623 97.9948 78.9322C101.927 83.6668 104.276 90.8122 104.276 98.0495C104.276 105.005 102.089 111.634 97.9513 117.22C97.5429 117.771 97.6584 118.548 98.2095 118.957C98.4317 119.121 98.6911 119.2 98.9481 119.2C99.3279 119.2 99.7028 119.026 99.9473 118.699C104.404 112.682 106.759 105.541 106.759 98.0495C106.759 91.2182 104.792 84.4315 101.418 79.3804H106.759C107.444 79.3804 108 78.8242 108 78.139Z" fill="#DB771C"/>
<path d="M92.3899 123.827C91.9541 123.622 91.439 123.688 91.069 123.996C86.3356 127.928 79.1891 130.277 71.9531 130.277C64.9963 130.277 58.3674 128.09 52.7812 123.952C52.2301 123.543 51.453 123.659 51.0445 124.21C50.636 124.761 50.7516 125.539 51.3027 125.947C57.3196 130.404 64.4601 132.759 71.9518 132.759C78.7831 132.759 85.5698 130.791 90.6209 127.418V132.759C90.6209 133.444 91.177 134 91.8623 134C92.5476 134 93.1038 133.444 93.1038 132.759V124.95C93.1038 124.47 92.8257 124.031 92.3899 123.827Z" fill="#DB771C"/>
<path d="M46.0043 117.069C42.0716 112.334 39.7229 105.189 39.7229 97.9515C39.7229 90.9961 41.9102 84.3671 46.0478 78.7809C46.4562 78.2298 46.3407 77.4527 45.7896 77.0442C45.2385 76.6359 44.4614 76.7513 44.0529 77.3024C39.5963 83.3193 37.2414 90.4597 37.2414 97.9515C37.2414 104.783 39.2091 111.569 42.5818 116.621H37.2414C36.5562 116.621 36 117.177 36 117.862C36 118.547 36.5562 119.103 37.2414 119.103H45.0509C45.5313 119.103 45.9707 118.825 46.1731 118.39C46.378 117.954 46.3122 117.439 46.0043 117.069Z" fill="#DB771C"/>
<path d="M91.8599 94.2769H89.4628C88.919 94.2769 88.4412 93.938 88.2985 93.4526C87.8466 91.9133 87.3972 90.7451 86.9267 89.8824C86.6808 89.433 86.7777 88.8508 87.1612 88.4673L88.8581 86.7704C89.0916 86.5382 89.2218 86.2217 89.2218 85.8927C89.2218 85.5638 89.0914 85.2484 88.8581 85.0151L84.9838 81.1407C84.4983 80.6553 83.7138 80.6553 83.2285 81.1407L81.5316 82.8364C81.148 83.22 80.567 83.3168 80.1165 83.0722C79.2561 82.603 78.0881 82.1537 76.5463 81.6993C76.0608 81.5566 75.7219 81.0786 75.7219 80.5349V78.1378C75.7219 77.4526 75.1658 76.8964 74.4805 76.8964H69.515C68.8298 76.8964 68.2736 77.4526 68.2736 78.1378V80.5324C68.2736 81.0749 67.9347 81.554 67.4493 81.6968C65.9087 82.1511 64.7405 82.6004 63.8803 83.0684C63.4298 83.3142 62.8487 83.2173 62.4652 82.8339L60.7696 81.1382C60.2841 80.6528 59.4996 80.6528 59.0143 81.1382L55.1399 85.0126C54.9065 85.2447 54.7763 85.5613 54.7763 85.8902C54.7763 86.2191 54.9066 86.5345 55.1399 86.7678L56.8369 88.4648C57.2192 88.8484 57.316 89.4306 57.0714 89.8799C56.6009 90.7426 56.1529 91.9108 55.6998 93.4501C55.557 93.9355 55.079 94.2744 54.5354 94.2744H52.1383C51.453 94.2744 50.8969 94.8306 50.8969 95.5158V100.481C50.8969 101.167 51.453 101.723 52.1383 101.723H54.5366C55.0792 101.723 55.5583 102.062 55.701 102.547C56.1541 104.085 56.6023 105.253 57.0727 106.117C57.3172 106.568 57.2216 107.149 56.8381 107.532L55.1412 109.229C54.9078 109.461 54.7775 109.778 54.7775 110.107C54.7775 110.436 54.9079 110.751 55.1412 110.985L59.0156 114.859C59.501 115.344 60.2855 115.344 60.7708 114.859L62.4678 113.163C62.8514 112.78 63.4336 112.684 63.8817 112.927C64.7421 113.397 65.9101 113.846 67.4519 114.3C67.9374 114.443 68.2763 114.921 68.2763 115.465V117.862C68.2763 118.547 68.8324 119.103 69.5177 119.103H74.4832C75.1684 119.103 75.7246 118.547 75.7221 117.862V115.467C75.7221 114.925 76.061 114.446 76.5476 114.303C78.0881 113.849 79.2563 113.4 80.1165 112.931C80.567 112.685 81.1481 112.782 81.5316 113.166L83.2285 114.861C83.7139 115.347 84.4985 115.347 84.9838 114.861L88.8581 110.987C89.0916 110.755 89.2218 110.438 89.2218 110.109C89.2218 109.781 89.0914 109.465 88.8581 109.232L87.1612 107.535C86.7776 107.151 86.6821 106.569 86.9267 106.12C87.3972 105.257 87.8465 104.089 88.2985 102.55C88.4412 102.064 88.9192 101.725 89.4628 101.725H91.8599C92.5452 101.725 93.1014 101.169 93.1014 100.484V95.5184C93.1012 94.8331 92.5452 94.2769 91.8599 94.2769ZM90.6223 99.24H89.4666C87.8305 99.24 86.3719 100.311 85.9201 101.846C85.5179 103.214 85.1355 104.223 84.7495 104.929C83.9824 106.339 84.253 108.131 85.4099 109.288L86.2279 110.107L84.1088 112.226L83.2908 111.408C82.1339 110.251 80.3425 109.979 78.9323 110.748C78.2272 111.131 77.2179 111.515 75.8486 111.918C74.313 112.37 73.2417 113.829 73.2417 115.465V116.621H70.7614V115.466C70.7614 113.83 69.6888 112.371 68.1558 111.921C66.7852 111.516 65.7761 111.134 65.0709 110.749C63.6619 109.981 61.8705 110.252 60.7136 111.409L59.8956 112.227L57.7765 110.108L58.5958 109.289C59.7514 108.132 60.0234 106.341 59.2549 104.93C58.87 104.224 58.4865 103.215 58.0843 101.847C57.6325 100.312 56.1738 99.2411 54.5378 99.2411H53.3821V96.7584H54.5378C56.1739 96.7584 57.6338 95.6871 58.0843 94.1528C58.4865 92.7848 58.8689 91.7768 59.2549 91.0691C60.022 89.6602 59.7502 87.8677 58.5945 86.7119L57.7752 85.8926L59.8943 83.7735L60.7123 84.5915C61.8681 85.7485 63.6607 86.0216 65.0709 85.2519C65.7747 84.8683 66.784 84.4848 68.1532 84.0813C69.6888 83.6295 70.7601 82.1708 70.7601 80.5348V79.379H73.2429V80.5323C73.2429 82.1684 74.3141 83.627 75.8485 84.0777C77.2178 84.4824 78.227 84.8648 78.9321 85.2495C80.3411 86.0179 82.1336 85.7461 83.2894 84.5891L84.1087 83.7711L86.2278 85.8902L85.4097 86.7095C84.2528 87.8651 83.9808 89.6578 84.7494 91.068C85.1354 91.7744 85.5177 92.7836 85.9199 94.1516C86.3718 95.686 87.8305 96.7573 89.4665 96.7573H90.6223V99.24Z" fill="#DB771C"/>
<path d="M72 88.0688C66.5244 88.0688 62.069 92.5241 62.069 97.9998C62.069 103.476 66.5243 107.931 72 107.931C77.4758 107.931 81.9311 103.476 81.9311 97.9998C81.9311 92.5241 77.4758 88.0688 72 88.0688ZM72 105.448C67.8935 105.448 64.5517 102.108 64.5517 97.9998C64.5517 93.8921 67.8935 90.5515 72 90.5515C76.1066 90.5515 79.4484 93.8922 79.4484 97.9998C79.4484 102.108 76.1078 105.448 72 105.448Z" fill="#DB771C"/>
</g>
<defs>
<linearGradient id="paint0_linear" x1="92.5" y1="119" x2="40.1432" y2="12.1345" gradientUnits="userSpaceOnUse">
<stop stop-color="#101823"/>
<stop offset="0.991797" stop-color="#1F2836"/>
</linearGradient>
<clipPath id="clip0">
<rect x="36" y="61.9999" width="72" height="72" fill="white"/>
</clipPath>
</defs>
</svg>
