<svg width="145" height="136" viewBox="0 0 145 136" fill="none" xmlns="http://www.w3.org/2000/svg">
<path fill-rule="evenodd" clip-rule="evenodd" d="M80.7517 124.572C69.3756 126.152 59.9226 117.139 49.2091 113.021C37.2065 108.408 19.1924 110.883 14.2786 99.0247C9.22685 86.8337 23.8428 75.4492 28.5242 63.1033C31.8282 54.39 32.7673 45.3484 37.6446 37.403C43.7553 27.4484 48.547 13.3144 60.1219 11.629C71.7596 9.93444 78.4106 25.3488 89.2497 29.8889C101.063 34.8373 116.874 29.7075 125.607 39.0587C134.667 48.7601 136.687 64.2593 133.337 77.0995C130.13 89.3932 117.902 96.2642 108.458 104.79C99.8258 112.583 92.2789 122.97 80.7517 124.572Z" fill="url(#paint0_linear)"/>
<g clip-path="url(#clip0)">
<path d="M92.6977 70.0528C86.6808 65.5961 79.5404 63.2414 72.0486 63.2414C65.2173 63.2414 58.4306 65.2077 53.3795 68.5817V63.2414C53.3795 62.5561 52.8233 61.9999 52.138 61.9999C51.4528 61.9999 50.8966 62.5561 50.8966 63.2414V71.0508C50.8966 71.5325 51.1746 71.9694 51.6104 72.1743C52.0461 72.3792 52.5613 72.3134 52.9313 72.0054C57.6659 68.0727 64.8126 65.724 72.0486 65.724C79.004 65.724 85.633 67.9112 91.2204 72.0488C91.4413 72.2127 91.7008 72.2921 91.9578 72.2921C92.3377 72.2921 92.7126 72.1183 92.9559 71.7894C93.3644 71.2383 93.2489 70.4612 92.6977 70.0528Z" fill="#DB771C"/>
<path d="M106.759 76.8964H98.9494C98.4678 76.8964 98.032 77.1757 97.8272 77.6115C97.6223 78.0472 97.6881 78.5624 97.9961 78.9324C101.929 83.667 104.278 90.8124 104.278 98.0497C104.278 105.005 102.09 111.634 97.9526 117.22C97.5443 117.771 97.6597 118.548 98.2108 118.957C98.4318 119.121 98.6912 119.2 98.9483 119.2C99.3281 119.2 99.703 119.026 99.9476 118.698C104.404 112.681 106.759 105.54 106.759 98.0484C106.759 91.2171 104.793 84.4304 101.419 79.3793H106.759C107.444 79.3793 108 78.8231 108 78.1379C108 77.4526 107.444 76.8964 106.759 76.8964Z" fill="#DB771C"/>
<path d="M92.3908 123.827C91.9551 123.622 91.4399 123.688 91.0699 123.996C86.3353 127.928 79.1886 130.277 71.9526 130.277C64.9959 130.277 58.367 128.09 52.7808 123.952C52.2297 123.544 51.4526 123.659 51.0441 124.21C50.6357 124.762 50.7512 125.539 51.3023 125.947C57.3192 130.404 64.4597 132.759 71.9514 132.759C78.7826 132.759 85.5693 130.792 90.6204 127.418V132.759C90.6204 133.444 91.1766 134 91.8619 134C92.5472 134 93.1033 133.444 93.1033 132.759V124.949C93.1033 124.467 92.8253 124.029 92.3908 123.827Z" fill="#DB771C"/>
<path d="M46.0055 117.069C42.0728 112.334 39.724 105.189 39.724 97.9515C39.724 90.9961 41.9113 84.3672 46.0477 78.781C46.456 78.2299 46.3406 77.4528 45.7895 77.0442C45.2384 76.6346 44.4613 76.7513 44.0527 77.3024C39.5962 83.3194 37.2414 90.4597 37.2414 97.9515C37.2414 104.783 39.2078 111.57 42.5818 116.621H37.2414C36.5562 116.621 36 117.177 36 117.862C36 118.547 36.5562 119.104 37.2414 119.104H45.0509C45.5325 119.104 45.9695 118.825 46.1744 118.39C46.3792 117.954 46.3134 117.439 46.0055 117.069Z" fill="#DB771C"/>
<path d="M72.0001 122.828C71.3148 122.828 70.7587 123.384 70.7587 124.069V125.31C70.7587 125.996 71.3148 126.552 72.0001 126.552C72.6854 126.552 73.2415 125.996 73.2415 125.31V124.069C73.2415 123.384 72.6854 122.828 72.0001 122.828Z" fill="#DB771C"/>
<path d="M99.3105 96.7585H98.0691C97.3838 96.7585 96.8276 97.3147 96.8276 97.9999C96.8276 98.6852 97.3838 99.2414 98.0691 99.2414H99.3105C99.9958 99.2414 100.552 98.6852 100.552 97.9999C100.552 97.3147 99.9958 96.7585 99.3105 96.7585Z" fill="#DB771C"/>
<path d="M45.9311 96.7585H44.6897C44.0044 96.7585 43.4482 97.3147 43.4482 97.9999C43.4482 98.6852 44.0044 99.2414 44.6897 99.2414H45.9311C46.6164 99.2414 47.1726 98.6852 47.1726 97.9999C47.1726 97.3147 46.6164 96.7585 45.9311 96.7585Z" fill="#DB771C"/>
<path d="M92.7397 77.2603C92.2555 76.7748 91.4686 76.7748 90.9844 77.2603L89.743 78.5017C89.2575 78.9871 89.2575 79.7717 89.743 80.257C89.985 80.499 90.3028 80.6206 90.6206 80.6206C90.9384 80.6206 91.2562 80.499 91.4983 80.2568L92.7397 79.0154C93.2251 78.5301 93.2251 77.7456 92.7397 77.2603Z" fill="#DB771C"/>
<path d="M54.2571 115.743C53.773 115.258 52.986 115.258 52.5019 115.743L51.2606 116.984C50.7751 117.47 50.7751 118.254 51.2606 118.74C51.5026 118.982 51.8204 119.103 52.1382 119.103C52.456 119.103 52.7738 118.982 53.0158 118.74L54.2573 117.498C54.7426 117.013 54.7426 116.228 54.2571 115.743Z" fill="#DB771C"/>
<path d="M92.7397 116.984L91.4983 115.743C91.0141 115.257 90.2272 115.257 89.743 115.743C89.2575 116.228 89.2575 117.013 89.743 117.498L90.9844 118.74C91.2264 118.982 91.5442 119.103 91.8621 119.103C92.1799 119.103 92.4977 118.982 92.7397 118.74C93.2251 118.254 93.2251 117.47 92.7397 116.984Z" fill="#DB771C"/>
<path d="M54.2571 78.5016L53.0158 77.2603C52.5317 76.7748 51.7447 76.7748 51.2606 77.2603C50.7751 77.7457 50.7751 78.5302 51.2606 79.0155L52.502 80.257C52.744 80.499 53.0618 80.6206 53.3796 80.6206C53.6975 80.6206 54.0153 80.499 54.2573 80.2568C54.7426 79.7715 54.7426 78.987 54.2571 78.5016Z" fill="#DB771C"/>
<path d="M71.9996 93.0345C69.2611 93.0345 67.0342 95.2615 67.0342 97.9999C67.0342 100.738 69.2613 102.965 71.9996 102.965C74.738 102.965 76.9651 100.738 76.9651 97.9999C76.9651 95.2615 74.7382 93.0345 71.9996 93.0345ZM71.9996 100.483C70.6304 100.483 69.5169 99.3692 69.5169 97.9999C69.5169 96.6307 70.6304 95.5172 71.9996 95.5172C73.3689 95.5172 74.4824 96.6307 74.4824 97.9999C74.4824 99.3692 73.3689 100.483 71.9996 100.483Z" fill="#DB771C"/>
<path d="M72.0001 69.4483C71.3148 69.4483 70.7587 70.0044 70.7587 70.6897V94.2759C70.7587 94.9612 71.3148 95.5173 72.0001 95.5173C72.6854 95.5173 73.2415 94.9612 73.2415 94.2759V70.6896C73.2415 70.0043 72.6854 69.4483 72.0001 69.4483Z" fill="#DB771C"/>
<path d="M86.8964 96.7585H75.724C75.0387 96.7585 74.4825 97.3147 74.4825 97.9999C74.4825 98.6852 75.0387 99.2414 75.724 99.2414H86.8964C87.5816 99.2414 88.1378 98.6852 88.1378 97.9999C88.1378 97.3147 87.5816 96.7585 86.8964 96.7585Z" fill="#DB771C"/>
</g>
<defs>
<linearGradient id="paint0_linear" x1="92.5" y1="119" x2="40.1432" y2="12.1345" gradientUnits="userSpaceOnUse">
<stop stop-color="#101823"/>
<stop offset="0.991797" stop-color="#1F2836"/>
</linearGradient>
<clipPath id="clip0">
<rect x="36" y="61.9999" width="72" height="72" fill="white"/>
</clipPath>
</defs>
</svg>
