<svg width="145" height="136" viewBox="0 0 145 136" fill="none" xmlns="http://www.w3.org/2000/svg">
<path fill-rule="evenodd" clip-rule="evenodd" d="M80.7517 124.572C69.3756 126.152 59.9226 117.139 49.2091 113.021C37.2065 108.408 19.1924 110.883 14.2786 99.0247C9.22685 86.8337 23.8428 75.4493 28.5242 63.1033C31.8282 54.39 32.7673 45.3484 37.6446 37.403C43.7553 27.4484 48.547 13.3144 60.1219 11.629C71.7596 9.93445 78.4106 25.3488 89.2497 29.8889C101.063 34.8373 116.874 29.7075 125.607 39.0588C134.667 48.7601 136.687 64.2593 133.337 77.0995C130.13 89.3932 117.902 96.2642 108.458 104.79C99.8258 112.583 92.2789 122.97 80.7517 124.572Z" fill="#141C28"/>
<path fill-rule="evenodd" clip-rule="evenodd" d="M80.7517 124.572C69.3756 126.152 59.9226 117.139 49.2091 113.021C37.2065 108.408 19.1924 110.883 14.2786 99.0247C9.22685 86.8337 23.8428 75.4493 28.5242 63.1033C31.8282 54.39 32.7673 45.3484 37.6446 37.403C43.7553 27.4484 48.547 13.3144 60.1219 11.629C71.7596 9.93445 78.4106 25.3488 89.2497 29.8889C101.063 34.8373 116.874 29.7075 125.607 39.0588C134.667 48.7601 136.687 64.2593 133.337 77.0995C130.13 89.3932 117.902 96.2642 108.458 104.79C99.8258 112.583 92.2789 122.97 80.7517 124.572Z" fill="url(#paint0_linear)"/>
<g clip-path="url(#clip0)">
<path d="M72 134C52.1494 134 36 117.851 36 97.9999C36 78.1492 52.1494 61.9999 72 61.9999C91.8506 61.9999 108 78.1492 108 97.9999C108 117.851 91.8506 134 72 134ZM72 64.3998C53.4732 64.3998 38.4 79.4731 38.4 97.9999C38.4 116.527 53.4732 131.6 72 131.6C90.5268 131.6 105.6 116.527 105.6 97.9999C105.6 79.4731 90.5268 64.3998 72 64.3998Z" fill="#DB771C"/>
<path d="M99.5997 99.2001C98.9372 99.2001 98.4 98.6623 98.4 97.9999C98.4022 90.5874 95.1392 83.6633 89.2127 78.5057C88.7122 78.0701 88.6606 77.3132 89.0951 76.8127C89.5307 76.3123 90.2877 76.2618 90.7881 76.6952C97.2464 82.3158 100.802 89.8821 100.8 97.9999C100.8 98.6623 100.262 99.2001 99.5997 99.2001Z" fill="#DB771C"/>
<path d="M81.5723 73.3048C81.4344 73.3048 81.2938 73.2812 81.157 73.2307C78.2314 72.1496 75.1497 71.6008 71.9999 71.5997C71.3375 71.5997 70.7997 71.0625 70.7997 70.4C70.7997 69.7375 71.3375 69.1998 71.9999 69.1998C75.4354 69.2009 78.7955 69.7996 81.9876 70.9796C82.6089 71.2086 82.9269 71.8986 82.6979 72.5215C82.5193 73.0049 82.0607 73.3048 81.5723 73.3048Z" fill="#DB771C"/>
<path d="M54.0002 119.6C53.7277 119.6 53.4553 119.507 53.2311 119.321C46.6657 113.826 43.1979 106.452 43.2001 97.9999C43.2001 97.3374 43.7379 96.7997 44.4003 96.7997C45.0628 96.7997 45.6 97.3374 45.6 97.9999C45.5978 105.719 48.7696 112.455 54.7703 117.48C55.2795 117.904 55.3455 118.661 54.9208 119.171C54.683 119.453 54.3424 119.6 54.0002 119.6Z" fill="#DB771C"/>
<path d="M71.9949 126.8C68.7643 126.8 65.592 126.268 62.5642 125.219C61.938 125.001 61.6067 124.318 61.8237 123.692C62.0413 123.066 62.7241 122.734 63.3503 122.951C66.1249 123.913 68.9841 124.395 71.9998 124.4C72.6623 124.4 73.2001 124.937 73.2001 125.6C73.2001 126.262 72.6623 126.8 71.9998 126.8C71.9987 126.8 71.996 126.8 71.9949 126.8Z" fill="#DB771C"/>
<path d="M64.8004 118.4C64.6142 118.4 64.4269 118.356 64.2517 118.267C63.7502 118.009 63.4958 117.436 63.6414 116.89L68.0381 100.4H62.4005C61.9358 100.4 61.5133 100.132 61.3156 99.7121C61.1173 99.2924 61.1788 98.7953 61.4738 98.4377L78.2741 78.0377C78.6339 77.6032 79.2469 77.4763 79.749 77.7345C80.2505 77.9921 80.5048 78.5645 80.3593 79.1105L75.9626 95.5999H81.6002C82.0649 95.5999 82.4873 95.8674 82.6851 96.2876C82.8834 96.7073 82.8219 97.2044 82.5269 97.562L65.7266 117.962C65.4926 118.248 65.1493 118.4 64.8004 118.4ZM64.9433 97.9998H69.6004C69.9734 97.9998 70.3249 98.174 70.5518 98.469C70.7787 98.7656 70.8556 99.1496 70.7594 99.5094L67.3817 112.178L79.0574 97.9998H74.4003C74.0273 97.9998 73.6757 97.8257 73.4489 97.5307C73.222 97.2341 73.1451 96.8501 73.2412 96.4903L76.619 83.822L64.9433 97.9998Z" fill="#DB771C"/>
</g>
<defs>
<linearGradient id="paint0_linear" x1="92.5" y1="119" x2="40.1432" y2="12.1345" gradientUnits="userSpaceOnUse">
<stop stop-color="#101823"/>
<stop offset="0.991797" stop-color="#1F2836"/>
</linearGradient>
<clipPath id="clip0">
<rect x="36" y="61.9999" width="72" height="72" fill="white"/>
</clipPath>
</defs>
</svg>
