<svg width="22" height="22" viewBox="0 0 22 22" fill="none" xmlns="http://www.w3.org/2000/svg">
<path d="M10.8588 6.01498C8.8368 6.01498 7.9082 7.21337 7.9082 8.02225C7.9082 8.6065 8.40243 8.87613 8.80685 8.87613C9.61561 8.87613 9.28613 7.72268 10.8138 7.72268C11.5627 7.72268 12.1619 8.05229 12.1619 8.74133C12.1619 9.55026 11.3231 10.0146 10.8288 10.434C10.3945 10.8086 9.82534 11.4227 9.82534 12.711C9.82534 13.4899 10.035 13.7146 10.6491 13.7146C11.383 13.7146 11.5327 13.3851 11.5327 13.1005C11.5327 12.3215 11.5477 11.8721 12.3715 11.228C12.7759 10.9134 14.049 9.89474 14.049 8.48666C14.049 7.07858 12.7759 6.01502 10.8588 6.01498Z" fill="#CACACA"/>
<path d="M10.6637 14.7482C10.0347 14.7482 9.52539 15.2725 9.52539 15.9017C9.52539 16.5158 10.0197 17.0551 10.6637 17.0551C11.3077 17.0551 11.817 16.5159 11.817 15.9017C11.817 15.2725 11.2927 14.7482 10.6637 14.7482Z" fill="#CACACA"/>
<path d="M19.2387 4.20212L12.7716 0.472393C11.6794 -0.157485 10.3225 -0.157485 9.23035 0.472393L2.76318 4.20212C1.66898 4.83315 0.989258 6.00989 0.989258 7.27317V14.7268C0.989258 15.9901 1.66898 17.1668 2.76318 17.7979L9.23035 21.5276C10.3223 22.1574 11.6793 22.1576 12.7716 21.5276L19.2387 17.7979C20.3329 17.1668 21.0127 15.9901 21.0127 14.7268V7.27317C21.0127 6.00989 20.3329 4.83315 19.2387 4.20212ZM19.2939 14.7268C19.2939 15.3775 18.9438 15.9836 18.3801 16.3087L11.913 20.0384C11.3504 20.3628 10.6515 20.3628 10.0889 20.0384L3.62178 16.3087C3.05811 15.9837 2.708 15.3775 2.708 14.7268V7.27317C2.708 6.62246 3.05811 6.01634 3.62178 5.69128L10.0889 1.96156C10.6516 1.6371 11.3504 1.63714 11.913 1.96156L18.3802 5.69128C18.9438 6.0163 19.2939 6.62246 19.2939 7.27317V14.7268Z" fill="#CACACA"/>
</svg>
