<svg id="ftr-twiter-icon-svg" width="22" height="16" viewBox="0 0 22 16" xmlns="http://www.w3.org/2000/svg">
<path d="M21.1623 1.96379C20.3989 2.26943 19.5893 2.47016 18.7603 2.55933C19.634 2.08637 20.288 1.34202 20.6003 0.46499C19.7803 0.906666 18.8813 1.2162 17.9443 1.38364C17.3149 0.774144 16.4807 0.369925 15.5713 0.233821C14.6618 0.0977176 13.7282 0.237357 12.9156 0.631029C12.1029 1.0247 11.4567 1.65035 11.0774 2.41071C10.6981 3.17107 10.607 4.02354 10.8183 4.83559C9.15541 4.76016 7.52863 4.36905 6.04358 3.68765C4.55854 3.00626 3.24842 2.04982 2.1983 0.880419C1.82659 1.45826 1.63125 2.11514 1.6323 2.78379C1.6323 4.09614 2.3703 5.25554 3.4923 5.93435C2.82831 5.91543 2.17893 5.75314 1.5983 5.461V5.50806C1.5985 6.38209 1.93267 7.22916 2.54414 7.90565C3.15562 8.58214 4.00678 9.04642 4.9533 9.21976C4.33691 9.37094 3.6906 9.39323 3.0633 9.28493C3.33016 10.0373 3.8503 10.6952 4.55089 11.1667C5.25147 11.6381 6.09742 11.8995 6.9703 11.9142C6.10278 12.5308 5.10947 12.9867 4.04718 13.2556C2.98488 13.5246 1.87442 13.6015 0.779297 13.4818C2.69099 14.5945 4.91639 15.1852 7.1893 15.1833C14.8823 15.1833 19.0893 9.41526 19.0893 4.41292C19.0893 4.25001 19.0843 4.08528 19.0763 3.92418C19.8952 3.38853 20.6019 2.72498 21.1633 1.9647L21.1623 1.96379Z"/>
</svg>
