<svg width="145" height="136" viewBox="0 0 145 136" fill="none" xmlns="http://www.w3.org/2000/svg">
<path fill-rule="evenodd" clip-rule="evenodd" d="M80.7512 124.681C69.3752 126.261 59.9221 117.248 49.2086 113.13C37.206 108.517 19.192 110.992 14.2781 99.1338C9.22636 86.9428 23.8423 75.5583 28.5237 63.2124C31.8277 54.4991 32.7668 45.4575 37.6441 37.5121C43.7548 27.5575 48.5465 13.4235 60.1214 11.7381C71.7591 10.0435 78.4102 25.4578 89.2492 29.998C101.063 34.9463 116.874 29.8166 125.606 39.1678C134.666 48.8692 136.686 64.3684 133.337 77.2086C130.129 89.5023 117.901 96.3732 108.458 104.899C99.8253 112.692 92.2784 123.079 80.7512 124.681Z" fill="#F5F6F8"/>
<path fill-rule="evenodd" clip-rule="evenodd" d="M80.7512 124.681C69.3752 126.261 59.9221 117.248 49.2086 113.13C37.206 108.517 19.192 110.992 14.2781 99.1338C9.22636 86.9428 23.8423 75.5583 28.5237 63.2124C31.8277 54.4991 32.7668 45.4575 37.6441 37.5121C43.7548 27.5575 48.5465 13.4235 60.1214 11.7381C71.7591 10.0435 78.4102 25.4578 89.2492 29.998C101.063 34.9463 116.874 29.8166 125.606 39.1678C134.666 48.8692 136.686 64.3684 133.337 77.2086C130.129 89.5023 117.901 96.3732 108.458 104.899C99.8253 112.692 92.2784 123.079 80.7512 124.681Z" fill="url(#paint0_linear)"/>
<g clip-path="url(#clip0)">
<path d="M103.567 67.1417C100.919 67.1417 98.7666 69.2946 98.7666 71.9417C98.7666 74.5888 100.919 76.7416 103.567 76.7416C106.214 76.7416 108.366 74.5889 108.366 71.9417C108.366 69.2946 106.214 67.1417 103.567 67.1417ZM103.567 74.3417C102.243 74.3417 101.167 73.2654 101.167 71.9417C101.167 70.6181 102.243 69.5416 103.567 69.5416C104.89 69.5416 105.967 70.618 105.967 71.9417C105.966 73.2654 104.89 74.3417 103.567 74.3417Z" fill="#47A348"/>
<path d="M41.1667 106.742C38.5195 106.742 36.3667 108.895 36.3667 111.542C36.3667 114.189 38.5195 116.342 41.1667 116.342C43.8139 116.342 45.9666 114.189 45.9666 111.542C45.9666 108.895 43.8139 106.742 41.1667 106.742ZM41.1667 113.942C39.8431 113.942 38.7666 112.865 38.7666 111.542C38.7666 110.218 39.8429 109.142 41.1667 109.142C42.4902 109.142 43.5667 110.218 43.5667 111.542C43.5667 112.865 42.4904 113.942 41.1667 113.942Z" fill="#47A348"/>
<path d="M101.24 68.6585L90.8875 63.6605C90.2898 63.3713 89.5735 63.6233 89.2855 64.2198C88.9975 64.8162 89.2482 65.5338 89.8447 65.8218L100.197 70.8198C100.365 70.9013 100.543 70.9397 100.718 70.9397C101.164 70.9397 101.593 70.6901 101.799 70.2605C102.087 69.6641 101.836 68.9465 101.24 68.6585Z" fill="#47A348"/>
<path d="M90.3664 115.142C87.7191 115.142 85.5664 117.294 85.5664 119.942C85.5664 122.589 87.7191 124.742 90.3664 124.742C93.0136 124.742 95.1663 122.589 95.1663 119.942C95.1663 117.295 93.0136 115.142 90.3664 115.142ZM90.3664 122.342C89.0428 122.342 87.9663 121.265 87.9663 119.942C87.9663 118.618 89.0428 117.542 90.3664 117.542C91.6899 117.542 92.7664 118.618 92.7664 119.942C92.7664 121.265 91.6899 122.342 90.3664 122.342Z" fill="#47A348"/>
<path d="M88.0397 116.659L77.6873 111.661C77.0896 111.371 76.3733 111.622 76.0853 112.22C75.7973 112.816 76.048 113.534 76.6445 113.822L86.9969 118.82C87.165 118.901 87.3426 118.94 87.5177 118.94C87.964 118.94 88.3925 118.69 88.5989 118.261C88.8868 117.664 88.6361 116.947 88.0397 116.659Z" fill="#47A348"/>
<path d="M72.3664 85.1417C69.7191 85.1417 67.5664 87.2946 67.5664 89.9417C67.5664 92.5889 69.7192 94.7416 72.3664 94.7416C75.0136 94.7416 77.1663 92.5888 77.1663 89.9417C77.1663 87.2946 75.0136 85.1417 72.3664 85.1417ZM72.3664 92.3417C71.0428 92.3417 69.9663 91.2654 69.9663 89.9417C69.9663 88.6181 71.0427 87.5416 72.3664 87.5416C73.6899 87.5416 74.7664 88.618 74.7664 89.9417C74.7664 91.2654 73.6899 92.3417 72.3664 92.3417Z" fill="#47A348"/>
<path d="M70.2574 86.7929L62.305 80.5949C61.7817 80.1904 61.0283 80.2804 60.6202 80.8037C60.2134 81.327 60.3057 82.0804 60.829 82.4885L68.7814 88.6866C69.001 88.857 69.2602 88.9398 69.5182 88.9398C69.8758 88.9398 70.2287 88.7815 70.4662 88.4779C70.873 87.9545 70.7806 87.2009 70.2574 86.7929Z" fill="#47A348"/>
<path d="M93.9662 83.9418C86.6881 83.9418 80.7661 89.8638 80.7661 97.1418C80.7661 104.42 86.6881 110.342 93.9662 110.342C101.244 110.342 107.166 104.42 107.166 97.1418C107.166 89.8638 101.244 83.9418 93.9662 83.9418ZM93.9662 107.942C88.0106 107.942 83.1662 103.097 83.1662 97.1417C83.1662 91.1861 88.0106 86.3417 93.9662 86.3417C99.9218 86.3417 104.766 91.1861 104.766 97.1417C104.766 103.097 99.9218 107.942 93.9662 107.942Z" fill="#47A348"/>
<path d="M93.9669 88.7417C91.3197 88.7417 89.167 90.8945 89.167 93.5417C89.167 96.1889 91.3198 98.3416 93.9669 98.3416C96.6142 98.3416 98.7669 96.1888 98.7669 93.5417C98.7669 90.8945 96.6142 88.7417 93.9669 88.7417ZM93.9669 95.9417C92.6434 95.9417 91.5669 94.8654 91.5669 93.5417C91.5669 92.2181 92.6432 91.1416 93.9669 91.1416C95.2905 91.1416 96.367 92.2179 96.367 93.5417C96.367 94.8654 95.2905 95.9417 93.9669 95.9417Z" fill="#47A348"/>
<path d="M97.4473 100.742H90.4849C88.4342 100.742 86.7661 102.365 86.7661 104.36V107.523C86.7661 107.951 86.9941 108.347 87.3649 108.562C89.3761 109.726 91.6585 110.342 93.9661 110.342C96.2738 110.342 98.5561 109.726 100.567 108.562C100.938 108.349 101.166 107.951 101.166 107.524V104.361C101.166 102.365 99.4982 100.742 97.4473 100.742ZM98.7661 106.808C95.7793 108.296 92.1529 108.296 89.166 106.808V104.361C89.166 103.689 89.7576 103.142 90.4848 103.142H97.4471C98.1743 103.142 98.7659 103.689 98.7659 104.361V106.808H98.7661Z" fill="#47A348"/>
<path d="M65.1668 98.3418C57.8888 98.3418 51.9668 104.264 51.9668 111.542C51.9668 118.82 57.8888 124.742 65.1668 124.742C72.4449 124.742 78.3669 118.82 78.3669 111.542C78.3669 104.264 72.4449 98.3418 65.1668 98.3418ZM65.1668 122.342C59.2112 122.342 54.3668 117.497 54.3668 111.542C54.3668 105.586 59.2112 100.742 65.1668 100.742C71.1224 100.742 75.9668 105.586 75.9668 111.542C75.9668 117.497 71.1224 122.342 65.1668 122.342Z" fill="#47A348"/>
<path d="M65.1667 103.142C62.5194 103.142 60.3667 105.295 60.3667 107.942C60.3667 110.589 62.5195 112.742 65.1667 112.742C67.8138 112.742 69.9666 110.589 69.9666 107.942C69.9666 105.295 67.8139 103.142 65.1667 103.142ZM65.1667 110.342C63.8431 110.342 62.7666 109.265 62.7666 107.942C62.7666 106.618 63.8429 105.542 65.1667 105.542C66.4902 105.542 67.5667 106.618 67.5667 107.942C67.5667 109.265 66.4902 110.342 65.1667 110.342Z" fill="#47A348"/>
<path d="M68.6485 115.142H61.6861C59.6354 115.142 57.9673 116.765 57.9673 118.76V121.923C57.9673 122.351 58.1952 122.747 58.5661 122.962C60.5773 124.126 62.8596 124.742 65.1673 124.742C67.4749 124.742 69.7573 124.126 71.7685 122.962C72.1393 122.748 72.3673 122.351 72.3673 121.924V118.761C72.3673 116.765 70.6993 115.142 68.6485 115.142ZM69.9672 121.208C66.9804 122.696 63.3541 122.696 60.3672 121.208V118.761C60.3672 118.089 60.9588 117.542 61.686 117.542H68.6483C69.3755 117.542 69.9671 118.089 69.9671 118.761V121.208H69.9672Z" fill="#47A348"/>
<path d="M49.5667 68.3417C42.2887 68.3417 36.3667 74.2637 36.3667 81.5417C36.3667 88.8198 42.2887 94.7418 49.5667 94.7418C56.8448 94.7418 62.7668 88.8198 62.7668 81.5417C62.7666 74.2637 56.8447 68.3417 49.5667 68.3417ZM49.5667 92.3417C43.6111 92.3417 38.7667 87.4973 38.7667 81.5417C38.7667 75.5861 43.6111 70.7417 49.5667 70.7417C55.5224 70.7417 60.3667 75.5861 60.3667 81.5417C60.3667 87.4973 55.5224 92.3417 49.5667 92.3417Z" fill="#47A348"/>
<path d="M49.5666 73.1417C46.9193 73.1417 44.7666 75.2946 44.7666 77.9417C44.7666 80.5888 46.9194 82.7416 49.5666 82.7416C52.2138 82.7416 54.3665 80.5888 54.3665 77.9417C54.3665 75.2946 52.2137 73.1417 49.5666 73.1417ZM49.5666 80.3417C48.243 80.3417 47.1665 79.2654 47.1665 77.9417C47.1665 76.618 48.2429 75.5416 49.5666 75.5416C50.8901 75.5416 51.9666 76.618 51.9666 77.9417C51.9666 79.2654 50.8901 80.3417 49.5666 80.3417Z" fill="#47A348"/>
<path d="M53.0479 85.1417H46.0855C44.0348 85.1417 42.3667 86.7654 42.3667 88.7597V91.9229C42.3667 92.3513 42.5947 92.7473 42.9655 92.9622C44.9767 94.1261 47.259 94.7418 49.5667 94.7418C51.8744 94.7418 54.1567 94.1261 56.1679 92.9622C56.5387 92.7485 56.7667 92.3513 56.7667 91.9242V88.761C56.7667 86.7654 55.0986 85.1417 53.0479 85.1417ZM54.3667 91.2077C51.3799 92.6957 47.7535 92.6957 44.7666 91.2077V88.761C44.7666 88.0889 45.3582 87.5418 46.0854 87.5418H53.0477C53.7749 87.5418 54.3665 88.0889 54.3665 88.761V91.2077H54.3667Z" fill="#47A348"/>
<path d="M78.367 52.7417C71.089 52.7417 65.167 58.6637 65.167 65.9417C65.167 73.2198 71.089 79.1418 78.367 79.1418C85.6451 79.1418 91.5671 73.2198 91.5671 65.9417C91.5669 58.6637 85.6449 52.7417 78.367 52.7417ZM78.367 76.7417C72.4114 76.7417 67.567 71.8974 67.567 65.9417C67.567 59.9861 72.4114 55.1417 78.367 55.1417C84.3226 55.1417 89.167 59.9861 89.167 65.9417C89.167 71.8974 84.3226 76.7417 78.367 76.7417Z" fill="#47A348"/>
<path d="M78.3664 57.5416C75.7191 57.5416 73.5664 59.6945 73.5664 62.3416C73.5664 64.9887 75.7192 67.1415 78.3664 67.1415C81.0135 67.1415 83.1663 64.9888 83.1663 62.3417C83.1663 59.6946 81.0135 57.5416 78.3664 57.5416ZM78.3664 64.7416C77.0428 64.7416 75.9663 63.6653 75.9663 62.3416C75.9663 61.018 77.0427 59.9415 78.3664 59.9415C79.6901 59.9415 80.7664 61.0179 80.7664 62.3416C80.7663 63.6653 79.6899 64.7416 78.3664 64.7416Z" fill="#47A348"/>
<path d="M81.8482 69.5417H74.8858C72.8351 69.5417 71.167 71.1654 71.167 73.1597V76.323C71.167 76.7513 71.3949 77.1473 71.7658 77.3622C73.777 78.5261 76.0593 79.1418 78.367 79.1418C80.6746 79.1418 82.957 78.5261 84.9682 77.3622C85.339 77.1486 85.567 76.7513 85.567 76.3242V73.161C85.567 71.1653 83.8989 69.5417 81.8482 69.5417ZM83.1669 75.6077C80.1802 77.0957 76.5538 77.0957 73.5669 75.6077V73.161C73.5669 72.489 74.1585 71.9418 74.8857 71.9418H81.848C82.5752 71.9418 83.1668 72.489 83.1668 73.161V75.6077H83.1669Z" fill="#47A348"/>
<path d="M67.2798 65.1604C66.849 64.6588 66.0918 64.5988 65.5878 65.0296L57.2718 72.1457C56.7678 72.5764 56.709 73.3337 57.1397 73.8377C57.3774 74.1149 57.7133 74.2577 58.0517 74.2577C58.3277 74.2577 58.6049 74.163 58.8317 73.9685L67.1477 66.8524C67.6519 66.4217 67.7106 65.6644 67.2798 65.1604Z" fill="#47A348"/>
<path d="M93.7267 84.423L86.5267 74.8229C86.1294 74.2914 85.3771 74.1869 84.8466 74.5829C84.3162 74.9802 84.2095 75.7325 84.6066 76.2617L91.8066 85.8617C92.043 86.1762 92.403 86.3417 92.7678 86.3417C93.0174 86.3417 93.2706 86.2636 93.4866 86.1016C94.0171 85.7045 94.124 84.9522 93.7267 84.423Z" fill="#47A348"/>
<path d="M83.8783 101.11C83.481 100.58 82.7287 100.473 82.1983 100.87L75.4951 105.897C74.9646 106.294 74.8579 107.046 75.255 107.576C75.4914 107.89 75.8514 108.056 76.2162 108.056C76.4669 108.056 76.7189 107.976 76.9351 107.815L83.6383 102.789C84.1687 102.392 84.2756 101.639 83.8783 101.11Z" fill="#47A348"/>
<path d="M53.1665 110.342H44.7664C44.104 110.342 43.5664 110.878 43.5664 111.542C43.5664 112.205 44.104 112.742 44.7664 112.742H53.1663C53.8287 112.742 54.3663 112.205 54.3663 111.542C54.3663 110.878 53.8288 110.342 53.1665 110.342Z" fill="#47A348"/>
<path d="M49.5662 52.7417C46.9189 52.7417 44.7661 54.8945 44.7661 57.5417C44.7661 60.1889 46.9189 62.3416 49.5661 62.3416C52.2133 62.3416 54.366 60.1888 54.366 57.5417C54.3662 54.8945 52.2133 52.7417 49.5662 52.7417ZM49.5662 59.9417C48.2426 59.9417 47.1662 58.8654 47.1662 57.5417C47.1662 56.2181 48.2425 55.1416 49.5662 55.1416C50.8898 55.1416 51.9663 56.2179 51.9663 57.5417C51.9661 58.8654 50.8898 59.9417 49.5662 59.9417Z" fill="#47A348"/>
<path d="M49.5667 59.9418C48.9043 59.9418 48.3667 60.4781 48.3667 61.1417V69.5417C48.3667 70.2053 48.9043 70.7416 49.5667 70.7416C50.229 70.7416 50.7666 70.2053 50.7666 69.5417V61.1417C50.7666 60.4781 50.229 59.9418 49.5667 59.9418Z" fill="#47A348"/>
</g>
<defs>
<linearGradient id="paint0_linear" x1="72.2876" y1="128.242" x2="113.788" y2="35.2417" gradientUnits="userSpaceOnUse">
<stop stop-color="white"/>
<stop offset="1" stop-color="white" stop-opacity="0"/>
</linearGradient>
<clipPath id="clip0">
<rect x="36.3667" y="52.7417" width="72" height="72" fill="white"/>
</clipPath>
</defs>
</svg>
