<svg width="145" height="136" viewBox="0 0 145 136" fill="none" xmlns="http://www.w3.org/2000/svg">
<path fill-rule="evenodd" clip-rule="evenodd" d="M80.7527 124.572C69.3766 126.152 59.9236 117.139 49.2101 113.021C37.2075 108.408 19.1934 110.883 14.2795 99.0247C9.22783 86.8337 23.8438 75.4493 28.5252 63.1033C31.8291 54.39 32.7683 45.3484 37.6456 37.403C43.7563 27.4484 48.548 13.3144 60.1229 11.629C71.7605 9.93445 78.4116 25.3488 89.2507 29.8889C101.064 34.8373 116.875 29.7075 125.608 39.0588C134.668 48.7601 136.688 64.2593 133.338 77.0995C130.131 89.3932 117.903 96.2642 108.459 104.79C99.8267 112.583 92.2799 122.97 80.7527 124.572Z" fill="#F5F6F8"/>
<path fill-rule="evenodd" clip-rule="evenodd" d="M80.7527 124.572C69.3766 126.152 59.9236 117.139 49.2101 113.021C37.2075 108.408 19.1934 110.883 14.2795 99.0247C9.22783 86.8337 23.8438 75.4493 28.5252 63.1033C31.8291 54.39 32.7683 45.3484 37.6456 37.403C43.7563 27.4484 48.548 13.3144 60.1229 11.629C71.7605 9.93445 78.4116 25.3488 89.2507 29.8889C101.064 34.8373 116.875 29.7075 125.608 39.0588C134.668 48.7601 136.688 64.2593 133.338 77.0995C130.131 89.3932 117.903 96.2642 108.459 104.79C99.8267 112.583 92.2799 122.97 80.7527 124.572Z" fill="url(#paint0_linear)"/>
<g clip-path="url(#clip0)">
<path d="M95.9841 79.2295C95.581 69.6607 87.6694 61.9999 78.001 61.9999C71.065 61.9999 64.843 65.9251 61.8334 72.0966C60.8542 71.7666 59.839 71.5998 58.8009 71.5998C53.5077 71.5998 49.2009 75.9066 49.2009 81.1998C49.2009 82.0207 49.3028 82.8235 49.5069 83.6034C42.0646 83.4259 36.001 89.4199 36.001 96.7999C36.001 104.078 41.923 110 49.201 110H92.401C101.003 110 108.001 103.001 108.001 94.3999C108.001 87.0979 103.005 80.8723 95.9841 79.2295ZM92.401 107.6H49.201C43.2467 107.6 38.401 102.756 38.401 96.7999C38.401 90.8443 43.2467 85.9999 49.201 85.9999C49.8059 85.9999 50.4287 86.0587 51.1054 86.1787C51.5601 86.2615 52.009 86.0767 52.279 85.7118C52.5503 85.3457 52.5911 84.8586 52.3846 84.4531C51.865 83.4294 51.6011 82.3351 51.6011 81.1998C51.6011 77.229 54.8302 73.9998 58.8011 73.9998C59.8847 73.9998 60.937 74.2434 61.9307 74.7259C62.2282 74.8699 62.5739 74.8866 62.8823 74.7655C63.1919 74.6467 63.439 74.4055 63.5639 74.0995C65.9759 68.2075 71.6422 64.3999 78.0012 64.3999C86.6028 64.3999 93.6011 71.3983 93.5987 80.0239C93.5976 80.048 93.5903 80.1716 93.5903 80.1944C93.5807 80.7884 94.0067 81.2995 94.5922 81.398C100.971 82.466 105.601 87.9332 105.601 94.4C105.601 101.678 99.6789 107.6 92.401 107.6Z" fill="#DB771C"/>
<path d="M92.4007 78.7999C83.7991 78.7999 76.8008 85.7983 76.8008 94.3999C76.8008 95.0635 77.3384 95.5998 78.0007 95.5998C78.6631 95.5998 79.2007 95.0635 79.2007 94.3999C79.2007 87.1218 85.1227 81.1998 92.4007 81.1998C99.6788 81.1998 105.601 87.1218 105.601 94.3999C105.601 95.0635 106.138 95.5998 106.801 95.5998C107.463 95.5998 108.001 95.0635 108.001 94.3999C108.001 85.7983 101.002 78.7999 92.4007 78.7999Z" fill="#DB771C"/>
<path d="M78.001 61.9999C68.0758 61.9999 60.001 70.0747 60.001 79.9999C60.001 82.2139 60.3982 84.3751 61.1818 86.4259C61.3642 86.9058 61.8202 87.1986 62.3026 87.1986C62.4453 87.1986 62.5906 87.1734 62.7322 87.1206C63.3514 86.8842 63.661 86.1906 63.4246 85.5714C62.7454 83.7931 62.401 81.9198 62.401 79.9999C62.401 71.3983 69.3994 64.3999 78.001 64.3999C78.6633 64.3999 79.2009 63.8636 79.2009 63.2C79.2009 62.5364 78.6633 61.9999 78.001 61.9999Z" fill="#DB771C"/>
<path d="M72.0011 124.4C69.3539 124.4 67.2012 126.553 67.2012 129.2C67.2012 131.847 69.3539 134 72.0011 134C74.6484 134 76.8011 131.847 76.8011 129.2C76.8011 126.553 74.6484 124.4 72.0011 124.4ZM72.0011 131.6C70.6776 131.6 69.6011 130.523 69.6011 129.2C69.6011 127.876 70.6776 126.8 72.0011 126.8C73.3247 126.8 74.4012 127.876 74.4012 129.2C74.4012 130.524 73.3247 131.6 72.0011 131.6Z" fill="#DB771C"/>
<path d="M49.2013 123.2C46.5541 123.2 44.4014 125.353 44.4014 128C44.4014 130.647 46.5542 132.8 49.2013 132.8C51.8486 132.8 54.0013 130.647 54.0013 128C54.0013 125.353 51.8484 123.2 49.2013 123.2ZM49.2013 130.4C47.8778 130.4 46.8013 129.324 46.8013 128C46.8013 126.676 47.8776 125.6 49.2013 125.6C50.5249 125.6 51.6014 126.676 51.6014 128C51.6012 129.324 50.5249 130.4 49.2013 130.4Z" fill="#DB771C"/>
<path d="M72.0007 107.6C71.3384 107.6 70.8008 108.136 70.8008 108.8V125.6C70.8008 126.264 71.3384 126.8 72.0007 126.8C72.6631 126.8 73.2007 126.264 73.2007 125.6V108.8C73.2007 108.136 72.6631 107.6 72.0007 107.6Z" fill="#DB771C"/>
<path d="M40.8009 112.4C38.1538 112.4 36.001 114.553 36.001 117.2C36.001 119.847 38.1538 122 40.8009 122C43.4482 122 45.6009 119.847 45.6009 117.2C45.601 114.553 43.4482 112.4 40.8009 112.4ZM40.8009 119.6C39.4774 119.6 38.4009 118.524 38.4009 117.2C38.4009 115.876 39.4772 114.8 40.8009 114.8C42.1245 114.8 43.201 115.876 43.201 117.2C43.201 118.524 42.1246 119.6 40.8009 119.6Z" fill="#DB771C"/>
<path d="M54.001 107.6C53.3387 107.6 52.8011 108.136 52.8011 108.8C52.8011 113.431 49.033 117.2 44.4011 117.2C43.7388 117.2 43.2012 117.736 43.2012 118.4C43.2012 119.063 43.7388 119.6 44.4011 119.6C50.3555 119.6 55.2011 114.755 55.2011 108.8C55.201 108.136 54.6634 107.6 54.001 107.6Z" fill="#DB771C"/>
<path d="M63.6015 107.6C62.9392 107.6 62.4016 108.136 62.4016 108.8V117.2C62.4016 122.493 58.0948 126.8 52.8015 126.8C52.1392 126.8 51.6016 127.336 51.6016 128C51.6016 128.663 52.1392 129.2 52.8015 129.2C59.4183 129.2 64.8015 123.817 64.8015 117.2V108.8C64.8015 108.136 64.2639 107.6 63.6015 107.6Z" fill="#DB771C"/>
<path d="M94.8009 123.2C92.1537 123.2 90.001 125.353 90.001 128C90.001 130.647 92.1538 132.8 94.8009 132.8C97.4481 132.8 99.6009 130.647 99.6009 128C99.601 125.353 97.4482 123.2 94.8009 123.2ZM94.8009 130.4C93.4774 130.4 92.4009 129.324 92.4009 128C92.4009 126.676 93.4772 125.6 94.8009 125.6C96.1246 125.6 97.201 126.676 97.201 128C97.201 129.324 96.1246 130.4 94.8009 130.4Z" fill="#DB771C"/>
<path d="M103.201 112.4C100.554 112.4 98.4014 114.553 98.4014 117.2C98.4014 119.847 100.554 122 103.201 122C105.848 122 108.001 119.847 108.001 117.2C108.001 114.553 105.848 112.4 103.201 112.4ZM103.201 119.6C101.878 119.6 100.801 118.524 100.801 117.2C100.801 115.876 101.878 114.8 103.201 114.8C104.525 114.8 105.601 115.876 105.601 117.2C105.601 118.524 104.525 119.6 103.201 119.6Z" fill="#DB771C"/>
<path d="M99.6016 117.2C94.9696 117.2 91.2017 113.431 91.2017 108.8C91.2017 108.136 90.6641 107.6 90.0017 107.6C89.3394 107.6 88.8018 108.136 88.8018 108.8C88.8018 114.756 93.6474 119.6 99.6018 119.6C100.264 119.6 100.802 119.064 100.802 118.4C100.802 117.736 100.264 117.2 99.6016 117.2Z" fill="#DB771C"/>
<path d="M91.2011 126.8C85.9079 126.8 81.6011 122.493 81.6011 117.2V108.8C81.6011 108.136 81.0635 107.6 80.4011 107.6C79.7388 107.6 79.2012 108.136 79.2012 108.8V117.2C79.2012 123.817 84.5844 129.2 91.2011 129.2C91.8635 129.2 92.4011 128.663 92.4011 128C92.4011 127.336 91.8636 126.8 91.2011 126.8Z" fill="#DB771C"/>
</g>
<defs>
<linearGradient id="paint0_linear" x1="72.2891" y1="128.133" x2="113.789" y2="35.1327" gradientUnits="userSpaceOnUse">
<stop stop-color="white"/>
<stop offset="1" stop-color="white" stop-opacity="0"/>
</linearGradient>
<clipPath id="clip0">
<rect x="36.001" y="61.9999" width="72" height="72" fill="white"/>
</clipPath>
</defs>
</svg>
