<svg width="145" height="136" viewBox="0 0 145 136" fill="none" xmlns="http://www.w3.org/2000/svg">
<path fill-rule="evenodd" clip-rule="evenodd" d="M80.7527 124.572C69.3766 126.152 59.9236 117.139 49.2101 113.021C37.2075 108.408 19.1934 110.883 14.2795 99.0247C9.22783 86.8337 23.8438 75.4492 28.5252 63.1033C31.8291 54.39 32.7683 45.3484 37.6456 37.403C43.7563 27.4484 48.548 13.3144 60.1229 11.629C71.7605 9.93444 78.4116 25.3488 89.2507 29.8889C101.064 34.8373 116.875 29.7075 125.608 39.0587C134.668 48.7601 136.688 64.2593 133.338 77.0995C130.131 89.3932 117.903 96.2642 108.459 104.79C99.8267 112.583 92.2799 122.97 80.7527 124.572Z" fill="#F5F6F8"/>
<path fill-rule="evenodd" clip-rule="evenodd" d="M80.7527 124.572C69.3766 126.152 59.9236 117.139 49.2101 113.021C37.2075 108.408 19.1934 110.883 14.2795 99.0247C9.22783 86.8337 23.8438 75.4492 28.5252 63.1033C31.8291 54.39 32.7683 45.3484 37.6456 37.403C43.7563 27.4484 48.548 13.3144 60.1229 11.629C71.7605 9.93444 78.4116 25.3488 89.2507 29.8889C101.064 34.8373 116.875 29.7075 125.608 39.0587C134.668 48.7601 136.688 64.2593 133.338 77.0995C130.131 89.3932 117.903 96.2642 108.459 104.79C99.8267 112.583 92.2799 122.97 80.7527 124.572Z" fill="url(#paint0_linear)"/>
<g clip-path="url(#clip0)">
<path d="M92.6985 70.0528C86.6816 65.5961 79.5412 63.2413 72.0494 63.2413C65.2181 63.2413 58.4314 65.2089 53.3803 68.5817V63.2413C53.3803 62.556 52.8242 61.9999 52.1389 61.9999C51.4536 61.9999 50.8975 62.556 50.8975 63.2413V71.0508C50.8975 71.5312 51.1755 71.9693 51.6113 72.1742C52.0471 72.3779 52.5622 72.3133 52.9322 72.0053C57.6667 68.0726 64.8134 65.7239 72.0494 65.7239C79.0049 65.7239 85.6338 67.9112 91.22 72.0488C91.4422 72.2126 91.7016 72.2921 91.9586 72.2921C92.3384 72.2921 92.7133 72.1183 92.9566 71.7893C93.3652 71.2382 93.2498 70.4611 92.6985 70.0528Z" fill="#DB771C"/>
<path d="M108.001 78.139C108.001 77.4537 107.445 76.8975 106.76 76.8975H98.9503C98.4699 76.8975 98.0317 77.1756 97.8268 77.6113C97.622 78.047 97.6878 78.5623 97.9957 78.9322C101.928 83.6668 104.277 90.8122 104.277 98.0495C104.277 105.005 102.09 111.634 97.9523 117.22C97.5439 117.771 97.6594 118.548 98.2105 118.957C98.4327 119.121 98.6921 119.2 98.949 119.2C99.3289 119.2 99.7038 119.026 99.9483 118.699C104.405 112.682 106.76 105.541 106.76 98.0495C106.76 91.2182 104.793 84.4315 101.419 79.3804H106.76C107.445 79.3804 108.001 78.8242 108.001 78.139Z" fill="#DB771C"/>
<path d="M92.3906 123.827C91.9548 123.622 91.4396 123.688 91.0697 123.996C86.3362 127.928 79.1897 130.277 71.9537 130.277C64.9969 130.277 58.368 128.09 52.7818 123.952C52.2307 123.543 51.4536 123.659 51.0451 124.21C50.6366 124.761 50.7522 125.539 51.3033 125.947C57.3202 130.404 64.4607 132.759 71.9524 132.759C78.7837 132.759 85.5704 130.791 90.6215 127.418V132.759C90.6215 133.444 91.1777 134 91.8629 134C92.5482 134 93.1044 133.444 93.1044 132.759V124.95C93.1044 124.47 92.8263 124.031 92.3906 123.827Z" fill="#DB771C"/>
<path d="M46.0053 117.069C42.0726 112.334 39.7239 105.189 39.7239 97.9515C39.7239 90.9961 41.9112 84.3671 46.0488 78.7809C46.4571 78.2298 46.3417 77.4527 45.7906 77.0442C45.2395 76.6359 44.4624 76.7513 44.0539 77.3024C39.5973 83.3193 37.2424 90.4597 37.2424 97.9515C37.2424 104.783 39.21 111.569 42.5828 116.621H37.2424C36.5571 116.621 36.001 117.177 36.001 117.862C36.001 118.547 36.5571 119.103 37.2424 119.103H45.0519C45.5323 119.103 45.9717 118.825 46.1741 118.39C46.379 117.954 46.3131 117.439 46.0053 117.069Z" fill="#DB771C"/>
<path d="M91.8605 94.2769H89.4634C88.9196 94.2769 88.4418 93.938 88.2991 93.4526C87.8472 91.9133 87.3978 90.7451 86.9273 89.8824C86.6815 89.433 86.7783 88.8508 87.1618 88.4673L88.8588 86.7704C89.0922 86.5382 89.2224 86.2217 89.2224 85.8927C89.2224 85.5638 89.092 85.2484 88.8588 85.0151L84.9844 81.1407C84.499 80.6553 83.7144 80.6553 83.2291 81.1407L81.5322 82.8364C81.1486 83.22 80.5676 83.3168 80.1171 83.0722C79.2567 82.603 78.0887 82.1537 76.5469 81.6993C76.0615 81.5566 75.7226 81.0786 75.7226 80.5349V78.1378C75.7226 77.4526 75.1664 76.8964 74.4811 76.8964H69.5156C68.8304 76.8964 68.2742 77.4526 68.2742 78.1378V80.5324C68.2742 81.0749 67.9353 81.554 67.4499 81.6968C65.9093 82.1511 64.7411 82.6004 63.8809 83.0684C63.4304 83.3142 62.8493 83.2173 62.4658 82.8339L60.7702 81.1382C60.2847 80.6528 59.5002 80.6528 59.0149 81.1382L55.1405 85.0126C54.9071 85.2447 54.7769 85.5613 54.7769 85.8902C54.7769 86.2191 54.9072 86.5345 55.1405 86.7678L56.8375 88.4648C57.2198 88.8484 57.3166 89.4306 57.072 89.8799C56.6015 90.7426 56.1535 91.9108 55.7004 93.4501C55.5576 93.9355 55.0796 94.2744 54.536 94.2744H52.1389C51.4536 94.2744 50.8975 94.8306 50.8975 95.5158V100.481C50.8975 101.167 51.4536 101.723 52.1389 101.723H54.5373C55.0798 101.723 55.5589 102.062 55.7016 102.547C56.1547 104.085 56.6029 105.253 57.0733 106.117C57.3178 106.568 57.2222 107.149 56.8387 107.532L55.1418 109.229C54.9084 109.461 54.7781 109.778 54.7781 110.107C54.7781 110.436 54.9085 110.751 55.1418 110.985L59.0162 114.859C59.5016 115.344 60.2861 115.344 60.7714 114.859L62.4684 113.163C62.852 112.78 63.4342 112.684 63.8824 112.927C64.7427 113.397 65.9107 113.846 67.4525 114.3C67.938 114.443 68.2769 114.921 68.2769 115.465V117.862C68.2769 118.547 68.8331 119.103 69.5183 119.103H74.4838C75.1691 119.103 75.7252 118.547 75.7227 117.862V115.467C75.7227 114.925 76.0616 114.446 76.5482 114.303C78.0887 113.849 79.2569 113.4 80.1171 112.931C80.5676 112.685 81.1487 112.782 81.5322 113.166L83.2291 114.861C83.7146 115.347 84.4991 115.347 84.9844 114.861L88.8588 110.987C89.0922 110.755 89.2224 110.438 89.2224 110.109C89.2224 109.781 89.092 109.465 88.8588 109.232L87.1618 107.535C86.7782 107.151 86.6827 106.569 86.9273 106.12C87.3978 105.257 87.8471 104.089 88.2991 102.55C88.4418 102.064 88.9198 101.725 89.4634 101.725H91.8605C92.5458 101.725 93.102 101.169 93.102 100.484V95.5184C93.1018 94.8331 92.5458 94.2769 91.8605 94.2769ZM90.6229 99.24H89.4672C87.8311 99.24 86.3725 100.311 85.9207 101.846C85.5185 103.214 85.1361 104.223 84.7501 104.929C83.983 106.339 84.2536 108.131 85.4105 109.288L86.2285 110.107L84.1094 112.226L83.2914 111.408C82.1345 110.251 80.3431 109.979 78.9329 110.748C78.2278 111.131 77.2185 111.515 75.8493 111.918C74.3136 112.37 73.2423 113.829 73.2423 115.465V116.621H70.762V115.466C70.762 113.83 69.6895 112.371 68.1564 111.921C66.7858 111.516 65.7767 111.134 65.0715 110.749C63.6626 109.981 61.8711 110.252 60.7142 111.409L59.8962 112.227L57.7771 110.108L58.5964 109.289C59.7521 108.132 60.024 106.341 59.2555 104.93C58.8706 104.224 58.4871 103.215 58.0849 101.847C57.6331 100.312 56.1744 99.2411 54.5384 99.2411H53.3827V96.7584H54.5384C56.1746 96.7584 57.6344 95.6871 58.0849 94.1528C58.4871 92.7848 58.8695 91.7768 59.2555 91.0691C60.0226 89.6602 59.7508 87.8677 58.5951 86.7119L57.7758 85.8926L59.8949 83.7735L60.7129 84.5915C61.8687 85.7485 63.6613 86.0216 65.0715 85.2519C65.7753 84.8683 66.7846 84.4848 68.1538 84.0813C69.6895 83.6295 70.7607 82.1708 70.7607 80.5348V79.379H73.2435V80.5323C73.2435 82.1684 74.3148 83.627 75.8491 84.0777C77.2184 84.4824 78.2276 84.8648 78.9327 85.2495C80.3417 86.0179 82.1342 85.7461 83.29 84.5891L84.1093 83.7711L86.2284 85.8902L85.4103 86.7095C84.2534 87.8651 83.9815 89.6578 84.75 91.068C85.136 91.7744 85.5183 92.7836 85.9205 94.1516C86.3724 95.686 87.8311 96.7573 89.4671 96.7573H90.6229V99.24Z" fill="#DB771C"/>
<path d="M72.0014 88.0688C66.5257 88.0688 62.0703 92.5241 62.0703 97.9998C62.0703 103.476 66.5256 107.931 72.0014 107.931C77.4772 107.931 81.9325 103.476 81.9325 97.9998C81.9325 92.5241 77.4772 88.0688 72.0014 88.0688ZM72.0014 105.448C67.8949 105.448 64.553 102.108 64.553 97.9998C64.553 93.8921 67.8949 90.5515 72.0014 90.5515C76.1079 90.5515 79.4497 93.8922 79.4497 97.9998C79.4497 102.108 76.1092 105.448 72.0014 105.448Z" fill="#DB771C"/>
</g>
<defs>
<linearGradient id="paint0_linear" x1="72.2891" y1="128.133" x2="113.789" y2="35.1326" gradientUnits="userSpaceOnUse">
<stop stop-color="white"/>
<stop offset="1" stop-color="white" stop-opacity="0"/>
</linearGradient>
<clipPath id="clip0">
<rect x="36.001" y="61.9999" width="72" height="72" fill="white"/>
</clipPath>
</defs>
</svg>
