<svg width="145" height="136" viewBox="0 0 145 136" fill="none" xmlns="http://www.w3.org/2000/svg">
<path fill-rule="evenodd" clip-rule="evenodd" d="M80.7527 124.572C69.3766 126.152 59.9236 117.139 49.2101 113.021C37.2075 108.408 19.1934 110.883 14.2795 99.0247C9.22783 86.8337 23.8438 75.4493 28.5252 63.1033C31.8291 54.39 32.7683 45.3484 37.6456 37.403C43.7563 27.4484 48.548 13.3144 60.1229 11.629C71.7605 9.93445 78.4116 25.3488 89.2507 29.8889C101.064 34.8373 116.875 29.7075 125.608 39.0588C134.668 48.7601 136.688 64.2593 133.338 77.0995C130.131 89.3932 117.903 96.2642 108.459 104.79C99.8267 112.583 92.2799 122.97 80.7527 124.572Z" fill="#F5F6F8"/>
<path fill-rule="evenodd" clip-rule="evenodd" d="M80.7527 124.572C69.3766 126.152 59.9236 117.139 49.2101 113.021C37.2075 108.408 19.1934 110.883 14.2795 99.0247C9.22783 86.8337 23.8438 75.4493 28.5252 63.1033C31.8291 54.39 32.7683 45.3484 37.6456 37.403C43.7563 27.4484 48.548 13.3144 60.1229 11.629C71.7605 9.93445 78.4116 25.3488 89.2507 29.8889C101.064 34.8373 116.875 29.7075 125.608 39.0588C134.668 48.7601 136.688 64.2593 133.338 77.0995C130.131 89.3932 117.903 96.2642 108.459 104.79C99.8267 112.583 92.2799 122.97 80.7527 124.572Z" fill="url(#paint0_linear)"/>
<g clip-path="url(#clip0)">
<path d="M72.001 134C52.1503 134 36.001 117.851 36.001 97.9999C36.001 78.1492 52.1503 61.9999 72.001 61.9999C91.8516 61.9999 108.001 78.1492 108.001 97.9999C108.001 117.851 91.8516 134 72.001 134ZM72.001 64.3998C53.4742 64.3998 38.4009 79.4731 38.4009 97.9999C38.4009 116.527 53.4742 131.6 72.001 131.6C90.5278 131.6 105.601 116.527 105.601 97.9999C105.601 79.4731 90.5278 64.3998 72.001 64.3998Z" fill="#DB771C"/>
<path d="M99.601 99.2001C98.9386 99.2001 98.4013 98.6623 98.4013 97.9999C98.4035 90.5874 95.1406 83.6633 89.214 78.5057C88.7136 78.0701 88.6619 77.3132 89.0964 76.8127C89.5321 76.3123 90.289 76.2618 90.7894 76.6952C97.2478 82.3158 100.803 89.8821 100.801 97.9999C100.801 98.6623 100.264 99.2001 99.601 99.2001Z" fill="#DB771C"/>
<path d="M81.5734 73.3048C81.4355 73.3048 81.2949 73.2812 81.1581 73.2307C78.2325 72.1496 75.1508 71.6008 72.001 71.5997C71.3386 71.5997 70.8008 71.0625 70.8008 70.4C70.8008 69.7375 71.3386 69.1998 72.001 69.1998C75.4365 69.2009 78.7966 69.7996 81.9887 70.9796C82.61 71.2086 82.928 71.8986 82.699 72.5215C82.5204 73.0049 82.0618 73.3048 81.5734 73.3048Z" fill="#DB771C"/>
<path d="M54.0013 119.6C53.7288 119.6 53.4564 119.507 53.2322 119.32C46.6668 113.826 43.199 106.452 43.2012 97.9999C43.2012 97.3374 43.739 96.7996 44.4014 96.7996C45.0639 96.7996 45.6011 97.3374 45.6011 97.9999C45.5989 105.719 48.7707 112.455 54.7714 117.48C55.2806 117.904 55.3466 118.661 54.9219 119.171C54.6841 119.453 54.3435 119.6 54.0013 119.6Z" fill="#DB771C"/>
<path d="M71.9955 126.8C68.7649 126.8 65.5926 126.268 62.5648 125.219C61.9386 125.001 61.6074 124.318 61.8243 123.692C62.0419 123.066 62.7247 122.734 63.3509 122.951C66.1255 123.913 68.9847 124.395 72.0004 124.4C72.6629 124.4 73.2007 124.937 73.2007 125.6C73.2007 126.262 72.6629 126.8 72.0004 126.8C71.9993 126.8 71.9966 126.8 71.9955 126.8Z" fill="#DB771C"/>
<path d="M64.8011 118.4C64.6148 118.4 64.4275 118.356 64.2523 118.267C63.7508 118.009 63.4964 117.436 63.642 116.89L68.0387 100.4H62.4011C61.9364 100.4 61.5139 100.132 61.3162 99.7121C61.1179 99.2924 61.1794 98.7953 61.4744 98.4377L78.2747 78.0377C78.6345 77.6032 79.2475 77.4763 79.7496 77.7345C80.2511 77.9921 80.5055 78.5645 80.3599 79.1105L75.9632 95.5999H81.6008C82.0655 95.5999 82.4879 95.8674 82.6857 96.2876C82.884 96.7073 82.8225 97.2044 82.5275 97.562L65.7272 117.962C65.4932 118.248 65.1499 118.4 64.8011 118.4ZM64.9439 97.9998H69.601C69.974 97.9998 70.3255 98.174 70.5524 98.469C70.7793 98.7656 70.8562 99.1496 70.76 99.5094L67.3823 112.178L79.058 97.9998H74.4009C74.0279 97.9998 73.6764 97.8257 73.4495 97.5307C73.2226 97.2341 73.1457 96.8501 73.2418 96.4903L76.6196 83.822L64.9439 97.9998Z" fill="#DB771C"/>
</g>
<defs>
<linearGradient id="paint0_linear" x1="72.2891" y1="128.133" x2="113.789" y2="35.1327" gradientUnits="userSpaceOnUse">
<stop stop-color="white"/>
<stop offset="1" stop-color="white" stop-opacity="0"/>
</linearGradient>
<clipPath id="clip0">
<rect x="36.001" y="61.9999" width="72" height="72" fill="white"/>
</clipPath>
</defs>
</svg>
