<svg width="145" height="136" viewBox="0 0 145 136" fill="none" xmlns="http://www.w3.org/2000/svg">
<path fill-rule="evenodd" clip-rule="evenodd" d="M80.7527 124.572C69.3766 126.152 59.9236 117.139 49.2101 113.021C37.2075 108.408 19.1934 110.883 14.2795 99.0247C9.22783 86.8337 23.8438 75.4493 28.5252 63.1033C31.8291 54.39 32.7683 45.3484 37.6456 37.403C43.7563 27.4484 48.548 13.3144 60.1229 11.629C71.7605 9.93445 78.4116 25.3488 89.2507 29.8889C101.064 34.8373 116.875 29.7075 125.608 39.0588C134.668 48.7601 136.688 64.2593 133.338 77.0995C130.131 89.3932 117.903 96.2642 108.459 104.79C99.8267 112.583 92.2799 122.97 80.7527 124.572Z" fill="#F5F6F8"/>
<path fill-rule="evenodd" clip-rule="evenodd" d="M80.7527 124.572C69.3766 126.152 59.9236 117.139 49.2101 113.021C37.2075 108.408 19.1934 110.883 14.2795 99.0247C9.22783 86.8337 23.8438 75.4493 28.5252 63.1033C31.8291 54.39 32.7683 45.3484 37.6456 37.403C43.7563 27.4484 48.548 13.3144 60.1229 11.629C71.7605 9.93445 78.4116 25.3488 89.2507 29.8889C101.064 34.8373 116.875 29.7075 125.608 39.0588C134.668 48.7601 136.688 64.2593 133.338 77.0995C130.131 89.3932 117.903 96.2642 108.459 104.79C99.8267 112.583 92.2799 122.97 80.7527 124.572Z" fill="url(#paint0_linear)"/>
<g clip-path="url(#clip0)">
<path d="M92.6985 70.0528C86.6816 65.5961 79.5412 63.2414 72.0494 63.2414C65.2182 63.2414 58.4314 65.2077 53.3803 68.5818V63.2414C53.3803 62.5561 52.8242 61.9999 52.1389 61.9999C51.4536 61.9999 50.8975 62.5561 50.8975 63.2414V71.0508C50.8975 71.5325 51.1755 71.9694 51.6113 72.1743C52.0469 72.3792 52.5622 72.3134 52.9322 72.0054C57.6667 68.0727 64.8134 65.724 72.0494 65.724C79.0049 65.724 85.6338 67.9113 91.2213 72.0489C91.4422 72.2127 91.7016 72.2921 91.9587 72.2921C92.3385 72.2921 92.7134 72.1183 92.9567 71.7894C93.3652 71.2383 93.2498 70.4612 92.6985 70.0528Z" fill="#DB771C"/>
<path d="M106.759 76.8965H98.95C98.4684 76.8965 98.0326 77.1757 97.8278 77.6115C97.6229 78.0472 97.6887 78.5624 97.9967 78.9324C101.929 83.667 104.278 90.8124 104.278 98.0497C104.278 105.005 102.091 111.634 97.9533 117.22C97.5449 117.771 97.6603 118.548 98.2114 118.957C98.4324 119.121 98.6918 119.2 98.9489 119.2C99.3287 119.2 99.7036 119.026 99.9482 118.698C104.405 112.681 106.76 105.54 106.76 98.0484C106.76 91.2171 104.793 84.4304 101.419 79.3793H106.76C107.445 79.3793 108.001 78.8232 108.001 78.1379C108.001 77.4526 107.445 76.8965 106.759 76.8965Z" fill="#DB771C"/>
<path d="M92.3918 123.827C91.9561 123.622 91.4408 123.688 91.0709 123.996C86.3363 127.928 79.1896 130.277 71.9536 130.277C64.9969 130.277 58.368 128.09 52.7818 123.952C52.2307 123.544 51.4536 123.659 51.0451 124.21C50.6367 124.762 50.7521 125.539 51.3032 125.947C57.3202 130.404 64.4607 132.759 71.9523 132.759C78.7836 132.759 85.5703 130.792 90.6214 127.418V132.759C90.6214 133.444 91.1776 134 91.8629 134C92.5481 134 93.1043 133.444 93.1043 132.759V124.949C93.1043 124.467 92.8263 124.029 92.3918 123.827Z" fill="#DB771C"/>
<path d="M46.0064 117.069C42.0737 112.334 39.725 105.189 39.725 97.9515C39.725 90.9961 41.9123 84.3672 46.0486 78.781C46.457 78.2299 46.3416 77.4528 45.7904 77.0443C45.2393 76.6346 44.4622 76.7513 44.0537 77.3024C39.5972 83.3194 37.2424 90.4597 37.2424 97.9515C37.2424 104.783 39.2088 111.57 42.5828 116.621H37.2424C36.5571 116.621 36.001 117.177 36.001 117.862C36.001 118.547 36.5571 119.104 37.2424 119.104H45.0519C45.5335 119.104 45.9704 118.825 46.1753 118.39C46.3802 117.954 46.3144 117.439 46.0064 117.069Z" fill="#DB771C"/>
<path d="M72.0012 122.828C71.3159 122.828 70.7598 123.384 70.7598 124.069V125.31C70.7598 125.996 71.3159 126.552 72.0012 126.552C72.6865 126.552 73.2426 125.996 73.2426 125.31V124.069C73.2426 123.384 72.6865 122.828 72.0012 122.828Z" fill="#DB771C"/>
<path d="M99.312 96.7585H98.0705C97.3853 96.7585 96.8291 97.3147 96.8291 98C96.8291 98.6852 97.3853 99.2414 98.0705 99.2414H99.312C99.9972 99.2414 100.553 98.6852 100.553 98C100.553 97.3147 99.9972 96.7585 99.312 96.7585Z" fill="#DB771C"/>
<path d="M45.9321 96.7585H44.6907C44.0054 96.7585 43.4492 97.3147 43.4492 98C43.4492 98.6852 44.0054 99.2414 44.6907 99.2414H45.9321C46.6174 99.2414 47.1735 98.6852 47.1735 98C47.1735 97.3147 46.6174 96.7585 45.9321 96.7585Z" fill="#DB771C"/>
<path d="M92.7407 77.2603C92.2565 76.7748 91.4696 76.7748 90.9854 77.2603L89.744 78.5017C89.2585 78.9871 89.2585 79.7717 89.744 80.257C89.986 80.499 90.3038 80.6206 90.6216 80.6206C90.9394 80.6206 91.2572 80.499 91.4992 80.2568L92.7407 79.0154C93.2261 78.5301 93.2261 77.7456 92.7407 77.2603Z" fill="#DB771C"/>
<path d="M54.2581 115.743C53.7739 115.258 52.987 115.258 52.5028 115.743L51.2615 116.984C50.7761 117.47 50.7761 118.254 51.2615 118.74C51.5036 118.982 51.8214 119.103 52.1392 119.103C52.457 119.103 52.7748 118.982 53.0168 118.74L54.2583 117.498C54.7436 117.013 54.7436 116.228 54.2581 115.743Z" fill="#DB771C"/>
<path d="M92.7407 116.984L91.4992 115.743C91.0151 115.257 90.2281 115.257 89.744 115.743C89.2585 116.228 89.2585 117.013 89.744 117.498L90.9854 118.74C91.2274 118.982 91.5452 119.103 91.863 119.103C92.1808 119.103 92.4987 118.982 92.7407 118.74C93.2261 118.254 93.2261 117.47 92.7407 116.984Z" fill="#DB771C"/>
<path d="M54.2581 78.5016L53.0168 77.2603C52.5327 76.7748 51.7457 76.7748 51.2615 77.2603C50.7761 77.7457 50.7761 78.5302 51.2615 79.0155L52.503 80.257C52.745 80.499 53.0628 80.6206 53.3806 80.6206C53.6984 80.6206 54.0162 80.499 54.2583 80.2568C54.7436 79.7715 54.7436 78.987 54.2581 78.5016Z" fill="#DB771C"/>
<path d="M72.0006 93.0345C69.2621 93.0345 67.0352 95.2616 67.0352 98C67.0352 100.738 69.2622 102.965 72.0006 102.965C74.739 102.965 76.9661 100.738 76.9661 98C76.9661 95.2616 74.7392 93.0345 72.0006 93.0345ZM72.0006 100.483C70.6314 100.483 69.5179 99.3692 69.5179 98C69.5179 96.6307 70.6314 95.5172 72.0006 95.5172C73.3699 95.5172 74.4834 96.6307 74.4834 98C74.4834 99.3692 73.3699 100.483 72.0006 100.483Z" fill="#DB771C"/>
<path d="M72.0012 69.4483C71.3159 69.4483 70.7598 70.0044 70.7598 70.6897V94.2759C70.7598 94.9612 71.3159 95.5173 72.0012 95.5173C72.6865 95.5173 73.2426 94.9612 73.2426 94.2759V70.6896C73.2426 70.0043 72.6865 69.4483 72.0012 69.4483Z" fill="#DB771C"/>
<path d="M86.8972 96.7585H75.7248C75.0396 96.7585 74.4834 97.3147 74.4834 98C74.4834 98.6852 75.0396 99.2414 75.7248 99.2414H86.8972C87.5825 99.2414 88.1386 98.6852 88.1386 98C88.1386 97.3147 87.5825 96.7585 86.8972 96.7585Z" fill="#DB771C"/>
</g>
<defs>
<linearGradient id="paint0_linear" x1="72.2891" y1="128.133" x2="113.789" y2="35.1327" gradientUnits="userSpaceOnUse">
<stop stop-color="white"/>
<stop offset="1" stop-color="white" stop-opacity="0"/>
</linearGradient>
<clipPath id="clip0">
<rect x="36.001" y="61.9999" width="72" height="72" fill="white"/>
</clipPath>
</defs>
</svg>
