<svg width="72" height="71" viewBox="0 0 72 71" fill="none" xmlns="http://www.w3.org/2000/svg">
<g clip-path="url(#clip0)">
<path d="M59.7648 3.49457C55.7829 3.49457 52.5426 6.68743 52.5426 10.6136C52.5426 14.5397 55.783 17.7326 59.7648 17.7326C63.7478 17.7326 66.987 14.5397 66.987 10.6136C66.987 6.68743 63.7466 3.49457 59.7648 3.49457ZM59.7648 15.3596C57.1094 15.3596 54.95 13.231 54.95 10.6136C54.95 7.9961 57.1094 5.86752 59.7648 5.86752C62.4202 5.86752 64.5796 7.9961 64.5796 10.6136C64.5796 13.231 62.4202 15.3596 59.7648 15.3596Z" fill="white"/>
<path d="M11.6163 53.3281C7.63443 53.3281 4.39417 56.5209 4.39417 60.4471C4.39417 64.3732 7.63457 67.5661 11.6163 67.5661C15.5994 67.5661 18.8385 64.3732 18.8385 60.4471C18.8385 56.5209 15.5981 53.3281 11.6163 53.3281ZM11.6163 65.1931C8.96094 65.1931 6.80151 63.0645 6.80151 60.4471C6.80151 57.8296 8.96094 55.701 11.6163 55.701C14.2717 55.701 16.4312 57.8296 16.4312 60.4471C16.4312 63.0645 14.2717 65.1931 11.6163 65.1931Z" fill="white"/>
<path d="M48.6281 2.2916C35.6787 -2.57782 20.5072 0.4774 10.8775 9.89589C10.4057 10.3575 10.4032 11.1097 10.8715 11.5736C11.1075 11.8073 11.4168 11.9248 11.7261 11.9248C12.0318 11.9248 12.3388 11.8098 12.5735 11.5808C21.5436 2.8053 35.6883 -0.0339514 47.7699 4.50916C48.3921 4.74412 49.0867 4.43556 49.3239 3.8233C49.5611 3.21103 49.2492 2.5253 48.6281 2.2916Z" fill="white"/>
<path d="M8.75146 14.0143C8.21216 13.631 7.45982 13.7497 7.07114 14.2825C3.35275 19.3595 0.983938 25.3727 0.22077 31.672C0.142583 32.3222 0.613112 32.913 1.27405 32.9902C1.32214 32.9962 1.37037 32.9985 1.41847 32.9985C2.02034 32.9985 2.5391 32.5559 2.61012 31.9532C3.32505 26.0539 5.54241 20.4228 9.0223 15.6708C9.41225 15.139 9.29061 14.3975 8.75146 14.0143Z" fill="white"/>
<path d="M6.05418 51.2599C4.34616 48.0207 3.21582 44.5299 2.69467 40.8885C2.60073 40.2395 1.99169 39.7839 1.33455 39.8789C0.676146 39.9702 0.21757 40.5705 0.310242 41.2195C0.869926 45.129 2.08323 48.8748 3.91781 52.3537C4.13213 52.7606 4.55217 52.9932 4.9867 52.9932C5.17443 52.9932 5.36343 52.9505 5.5416 52.8603C6.13124 52.5578 6.36116 51.8412 6.05418 51.2599Z" fill="white"/>
<path d="M25.8209 67.2423C22.6539 66.3203 19.6748 64.9451 16.9653 63.1535C16.4116 62.7869 15.6653 62.9316 15.2945 63.4775C14.9238 64.0209 15.0718 64.7577 15.6232 65.1231C18.5362 67.0488 21.7368 68.5272 25.1385 69.5179C25.2528 69.5512 25.3671 69.5666 25.4803 69.5666C25.9991 69.5666 26.4795 69.2332 26.6347 68.7159C26.8225 68.0882 26.459 67.4273 25.8209 67.2423Z" fill="white"/>
<path d="M49.7705 66.7925C49.5213 66.1838 48.8196 65.8931 48.2033 66.1375C43.782 67.9018 38.9167 68.7467 34.1331 68.577C33.4723 68.5367 32.9114 69.0647 32.8873 69.7196C32.8644 70.3758 33.3833 70.9239 34.0478 70.9476C34.4751 70.963 34.9036 70.9713 35.3321 70.9713C40.0337 70.9713 44.7691 70.0684 49.1061 68.3372C49.7224 68.0917 50.0197 67.4 49.7705 66.7925Z" fill="white"/>
<path d="M66.3287 51.7629C65.7558 51.4319 65.0191 51.617 64.6809 52.1829C62.2049 56.3214 58.7634 59.9498 54.7275 62.6764C54.1797 63.0477 54.0401 63.787 54.4157 64.3269C54.6493 64.6626 55.026 64.8431 55.4099 64.8431C55.6446 64.8431 55.8817 64.7754 56.0876 64.6342C60.4114 61.7118 64.0995 57.8225 66.7537 53.3872C67.0919 52.8238 66.9016 52.0952 66.3287 51.7629Z" fill="white"/>
<path d="M71.5305 31.1356C71.4499 30.4854 70.8504 30.0084 70.1895 30.1021C69.5287 30.1804 69.0591 30.7724 69.1399 31.4227C69.6948 35.9112 69.2795 40.5778 67.9361 44.9156C67.7423 45.5422 68.1011 46.2053 68.7365 46.3965C68.8533 46.4321 68.9712 46.4487 69.088 46.4487C69.6032 46.4487 70.0798 46.1188 70.24 45.6087C71.6809 40.9551 72.1263 35.9504 71.5305 31.1356Z" fill="white"/>
<path d="M69.6894 23.5088C68.4941 20.2293 66.8162 17.1419 64.7014 14.3347C64.3054 13.8079 63.5519 13.6987 63.0174 14.0891C62.4829 14.4794 62.3722 15.2222 62.7682 15.7477C64.7423 18.3687 66.3095 21.2495 67.4241 24.3108C67.5999 24.7949 68.0633 25.0964 68.5569 25.0964C68.6917 25.0964 68.829 25.0738 68.9637 25.0264C69.5895 24.8055 69.9144 24.1258 69.6894 23.5088Z" fill="white"/>
<path d="M51.8933 15.966C51.3733 15.5567 50.6161 15.6386 50.2009 16.1487C49.7856 16.66 49.8687 17.4064 50.3875 17.8169C59.319 24.8755 61.434 38.1038 55.2011 47.9293C54.8484 48.4857 55.0192 49.2166 55.5838 49.5642C55.7824 49.6865 56.0028 49.7446 56.2206 49.7446C56.6214 49.7446 57.0139 49.5476 57.2425 49.188C64.1122 38.359 61.7625 23.765 51.8933 15.966Z" fill="white"/>
<path d="M52.0154 53.5215C51.6013 53.0112 50.8441 52.9246 50.3242 53.3352C47.7531 55.357 44.6174 56.814 41.2543 57.5473C40.6054 57.6885 40.1962 58.322 40.3395 58.9615C40.4635 59.5156 40.9606 59.8918 41.5132 59.8918C41.5987 59.8918 41.6865 59.8824 41.7732 59.8634C45.4927 59.053 48.9689 57.4369 51.8253 55.1886C52.3453 54.7815 52.4295 54.034 52.0154 53.5215Z" fill="white"/>
<path d="M14.7137 42.195C13.7591 39.0875 13.4666 35.7474 13.8663 32.5345C13.947 31.8831 13.4775 31.291 12.8178 31.2126C12.1546 31.1153 11.5562 31.5947 11.4757 32.2449C11.0351 35.7843 11.3577 39.4625 12.4086 42.8832C12.5662 43.3958 13.0442 43.7256 13.5606 43.7256C13.6762 43.7256 13.7941 43.709 13.9109 43.6746C14.5463 43.4847 14.9063 42.8226 14.7137 42.195Z" fill="white"/>
<path d="M24.8719 14.6087C24.5264 14.0487 23.7862 13.8718 23.2181 14.2113C19.1592 16.6448 15.9225 20.1332 13.8581 24.3037C13.5669 24.8923 13.8148 25.6029 14.4117 25.89C14.5815 25.973 14.762 26.011 14.9389 26.011C15.3843 26.011 15.8128 25.7667 16.0211 25.3442C17.8832 21.5841 20.8045 18.4352 24.4686 16.2389C25.0369 15.8985 25.2175 15.1687 24.8719 14.6087Z" fill="white"/>
<path d="M54.372 34.3439H18.2609C17.5964 34.3439 17.0571 34.8742 17.0571 35.5304C17.0571 36.1866 17.5964 36.717 18.2609 36.717H54.372C55.0365 36.717 55.5758 36.1866 55.5758 35.5304C55.5758 34.8742 55.0365 34.3439 54.372 34.3439Z" fill="white"/>
<path d="M49.9352 22.1074C46.2977 18.5206 41.4612 16.5463 36.3165 16.5463C31.1717 16.5463 26.3354 18.5219 22.6977 22.1074C19.0602 25.6919 17.0571 30.4604 17.0571 35.5304C17.0571 40.6004 19.06 45.3689 22.6977 48.9533C26.3352 52.5401 31.1717 54.5144 36.3165 54.5144C41.461 54.5144 46.2975 52.5401 49.9352 48.9533C53.5727 45.3689 55.5758 40.6004 55.5758 35.5304C55.5758 30.4604 53.5729 25.6919 49.9352 22.1074ZM48.2332 47.2757C45.0495 50.4139 40.8184 52.1415 36.3166 52.1415C31.8148 52.1415 27.5826 50.4139 24.4 47.2757C21.2174 44.1385 19.4648 39.9668 19.4648 35.5304C19.4648 31.094 21.2174 26.9235 24.4 23.7851C27.5837 20.6468 31.8148 18.9193 36.3166 18.9193C40.8184 18.9193 45.0506 20.648 48.2332 23.7851C51.4158 26.9222 53.1684 31.094 53.1684 35.5304C53.1683 39.9668 51.4158 44.1373 48.2332 47.2757Z" fill="white"/>
<path d="M51.1092 46.8852C51.0044 46.5032 50.7132 46.197 50.3328 46.0713C47.8255 45.236 42.6724 43.8347 36.3169 43.8347C29.9614 43.8347 24.8082 45.236 22.301 46.0713C21.9207 46.1982 21.6294 46.5043 21.5247 46.8852C21.4199 47.2672 21.5151 47.6766 21.7786 47.9745C22.0724 48.3078 22.3757 48.6354 22.6983 48.9534C26.3358 52.5402 31.1723 54.5145 36.3171 54.5145C41.4617 54.5145 46.2981 52.5402 49.9358 48.9534C50.2571 48.6366 50.5606 48.308 50.8555 47.9745C51.1187 47.6767 51.2139 47.2674 51.1092 46.8852ZM36.318 52.1403C32.0533 52.1403 28.0318 50.5907 24.9141 47.7609C27.5659 47.0276 31.5887 46.2077 36.318 46.2077C41.0474 46.2077 45.0689 47.0276 47.722 47.7609C44.6043 50.5896 40.5828 52.1403 36.318 52.1403Z" fill="white"/>
<path d="M50.855 23.0851C50.5613 22.7517 50.2579 22.4242 49.9353 22.1062C46.2978 18.5194 41.4613 16.5451 36.3166 16.5451C31.1719 16.5451 26.3355 18.5207 22.6978 22.1062C22.3765 22.4229 22.0731 22.7516 21.7782 23.0851C21.5145 23.3829 21.4194 23.7923 21.5242 24.1744C21.629 24.5564 21.9202 24.8626 22.3006 24.9883C24.8079 25.8236 29.9609 27.2249 36.3165 27.2249C42.672 27.2249 47.8263 25.8236 50.3323 24.9883C50.7127 24.8613 51.0039 24.5553 51.1087 24.1744C51.2138 23.7922 51.1186 23.3829 50.855 23.0851ZM36.3179 24.8518C31.5885 24.8518 27.567 24.0319 24.9139 23.2986C28.0316 20.4687 32.0532 18.9192 36.3179 18.9192C40.5826 18.9192 44.6041 20.4687 47.7218 23.2986C45.0688 24.0331 41.0472 24.8518 36.3179 24.8518Z" fill="white"/>
<path d="M40.7662 19.8186C39.4085 18.4803 38.2348 17.5287 36.9589 16.7349C36.587 16.5035 36.1176 16.4892 35.7348 16.6992C35.3508 16.9081 35.1125 17.3068 35.1125 17.7386V53.3281C35.1125 53.76 35.3509 54.1586 35.7348 54.3674C35.9165 54.4658 36.1163 54.5145 36.3162 54.5145C36.54 54.5145 36.7628 54.4528 36.9589 54.3318C38.224 53.5439 39.3976 52.5923 40.7662 51.242C45.0971 46.9742 47.4817 41.3929 47.4817 35.5303C47.4816 29.6678 45.0971 24.0888 40.7662 19.8186ZM39.063 49.5644C38.5189 50.1007 38.011 50.5657 37.5198 50.9776V20.0844C38.0132 20.4961 38.5213 20.96 39.0641 21.4963C42.94 25.3181 45.0742 30.3014 45.0742 35.5303C45.0742 40.7593 42.9388 45.7426 39.063 49.5644Z" fill="white"/>
<path d="M36.8983 16.6992C36.5142 16.4903 36.0448 16.5046 35.6741 16.7348C34.3983 17.5285 33.2246 18.4801 31.8669 19.8186C27.5359 24.0877 25.1514 29.6678 25.1514 35.5304C25.1514 41.393 27.5359 46.9731 31.8669 51.2421C33.2246 52.5805 34.3983 53.5321 35.6741 54.3259C35.8703 54.4469 36.0931 54.5086 36.3169 54.5086C36.5168 54.5086 36.7177 54.46 36.8983 54.3615C37.2823 54.1526 37.5205 53.754 37.5205 53.3222V17.7387C37.5205 17.3068 37.2822 16.9081 36.8983 16.6992ZM35.1132 50.9739C34.6197 50.5633 34.1129 50.0983 33.57 49.5632C29.6941 45.7415 27.5598 40.7581 27.5598 35.5293C27.5598 30.3004 29.694 25.3169 33.57 21.4953C34.1117 20.9602 34.6196 20.4963 35.1132 20.0846V50.9739Z" fill="white"/>
</g>
<defs>
<clipPath id="clip0">
<rect width="72" height="70.9714" fill="white"/>
</clipPath>
</defs>
</svg>
